<svg xmlns="http://www.w3.org/2000/svg" xml:space="preserve" id="Layer_1" x="0" y="0" version="1.1" viewBox="0 0 100 50"
    role="img" aria-labelledby="svg-i4sgd9l2bx-title">
    <title id="svg-i4sgd9l2bx-title">Планировка апартамента № 06-226Н</title>
    <path id="Background" d="M4.3 1h94.3v47.3H4.3z" style="opacity:.1;fill:#1d2132"></path>
    <g id="Furniture">
        <path d="M55 2.6h8.3v17.6H55z"
            style="fill:#fff;stroke:#1d2132;stroke-linecap:square;stroke-miterlimit:22.9256;stroke-width:.1"></path>
        <path d="M55 13.7h8.3v6.5H55zM55 2.6h8.3v7H55zM55 20.2h8.3v5.3H55z"
            style="fill:#fff;stroke:#1d2132;stroke-linecap:square;stroke-miterlimit:22.9256;stroke-width:.1"></path>
        <path d="M58.1 22.9h2.1M58.4 22.1l1.5 1.5M59.2 21.8v2.1M59.9 22.1l-1.5 1.5"
            style="stroke-width:.1;fill:none;stroke:#1d2132;stroke-linecap:square;stroke-miterlimit:22.9256"></path>
        <path d="M55.3 14.6h7.6v4.9h-7.6z"
            style="fill:#fff;stroke:#1d2132;stroke-linecap:square;stroke-miterlimit:22.9256;stroke-width:.1"></path>
        <path
            d="M57.4 15.7c-.7 0-1.3.6-1.3 1.3s.6 1.3 1.3 1.3 1.3-.6 1.3-1.3c.1-.7-.5-1.3-1.3-1.3M61.2 15.7c-.7 0-1.3.6-1.3 1.3s.6 1.3 1.3 1.3 1.3-.6 1.3-1.3-.6-1.3-1.3-1.3"
            style="fill:#fff;stroke:#1d2132;stroke-linecap:square;stroke-miterlimit:22.9256;stroke-width:.1"></path>
        <path
            d="M57.4 15.9c-.6 0-1.1.5-1.1 1.1s.5 1.1 1.1 1.1 1.1-.5 1.1-1.1-.5-1.1-1.1-1.1M61.2 15.9c-.6 0-1.1.5-1.1 1.1s.5 1.1 1.1 1.1 1.1-.5 1.1-1.1-.5-1.1-1.1-1.1M61.3 8.2H56c-.3 0-.5-.2-.5-.5V4.5c0-.3.2-.5.5-.5h5.3c.3 0 .5.2.5.5v3.2c0 .3-.3.5-.5.5z"
            style="fill:#fff;stroke:#1d2132;stroke-linecap:square;stroke-miterlimit:22.9256;stroke-width:.1"></path>
        <path
            d="M61 6.1c0 .2-.2.3-.4.3s-.4-.2-.4-.3.2-.3.4-.3.4.1.4.3zM62.8 6.1c0 .3-.2.6-.5.6s-.5-.3-.5-.6.2-.6.5-.6c.3.1.5.3.5.6z"
            style="fill:#fff;stroke:#1d2132;stroke-linecap:square;stroke-miterlimit:22.9256;stroke-width:.1"></path>
        <path d="M59.3 6.1c0-.1.2-.1.3-.1h2.7c.1 0 .3.1.3.2h0c0 .1-.1.2-.3.2h-2.7c-.1-.1-.3-.2-.3-.3z"
            style="fill:#fff;stroke:#1d2132;stroke-linecap:square;stroke-miterlimit:22.9256;stroke-width:.1"></path>
        <path d="M62.4 6.1c0 .4-.1.8-.2.8s-.2-.3-.2-.8c0-.4.1-.8.2-.8.2 0 .2.4.2.8z"
            style="fill:#fff;stroke:#1d2132;stroke-linecap:square;stroke-miterlimit:22.9256;stroke-width:.1"></path>
        <path d="M56.5 39.4h23.9v7.8H56.5z"
            style="stroke-width:.1;fill:#fff;stroke-miterlimit:10;stroke:#1d2132;stroke-linecap:square"></path>
        <path
            d="M68.5 42.3c-.1 0-.1 0-.1-.1v-.4c0-.1.1-.2.2-.3s.3-.2.4-.5c0-.2 0-.3-.2-.4-.1-.1-.3-.1-.5 0-.3.2-.3.5-.3.5 0 .1 0 .1-.1.1s-.1 0-.1-.1c0-.2 0-.6.4-.8.2-.1.5-.1.7 0s.3.4.3.6c-.1.3-.3.5-.5.6l-.1.1v.3c0 .4 0 .4-.1.4zm.1-.5h0z"
            style="stroke-width:.1;fill:#fff;stroke-miterlimit:10;stroke:#1d2132;stroke-linecap:square"></path>
        <path
            d="M72.3 44.7h-7.6c-.3 0-.6.1-.7-.2s.1-.5.3-.7q0 0 0 0l3.5-1.6h1.4000000000000001l3.5 1.6q0 0 0 0c.3.1.4.4.3.7-.1.2-.4.2-.7.2zm-8-.5c-.1 0-.1.1-.1.2s0 .1.2.1h8.2c.1 0 .2-.1.2-.1s0-.1-.1-.2l-3.7-1h-1.1zM7.7 41.9h31.2v5.4H7.7zM35.7 41.9h.6v-.6h-3.2v.6h.5v-.4h2.1zM12.9 41.9h.6v-.6h-3.3v.6h.6v-.4h2.1zM29.7 41.9h.6v-.6h-3.2v.6h.5v-.4h2.1zM18.9 41.9h.6v-.6h-3.3v.6h.6v-.4h2.1z"
            style="stroke-width:.1;fill:#fff;stroke-miterlimit:10;stroke:#1d2132;stroke-linecap:square"></path>
        <path d="M21.3 45.3v-.4c0-.5.4-.9.9-.9h2.2c.5 0 .9.4.9.9v.4c0 .5-.4.9-.9.9h-2.2c-.5 0-.9-.4-.9-.9z"
            style="stroke-width:.1;fill:#fff;stroke-miterlimit:10;stroke:#1d2132;stroke-linecap:square"></path>
        <path d="M22 44.9v-.1c0-.2.2-.4.4-.4h1.7c.2 0 .4.2.4.4v.1c0 .2-.2.4-.4.4h-1.7c-.2 0-.4-.2-.4-.4z"
            style="stroke-width:.1;fill:#fff;stroke-miterlimit:10;stroke:#1d2132;stroke-linecap:square"></path>
        <path
            d="M16.2 44.4h14.2v.2H16.2zM18.2 45l-2-.4h14.2l-2.1.4zM46.5 10.1c-.1-.6-.1-1.3-.1-1.8s0-1.2.1-1.8.5-.8 1.5-.8c1 .1 3.5.2 4 .4s.5 1 .5 2.2 0 2-.5 2.2-3 .4-4 .4c-1.1.1-1.4-.2-1.5-.8zM51.1 9c0-.1.1-.4.1-.7s0-.7-.1-.7-.1-.1-.2-.1 0 .2 0 .8-.1.8 0 .8.2 0 .2-.1z"
            style="stroke-width:.1;fill:#fff;stroke-miterlimit:10;stroke:#1d2132;stroke-linecap:square"></path>
        <path
            d="M46.5 10.1c-.1-.6-.1-1.3-.1-1.8s0-1.2.1-1.8.4-.8 1.4-.8c1 .1 3.4.2 3.9.4.4.2.5 1 .5 2.2s0 2-.5 2.2-2.9.4-3.9.4c-1 .1-1.3-.2-1.4-.8zM51 9c0-.1.1-.4.1-.7s0-.7-.1-.7-.2-.1-.2-.1c-.1 0 0 .2 0 .8s-.1.8 0 .8c0 0 .2 0 .2-.1z"
            style="stroke-width:.1;fill:#fff;stroke-miterlimit:10;stroke:#1d2132;stroke-linecap:square"></path>
        <path
            d="M47.6 5.9c.8.1 1.8.1 2.2.3.3.2.7 1.1.7 2.2s-.3 2-.7 2.2-1.5.2-2.3.2-1-.2-1.2-.7c-.1-.5-.1-1.2-.1-1.7 0-.4 0-1.1.1-1.7.2-.6.5-.9 1.3-.8zM46 16.9c0-.6.3-1.3.5-1.8s.3-1.2.7-1.7c.3-.5.7-.7 1.6-.3s3.3 1.3 3.7 1.6.2 1.1-.2 2.2-.6 1.9-1.1 1.9-3-.6-4-.8-1.3-.5-1.2-1.1zm4.8.3s.2-.3.3-.6.2-.6.2-.7-.1-.1-.2-.1 0 .2-.2.8-.4.7-.3.7c0 0 .1 0 .2-.1z"
            style="stroke-width:.1;fill:#fff;stroke-miterlimit:10;stroke:#1d2132;stroke-linecap:square"></path>
        <path
            d="M46 16.9c0-.6.3-1.3.5-1.8s.3-1.2.7-1.7c.3-.5.7-.7 1.6-.3s3.2 1.3 3.6 1.6.1 1.1-.2 2.2c-.4 1.1-.6 1.9-1.1 1.9s-2.9-.6-3.9-.8c-1.1-.2-1.3-.5-1.2-1.1zm4.7.3s.2-.3.3-.6.2-.6.2-.7-.1-.1-.2-.1 0 .2-.2.8-.4.7-.3.7c0-.1.1-.1.2-.1z"
            style="stroke-width:.1;fill:#fff;stroke-miterlimit:10;stroke:#1d2132;stroke-linecap:square"></path>
        <path
            d="M48.3 13.2c.7.3 1.8.6 2.1.9s.3 1.2 0 2.3c-.3 1-.9 1.8-1.3 1.8s-1.5-.3-2.2-.5-.9-.5-.9-1c.1-.5.3-1.2.4-1.6s.3-1.1.6-1.6.6-.6 1.3-.3z"
            style="stroke-width:.1;fill:#fff;stroke-miterlimit:10;stroke:#1d2132;stroke-linecap:square"></path>
        <path
            d="M41.8 2.6h5v25.5h-5zM46.5 45.7c.8.1 2.5-.5 2.6-1.7.1-.6.4-.9.9-2.5.2-.7.6-1.9-.1-3.2s-2.3-2.3-5.5-1.4c-3.2 1-4 3.8-3 5.3s2.1 1.7 2.8 2.2.9 1.2 2.3 1.3z"
            style="stroke-width:.1;fill:#fff;stroke-miterlimit:10;stroke:#1d2132;stroke-linecap:square"></path>
        <path
            d="M50 38.3s.3 1.2.1 1.9c-.4 1.3-.1 1.1-.8 2.7-.2.5-.6.4-.6.5s-.2.8-.9 1.1-1.3.5-2.1.3c-.5-.1-.8-.4-.9-.6-.1-.3-.2-.1-1-.4-1.2-.5-1.3-.8-1.8-1.4s-.7-.7-.7-1.4c-.1-.7.1-1.2.1-1.2"
            style="stroke:#1d2132;stroke-linecap:square;fill:none;stroke-width:.1;stroke-miterlimit:10"></path>
        <path d="M48.8 39.9s-.7 0-.9.3-.3.6-.4.7l-.1.1s.2.7.4 1.1.3.5.3.5"
            style="stroke:#1d2132;stroke-linecap:square;fill:none;stroke-width:.1;stroke-miterlimit:10"></path>
        <path
            d="M47.5 41.1s-.5.1-1.2.2c-.7.2-1.4.5-1.4.5s0 .5.1 1c0 .5-.1.8-.1.8M42.7 41.7s.3-.5.6-.7.5-.1.9.2.6.7.6.7M47.5 38.8s-.9-.3-1.4-.2l-.5.1s-.1-.1-.2-.3-.1-.4-.1-.4M45.5 38.7s-.4.3-.8.4-.8.4-.9.5-.1.2-.1.2-.2 0-.4-.1M47.5 38.8s.2-.3.2-.4c0-.2-.1-.3-.1-.3"
            style="stroke:#1d2132;stroke-linecap:square;fill:none;stroke-width:.1;stroke-miterlimit:10"></path>
        <path
            d="M48 44.1s-.2.1 0 0v.5c-.2.1-.4.1-.6.2s-.4.3-.6.3c-.1 0-.1-.3-.1-.4h-.1l.1.5s.2.2.5.1.5-.1.7-.2.5-.2.4-.4c-.1-.4-.3-.6-.3-.6zM83.2 44.1c-.1-.7-.1-1.5 0-2.3 0-.6.5-1.2 1.2-1.2 1.4-.2 2.8-.4 4.8 0 .6 0 1.2.5 1.2 1.2.2.8.2 1.5 0 2.3 0 .6-.5 1.2-1.2 1.2q-2.25.3-4.8 0c-.7 0-1.2-.5-1.2-1.2z"
            style="stroke-width:.1;fill:#fff;stroke-miterlimit:10;stroke:#1d2132;stroke-linecap:square"></path>
        <path
            d="M89.3 41c.4 0 .7.3.7.7M83.4 41.7c0-.4.3-.7.7-.7M84.1 45.1c-.4 0-.7-.3-.7-.7M90 44.4c0 .4-.3.7-.7.7M83.3 46.5h7.4v.6h-7.4z"
            style="stroke-width:.1;fill:#fff;stroke-miterlimit:10;stroke:#1d2132;stroke-linecap:square"></path>
        <path d="M83.7 46.5h6.6v.4h-6.6zM90.7 46.5h4.9v.6h-4.9zM95 45.6h.3v.9H95z"
            style="stroke-width:.1;fill:#fff;stroke-miterlimit:10;stroke:#1d2132;stroke-linecap:square"></path>
        <path d="M95 46.3h.3v.2H95zM93.7 45.6h.3v.9h-.3z"
            style="stroke-width:.1;fill:#fff;stroke-miterlimit:10;stroke:#1d2132;stroke-linecap:square"></path>
        <path d="M93.7 46.3h.3v.2h-.3zM92.3 45.6h.3v.9h-.3z"
            style="stroke-width:.1;fill:#fff;stroke-miterlimit:10;stroke:#1d2132;stroke-linecap:square"></path>
        <path d="M92.3 46.3h.3v.2h-.3zM91 45.6h.3v.9H91z"
            style="stroke-width:.1;fill:#fff;stroke-miterlimit:10;stroke:#1d2132;stroke-linecap:square"></path>
        <path d="M91 46.3h.3v.2H91z"
            style="stroke-width:.1;fill:#fff;stroke-miterlimit:10;stroke:#1d2132;stroke-linecap:square"></path>
        <circle cx="52.8" cy="43.8" r="1.6"
            style="fill:#fff;stroke:#1d2132;stroke-linecap:square;stroke-miterlimit:22.9256;stroke-width:.1"></circle>
        <circle cx="52.8" cy="43.8" r=".3"
            style="fill:#fff;stroke:#1d2132;stroke-linecap:square;stroke-miterlimit:22.9256;stroke-width:.1"></circle>
        <path d="M51.6 38.1c-.2-.4-.8-.4-1.4-.2-.6.3-1 .8-.8 1.2h0c.3.7.7 1.2 1.4 1.7l1.2-.6c0-.9 0-1.4-.4-2.1z"
            style="fill:#fff;stroke:#1d2132;stroke-linecap:square;stroke-miterlimit:22.9256;stroke-width:.1"></path>
        <path d="M51.2 40.2c-.3.2-.5.4-.5.7l.2.5 1.3-.6-.2-.6c-.1-.2-.4-.2-.8 0z"
            style="fill:#fff;stroke:#1d2132;stroke-linecap:square;stroke-miterlimit:22.9256;stroke-width:.1"></path>
        <ellipse cx="51.6" cy="41" rx=".7" ry=".4"
            style="fill:#fff;stroke:#1d2132;stroke-width:.1;stroke-linecap:square;stroke-miterlimit:22.9268"
            transform="rotate(-24.153 51.582 40.969)"></ellipse>
        <path d="M52.9 43.9h0c-.1 0-.1 0-.2-.1l-.7-1.6c0-.1 0-.1.1-.2h0c.1 0 .1 0 .2.1l.8 1.7c-.1 0-.1.1-.2.1z"
            style="fill:#fff;stroke:#1d2132;stroke-linecap:square;stroke-miterlimit:22.9256;stroke-width:.1"></path>
        <path
            d="M52.5 42.9h0c-.1 0-.1 0-.2-.1l-.8-1.7c0-.1 0-.1.1-.2h0c.1 0 .1 0 .2.1l.8 1.7c0 .1-.1.2-.1.2zM11.8 3.7h23v26.5h-23z"
            style="fill:#fff;stroke:#1d2132;stroke-linecap:square;stroke-miterlimit:22.9256;stroke-width:.1"></path>
        <path
            d="M34.5 5.5v1.2c-.1 1-.1 1.7-.1 2.7s.2 1.1 0 1.3q-.15.3 0 .6c.1.3 0 1.7 0 2.7s.1 2.6.1 3.5-.2.5-.3.6.1.8.2.9.1.7.1 2.6-.1 4.5-.1 5.5v1.2c-.1.4 0 .2 0 .6 0 .5-.3-.6-.2 0 .1.4.3.8.1.7s-.3-.3-.3-.4-.3-.4-.2-.1.8.8.6.9c-.2 0-.9.1-2.7.1-1.7 0-13.4 0-13.5-.2s-.1-.1-.2 0-2.2 0-2.6.1-1 .1-1.1-.1-.1-.2-.2-.1c0 .1-.8.2-1.1.2-.6 0-.8.2-.5-.2s.2-.8.1-.5-.2.6-.3.7-.1.3-.1-.4-.1-5.6-.1-6.9v-2.5c.1-.5-.1-1.2 0-2.3.1-1.4 0-3.6.1-5.2s0-2 0-3.2.2-1.6.1-2c-.3-.7 0-1 0-1.6s-.1-1.4-.1-1.7c0-.2.4.6.6.5s-.8-.5-.5-.6 4.2.1 4.5 0 .2 0 .2 0h16.7c.3 0 .7.1.4.2s.4 0 .4.3c0 .2-.1.6 0 .9z"
            style="fill:#fff;stroke:#1d2132;stroke-linecap:square;stroke-miterlimit:22.9256;stroke-width:.1"></path>
        <path
            d="M34.8 10.8c.1.8 0 4.4 0 4.4s.2-1.2-.4-2c-.6-.7-1.3-1.2-1.1-1s.2.3.4.4c.2.2.4.2.3.3s-.8-.1-1.4-.3c-.8-.2-2.7 0-3.5.1-2.2.1-14.5.5-15.9 1.5s-1.2 1.1-1.3 1.5c-.1.3.1 1.3-.1.8-.1-.5 0-1.5-.1-2.5s-.2-1.3-.1-1.4 1.8-1 1.6-.8c-.1 0-1.5.7-1.6.7s0-.4 0-.7c0-.5 0-.5.1-.5.2 0 1-.1 1.9-.1s.1-.2-.4-.1-.1-.1.9-.4c.9-.3 14.6.3 15.3.1s3-.5 3.8-.1c.8.3 1.5-.4 1.6.1zM22.1 3.9c.4 0 .3.1.2.2s-.1.3 0 1 .2 1.3 0 2-.1.8 0 1 0 .3-.2.2c-.3-.2-1 .1-1.7.1-2.4.1-3.5 0-5.2-.1-.4 0-.7-.1-.9-.1s-.4 0-.3-.2c.1-.1-.2-1.3-.1-2.2s0-1.4 0-1.5.1-.4.3-.3.9-.1 1.2-.1c.4 0 1.1-.2 3-.1 1.9 0 2.7 0 3 .1.4.1.6 0 .7 0z"
            style="fill:#fff;stroke:#1d2132;stroke-linecap:square;stroke-miterlimit:22.9256;stroke-width:.1"></path>
        <path d="M21.8 7.7s-1.4.5-3.6.5-3.7-.7-3.7-.7"
            style="stroke-width:.1;fill:none;stroke:#1d2132;stroke-linecap:square;stroke-miterlimit:22.9256"></path>
        <path
            d="M21 6.2c.3 0 .2.1.1.1-.1.1-.1.2 0 .8s.1 1 0 1.6c-.2.6-.1.6 0 .8s0 .3-.2.1c-.2-.1-.8.1-1.2.1-1.8.1-2.5 0-3.8-.1-.3 0-.5-.1-.6-.1s-.3 0-.2-.1-.1-1.1-.1-1.8c.1-.7 0-1.1 0-1.2s.1-.3.2-.2.6-.1.9-.1.8-.1 2.2-.1 2 0 2.2.1c.3.2.5.1.5.1z"
            style="fill:#fff;stroke:#1d2132;stroke-linecap:square;stroke-miterlimit:22.9256;stroke-width:.1"></path>
        <path d="M20.8 9.3s-1 .4-2.6.4-2.7-.6-2.7-.6"
            style="stroke-width:.1;fill:none;stroke:#1d2132;stroke-linecap:square;stroke-miterlimit:22.9256"></path>
        <path
            d="M32.2 3.9c.3 0 .3.1.2.2s-.1.3 0 1 .2 1.3 0 2-.1.8 0 1 0 .3-.2.2c-.3-.2-1 .1-1.7.1-2.4.1-3.5 0-5.2-.1-.4 0-.7-.1-.9-.1s-.4-.2-.3-.3c.2-.1-.1-1.3-.1-2.2V4.2c0-.1.1-.4.3-.3s.9-.1 1.2-.1c.4 0 1.1-.2 3-.1 1.9 0 2.7 0 3 .1.4.2.6.1.7.1z"
            style="fill:#fff;stroke:#1d2132;stroke-linecap:square;stroke-miterlimit:22.9256;stroke-width:.1"></path>
        <path d="M31.8 7.7s-1.4.5-3.6.5-3.7-.7-3.7-.7"
            style="stroke-width:.1;fill:none;stroke:#1d2132;stroke-linecap:square;stroke-miterlimit:22.9256"></path>
        <path
            d="M31.1 6.2c.3 0 .2.1.1.1-.1.1-.1.2 0 .8s.1 1 0 1.6c-.2.6-.1.6 0 .8s0 .3-.2.1c-.2-.1-.8.1-1.2.1-1.8.1-2.5 0-3.8-.1-.3 0-.5-.1-.6-.1s-.3 0-.2-.1-.1-1.1-.1-1.8c.1-.7 0-1.1 0-1.2s.1-.3.2-.2.6-.1.9-.1.8-.1 2.2-.1 2 0 2.2.1c.3.2.4.1.5.1z"
            style="fill:#fff;stroke:#1d2132;stroke-linecap:square;stroke-miterlimit:22.9256;stroke-width:.1"></path>
        <path d="M30.9 9.3s-1 .4-2.6.4-2.7-.6-2.7-.6"
            style="stroke-width:.1;fill:none;stroke:#1d2132;stroke-linecap:square;stroke-miterlimit:22.9256"></path>
        <path
            d="M12.3 30h22.1c.3 0 .6-.3.6-.6v-8c0-.4-.3-.6-.6-.6H12.3c-.4 0-.6.3-.6.6v8c0 .3.3.6.6.6zM8 2.6h30.6v.6H8zM8.7 3.7h29.1c.3 0 .5-.2.5-.5v0H8.2v0c0 .3.2.5.5.5z"
            style="fill:#fff;stroke:#1d2132;stroke-linecap:square;stroke-miterlimit:22.9256;stroke-width:.1"></path>
        <path
            d="M9 3.3h1v.1c0 .3-.2.5-.5.5h0c-.3 0-.5-.2-.5-.5zM12.5 6.8l-.7.2c0 .4 0 .8.1 1.2h0c0 .1.3.1.6.1s.5-.2.5-.4h0c-.1-.3-.3-.7-.5-1.1z"
            style="fill:#fff;stroke:#1d2132;stroke-linecap:square;stroke-miterlimit:22.9256;stroke-width:.1"></path>
        <ellipse cx="12.1" cy="6.9" rx=".4" ry=".1" transform="rotate(-13.386 12.15 6.919)"
            style="stroke:#1d2132;stroke-linecap:square;stroke-width:9.999660e-02;stroke-miterlimit:22.9248;fill:#fff">
        </ellipse>
        <path
            d="M12.1 6.9h0c0-.1-.2-.5-.8-.8-.1-.1-.3-.1-.4-.2-.4-.2-.8-.3-1.1-.7-.4-.5-.4-1.2-.4-1.3v0h.2V4s0 .7.4 1.2c.3.3.7.5 1 .7.1.1.3.1.4.2.7.3.8.8.8.8V7c0-.1-.1-.1-.1-.1zM37.6 3.3h-1v.1c0 .3.2.5.5.5h0c.3 0 .5-.2.5-.5v-.1zM34 6.8l.8.2c0 .4 0 .8-.1 1.2h0c0 .1-.3.1-.6.1s-.6-.2-.5-.3h0c0-.4.2-.8.4-1.2z"
            style="fill:#fff;stroke:#1d2132;stroke-linecap:square;stroke-miterlimit:22.9256;stroke-width:.1"></path>
        <ellipse cx="34.4" cy="6.9" rx=".1" ry=".4" transform="rotate(-76.614 34.4 6.922)"
            style="stroke:#1d2132;stroke-linecap:square;stroke-width:9.999660e-02;stroke-miterlimit:22.9248;fill:#fff">
        </ellipse>
        <path
            d="M34.5 6.9h0c0-.1.2-.5.8-.8.1-.1.2-.1.4-.2.4-.2.8-.3 1.1-.7.4-.5.4-1.2.4-1.3v0H37V4s0 .7-.3 1.2c-.3.3-.7.5-1 .7-.1.1-.3.1-.4.2-.7.3-.8.8-.8.8V7c-.2-.1-.1-.1 0-.1z"
            style="fill:#fff;stroke:#1d2132;stroke-linecap:square;stroke-miterlimit:22.9256;stroke-width:.1"></path>
        <path d="M4.3 19.8H5v9.9h-.7z"
            style="stroke-width:.1;fill:#fff;stroke-miterlimit:10;stroke:#1d2132;stroke-linecap:square"></path>
        <path
            d="M4.5 28.9h.4M4.5 28.6h.4M4.5 29.4h.4M4.5 29.2h.4M4.5 28.4h.4M4.5 28.1h.4M4.5 27.8h.4M4.5 27.6h.4M4.5 27.3h.4M4.5 27h.4M4.5 26.2h.4M4.5 26h.4M4.5 26.8h.4M4.5 26.5h.4M4.5 25.7h.4M4.5 25.4h.4M4.5 25.2h.4M4.5 24.9h.4M4.5 24.6h.4M4.5 24.4h.4M4.5 23.6h.4M4.5 23.3h.4M4.5 24.1h.4M4.5 23.8h.4M4.5 23h.4M4.5 22.8h.4M4.5 22.5h.4M4.5 22.2h.4M4.5 22h.4M4.5 21.7h.4M4.5 20.9h.4M4.5 20.6h.4M4.5 21.4h.4M4.5 21.2h.4M4.5 20.4h.4M4.5 20.1h.4M5.2 38.6c0-.4.7 0 .7-.4s-.7 0-.7-.4.7 0 .7-.4-.7 0-.7-.4.7 0 .7-.4-.7 0-.7-.4.7 0 .7-.4-.7 0-.7-.4.7 0 .7-.4-.7 0-.7-.4.7 0 .7-.4-.7 0-.7-.4.7 0 .7-.4-.7 0-.7-.4.7 0 .7-.4-.7 0-.7-.4.7 0 .7-.4-.7 0-.7-.4.7 0 .7-.4-.7 0-.7-.4.7 0 .7-.4-.7 0-.7-.4.7 0 .7-.4-.7 0-.7-.4.7 0 .7-.4-.7 0-.7-.4.7 0 .7-.4-.7 0-.7-.4.7 0 .7-.4-.7 0-.7-.4.7 0 .7-.4-.7 0-.7-.4.7 0 .7-.4M5.2 10.8c0 .4.7 0 .7.4s-.7 0-.7.4.7 0 .7.4-.7 0-.7.4.7 0 .7.4-.7 0-.7.4.7 0 .7.4-.7 0-.7.4.7 0 .7.4-.7 0-.7.4.7 0 .7.4-.7 0-.7.4.7 0 .7.4-.7 0-.7.4.7 0 .7.4-.7 0-.7.4.7 0 .7.4-.7 0-.7.4.7 0 .7.4-.7 0-.7.4.7 0 .7.4-.7 0-.7.4.7 0 .7.4-.7 0-.7.4.7 0 .7.4-.7 0-.7.4.7 0 .7.4-.7 0-.7.4.7 0 .7.4-.7 0-.7.4.7 0 .7.4-.7 0-.7.4.7 0 .7.4"
            style="stroke:#1d2132;stroke-linecap:square;fill:none;stroke-width:.1;stroke-miterlimit:10"></path>
    </g>
    <g id="Plumbing">
        <path
            d="M79.1 5.3v.6l.1.2.1.2.1.1.1.2.2.1.2.2.2.1.2.1.2.1.3.1.2.1h.2l.3.1h.5l.2.1.2-.1h.5l.2-.1h.3l.2-.1.2-.1.3-.1.2-.1.2-.1.2-.2.1-.1.2-.2.1-.1.1-.2v-.2l.1-.2V2.6h-6.2z"
            style="fill:#fff"></path>
        <path
            d="M85.3 2.6h-6.2M85.3 5.3V2.6M79.1 5.3V2.6M81.2 2.6h2M82.4 4.8h.3M82.2 4.6v-.4M81.7 4.8h.3M82.2 5.4V5M79.4 5.5c.3-.5.6-1 1.1-1.4M80.5 4.1c.5-.2 1-.4 1.5-.4h.2M83.8 4.1c.5.3.9.8 1.1 1.4M82.2 3.7h.2c.5 0 1 .2 1.4.4M82 7.5c-.7-.1-1.3-.2-1.9-.5M85.3 5.4q0 0 0 0c0 .6-.2 1.1-.6 1.4M82.4 7.5H82"
            style="stroke:#1d2132;stroke-linecap:square;fill:none;stroke-width:.1;stroke-miterlimit:10"></path>
        <path
            d="M80.4 4.2c.6-.1 1.2-.1 1.8-.1s1.2.1 1.7.1M82.2 3c.6 0 1.2 0 1.8.1M84.3 3.3c.6.7.9 1.6.9 2.5v.1M83.9 3.1c.1 0 .2.1.3.2M79.2 5.8s0-.1 0 0c0-.9.3-1.8.9-2.5M80.4 3.1C81 3 81.6 3 82.2 3M80.1 3.3c.1-.1.2-.2.3-.2"
            style="stroke:#1d2132;stroke-linecap:square;fill:none;stroke-width:.1;stroke-miterlimit:10"></path>
        <path
            d="M79.7 6.7c-.4-.3-.6-.8-.6-1.3v-.1M80.1 7c-.1-.1-.3-.2-.4-.3M84.7 6.7c-.1.1-.3.2-.4.3M84.3 7c-.6.3-1.2.5-1.9.5M83.1 7.1c-.3.1-.6.1-.9.1s-.6 0-.9-.1M79.8 6.3c-.2-.2-.3-.5-.3-.8v-.1"
            style="stroke:#1d2132;stroke-linecap:square;fill:none;stroke-width:.1;stroke-miterlimit:10"></path>
        <path
            d="M81.3 7.1c-.6-.1-1.1-.4-1.6-.8M84.9 5.5s0 .1 0 0c0 .4-.1.6-.3.8M84.6 6.3c-.4.4-1 .6-1.6.8M82.2 4.4c-.2 0-.4.2-.4.4s.2.4.4.4.4-.2.4-.4-.2-.4-.4-.4"
            style="stroke:#1d2132;stroke-linecap:square;fill:none;stroke-width:.1;stroke-miterlimit:10"></path>
        <path d="M82.2 4.6c-.1 0-.2.1-.2.2s.1.2.2.2.2-.1.2-.2-.1-.2-.2-.2"
            style="stroke:#1d2132;stroke-linecap:square;fill:none;stroke-width:.1;stroke-miterlimit:10"></path>
        <path
            d="M97.4 14.9h-1.8v-.1h-.1v-.1h-4.9l-.1-.1h-.2l-.1-.1h-.1l-.1-.1h-.1l-.1-.1-.1-.1-.1-.1h-.1V14l-.1-.1-.1-.1v-.1h-.1v-.1l-.1-.1v-.1l-.1-.1v-.2l-.1-.1v-1l.1-.1v-.2l.1-.1v-.1l.1-.1v-.1l.1-.1v-.1l.1-.1h.1v-.1l.1-.1.1-.1h.1v-.1l.1-.1h.1l.1-.1h.2l.1-.1h5v-.1h.1v-.1h1.9v2.4z"
            style="fill:#fff"></path>
        <path
            d="M91 10.3h4.4M97.4 14.9v-4.8M95.7 10.1h1.7M94.7 14.3v-1.8M94.7 10.7l-3.7-.4M94.7 10.7v1.8M94.7 14.3l-3.7.4M91 14.7h4.4M95.7 14.9h1.7M95.4 10.3c-.1.7-.1 1.4-.1 2.2s0 1.4.1 2.2M95.7 10.1c-.1 0-.3.1-.3.3M91 10.3c-1.1 0-2.1 1-2.1 2.2s.9 2.2 2.1 2.2M95.4 14.6c0 .1.1.3.3.3M96.6 12.5c0 .1-.1.2-.2.2s-.2-.1-.2-.2.1-.2.2-.2c0-.1.2 0 .2.2"
            style="stroke:#1d2132;stroke-linecap:square;fill:none;stroke-width:.1;stroke-miterlimit:10"></path>
        <path d="M75 13.2H64.6c-.1 0-.1 0-.1-.1V2.7c0-.1 0-.1.1-.1H75c.1 0 .1 0 .1.1v10.4c0 .1-.1.1-.1.1"
            style="fill:#fff"></path>
        <path
            d="M67.1 5v-.7M66.2 5.3h.6M67.1 6.2v-.6M67.4 5.3h.7M74.5 6.1V3.2M65 12.5V6M65.1 12.6h9.2c.1 0 .2-.1.2-.2V3.2M67.8 3.1h6.5M67.8 3.1h-.2M74.5 3.2c0-.1-.1-.1-.1-.1M67.8 3.1h-.2M65 12.5c0 .1.1.1.1.1M67.7 3.1c-1.2.6-2.1 1.6-2.7 2.7M65 5.8V6"
            style="stroke:#1d2132;stroke-linecap:square;fill:none;stroke-width:.1;stroke-miterlimit:10"></path>
        <path d="M67.7 3.2c-1.2.4-2.2 1.4-2.6 2.6M65 5.8V6M67.1 4.7c.3 0 .5.2.5.5s-.2.5-.5.5-.5-.2-.5-.5c0-.2.2-.5.5-.5"
            style="stroke:#1d2132;stroke-linecap:square;fill:none;stroke-width:.1;stroke-miterlimit:10"></path>
        <path d="M67.1 4.5c.4 0 .7.3.8.8 0 .4-.3.8-.8.8-.4 0-.8-.3-.8-.8.1-.4.4-.8.8-.8"
            style="stroke:#1d2132;stroke-linecap:square;fill:none;stroke-width:.1;stroke-miterlimit:10"></path>
        <path d="M74.8 13.2h-10q-.3 0-.3-.3v-10q0-.3.3-.3h10q.3 0 .3.3v10c0 .1-.2.3-.3.3z"
            style="stroke:#1d2132;stroke-linecap:square;fill:none;stroke-width:.1;stroke-miterlimit:10"></path>
        <path d="M70.6 19.8c.1 0 .2-.1.2-.2s-.1-.2-.2-.2-.2.1-.2.2.1.2.2.2z"
            style="stroke-width:.1;fill:#fff;stroke-miterlimit:10;stroke:#1d2132;stroke-linecap:square"></path>
        <circle cx="69.7" cy="19.6" r=".2"
            style="stroke-width:.1;fill:#fff;stroke-miterlimit:10;stroke:#1d2132;stroke-linecap:square"></circle>
        <path d="M65.9 19.8c.1 0 .2-.1.2-.2s-.1-.2-.2-.2-.2.1-.2.2.1.2.2.2z"
            style="stroke-width:.1;fill:#fff;stroke-miterlimit:10;stroke:#1d2132;stroke-linecap:square"></path>
        <path d="M70.8 19.6c.5 0 .9.1.9.2v.6c0 .1-.4.2-.9.2h-5.1c-.5 0-.9-.1-.9-.2v-.6c0-.1.4-.2.9-.2z"
            style="stroke-width:.1;fill:#fff;stroke-miterlimit:10;stroke:#1d2132;stroke-linecap:square"></path>
        <path d="M64.5 19.9H72V25h-7.5z"
            style="stroke-width:.1;fill:#fff;stroke-miterlimit:10;stroke:#1d2132;stroke-linecap:square"></path>
        <path d="M70.8 20.2c.5 0 .9.8.9 1.9v.8c0 1-.4 1.9-.9 1.9h-5.1c-.5 0-.9-.8-.9-1.9V22c0-1 .4-1.9.9-1.9h5.1z"
            style="stroke-width:.1;fill:#fff;stroke-miterlimit:10;stroke:#1d2132;stroke-linecap:square"></path>
        <path
            d="M65.7 24.3h0c0 .1.1.2.2.2h4.6c.1 0 .2-.1.2-.2h0c0-.1-.1-.2-.2-.2h-4.6c-.1 0-.2.1-.2.2zM70.1 24.5h.3v.8h-.3zM65.9 24.5h.3v.8h-.3zM70 25.3h.6v.1H70zM65.7 25.3h.6v.1h-.6z"
            style="stroke-width:.1;fill:#fff;stroke-miterlimit:10;stroke:#1d2132;stroke-linecap:square"></path>
    </g>
    <g id="Doors">
        <g id="XMLID_20">
            <path d="M99.2 27.9h-1.1v-.5h1.1zM99.2 40.8h-1.1v.5h1.1z"
                style="fill:none;stroke:#1d2132;stroke-width:.1438;stroke-miterlimit:10"></path>
            <path
                d="m89.1 37 .2.2.1.1.2.2.2.1.2.2.2.1.1.2.2.1.2.2.2.1.2.1.2.2.2.1.2.1.2.1.2.1.2.1.3.1.2.1.2.1.2.1.2.1.2.1.2.1.3.1h.2l.2.1.2.1h.3l.2.1.2.1h.5l.2.1h.2l.3.1h.7l.2.1h.7"
                style="fill:none;stroke:#1d2132;stroke-width:.1438;stroke-miterlimit:10"></path>
            <path d="m98.2 28-9.1 9 .3.3 9.1-8.9z"
                style="fill:none;stroke:#1d2132;stroke-width:.1438;stroke-miterlimit:10"></path>
        </g>
        <g id="XMLID_19">
            <path
                d="M86.8 25.5v1h-.4v-1zM75.6 25.5v1h.4v-1zM76 26.5v.6000000000000001l.1.2v.7l.1.2v.4l.1.2v.1l.1.2v.2l.1.2v.2l.1.2.1.1v.2l.1.2.1.2v.1l.1.2.1.2.1.1.1.2.1.2.1.2.1.1.1.2.1.1.1.2.1.2.1.1.1.2.1.1.1.2.2.1.1.2.1.1.1.1.2.2"
                style="fill:none;stroke:#1d2132;stroke-miterlimit:10;stroke-width:.1"></path>
            <path d="m86.1 26.2-7.3 7.4.3.3 7.2-7.4z"
                style="fill:none;stroke:#1d2132;stroke-miterlimit:10;stroke-width:.1"></path>
        </g>
    </g>
    <g id="Windows">
        <g id="Windows_4_1_">
            <path d="M.3 38.4h4.1V13.9H.3zm.1-.1V14h3.9v24.3z" style="fill:#1d2132"></path>
            <path d="M1.3 14.6h1v23.1h-1z" style="fill:#1d2132"></path>
            <path d="M1.4 14.6h.8v22.9h-.8z" style="fill:#fff"></path>
            <path d="M1.4 34.1h.9M1.4 15.7h.9M1.8 15.6v10M1.8 25.5v8.6"
                style="fill:none;stroke:#1d2132;stroke-miterlimit:10;stroke-width:.1"></path>
        </g>
    </g>
    <g id="Text"><text id="TXT-Кухня-гостинная-С" transform="translate(57.41 33.87)"
            style="fill:#1d2132;opacity:.7;enable-background:new;font-family:&quot;Cannonade-Medium&quot;;font-size:3px">21,10</text><text
            id="TXT-Санузел-С" transform="translate(77.94 18.33)"
            style="fill:#1d2132;opacity:.7;enable-background:new;font-family:&quot;Cannonade-Medium&quot;;font-size:3px">4,00</text>
    </g>
    <g id="Walls">
        <path d="m2.3 14.6-2-.1V.3h99.4v27h-2.3V2.6H4.3v11.3h-2zM99.7 49.3v-7.9h-2.3v5.8H4.3V36h-2v-.8h-2v14.1z"
            style="fill:#1d2132;stroke:#1d2132;stroke-width:.1;stroke-miterlimit:10"></path>
        <path d="M80.3 39.4h1v7.8h-1zM55.6 39.4h1v7.8h-1zM63.4 2.6v23.9h12.1v-1h-11V2.6zM86.8 25.5h10.6v1H86.8z"
            style="fill:#1d2132;stroke:#1d2132;stroke-width:.1;stroke-miterlimit:10"></path>
    </g>
    <g id="Details">
        <path d="M95.1 2.7h2v2h-2z"
            style="fill:#fff;stroke:#1d2132;stroke-width:.5;stroke-linecap:square;stroke-miterlimit:10"></path>
        <path d="m95.1 2.8 1.2.7.7 1.2V2.8z" style="fill:#1d2132;stroke:#1d2132;stroke-width:.1;stroke-miterlimit:10">
        </path>
        <path d="M89.1 21h8.2v4.3h-8.2z" style="fill:#fff;stroke:#1d2132;stroke-width:.5;stroke-miterlimit:10"></path>
        <path d="M95.7 21.5h1.1v3.2h-1.1z"
            style="fill:#fff;stroke:#1d2132;stroke-linecap:square;stroke-miterlimit:22.9256;stroke-width:.1"></path>
        <path d="m96.7 21.5-.6.3-.4 2.9v-3.2z" style="fill:#1d2132"></path>
        <path d="M89.5 21.5h1.1v3.2h-1.1z"
            style="fill:#fff;stroke:#1d2132;stroke-linecap:square;stroke-miterlimit:22.9256;stroke-width:.1"></path>
        <path d="m90.5 21.5-.7.3-.3 2.9v-3.2z" style="fill:#1d2132"></path>
        <path d="M91.1 21.5h4.1v3.2h-4.1z"
            style="fill:#fff;stroke:#1d2132;stroke-linecap:square;stroke-miterlimit:22.9256;stroke-width:.1"></path>
        <path d="m95.1 21.5-3.5.3-.5 2.9v-3.2z" style="fill:#1d2132"></path>
    </g>
</svg>
