<svg viewBox="20500 8500 5000 7500" xmlns="http://www.w3.org/2000/svg"><defs><symbol id="template-door" xmlns="http://www.w3.org/2000/svg" width="29.195" height="23.484" viewBox="0 0 7.725 6.213" preserveAspectRatio="none"><path d="M5.512 5.823.704 1.015.46 1.26l4.808 4.808Z" style="fill:#ececec;stroke:#1d1d1b;stroke-width:.0992175;stroke-miterlimit:10;stroke-dasharray:none"></path><path d="M5.37 6.054.473 1.156l-.09.09 4.898 4.897Z" style="fill:#ececec;stroke:#1d1d1b;stroke-width:.0992175;stroke-miterlimit:10;stroke-dasharray:none"></path><path d="M.376.05H.05v1.2h.326zm7.3 0h-.36v1.2h.36z" style="fill:none;stroke:#000;stroke-width:.0992175;stroke-linecap:round;stroke-linejoin:round;stroke-miterlimit:10;stroke-dasharray:none"></path><path d="M7.317 1.25v.13" style="fill:none;stroke:#000;stroke-width:.0992175;stroke-linecap:round;stroke-linejoin:round;stroke-dasharray:none"></path><path d="M7.308 1.63c-.067 1.206-.528 2.597-1.632 3.992" style="fill:none;stroke:#000;stroke-width:.0992175;stroke-linecap:round;stroke-linejoin:round;stroke-dasharray:.375439,.375439;stroke-dashoffset:0"></path><path d="m5.596 5.72-.084.103" style="fill:none;stroke:#000;stroke-width:.0992175;stroke-linecap:round;stroke-linejoin:round;stroke-dasharray:none"></path><path d="M4.885 5.759c-.191.14-.418.077-.73-.33 0 0-.06-.087-.136-.03s-.008.13-.008.13c.46.561.78.475.96.285" style="fill:none;stroke:#1d1d1b;stroke-width:.0992175;stroke-miterlimit:10;stroke-dasharray:none"></path><path d="M5.041 6.007a.073.073 0 0 1-.102.002l-.263-.264a.07.07 0 0 1 0-.1.073.073 0 0 1 .102-.002l.263.263a.07.07 0 0 1 0 .101z" style="fill:#fff;stroke:#1d1d1b;stroke-width:.0992175;stroke-miterlimit:10;stroke-dasharray:none"></path><path d="M.084.65V.085h.258v1.13H.084z" style="fill:#fff;stroke:#000;stroke-width:3.10085e-05;stroke-dasharray:none"></path><path d="M7.351.649V.084h.287v1.13H7.35Z" style="fill:#fff;stroke:#000;stroke-width:8.77017e-05;stroke-dasharray:none"></path><path d="M4.631 5.924q-.168-.014-.357-.172a2 2 0 0 1-.225-.23c-.026-.031-.032-.043-.032-.06a.03.03 0 0 1 .003-.015.1.1 0 0 1 .036-.03.05.05 0 0 1 .031 0c.018.006.029.016.05.044q.137.176.257.272a.5.5 0 0 0 .273.126l.066-.001.006-.001.023.023.023.023-.014.004a.34.34 0 0 1-.14.017z" style="fill:#fff;stroke:#000;stroke-width:1.55056e-05;stroke-dasharray:none"></path></symbol><symbol id="template-window" xmlns="http://www.w3.org/2000/svg" width="56.733" height="11.555" viewBox="88.443 112.611 15.01 3.057" preserveAspectRatio="none"><path d="M88.509 112.677h14.878v2.925H88.509Z" style="fill:#ededed;stroke:#000;stroke-width:.132293;stroke-miterlimit:10;stroke-dasharray:none"></path><path d="M88.51 113.782h14.877v.567H88.51Z" style="fill:#fff;stroke:#000;stroke-width:.132293;stroke-miterlimit:10;stroke-dasharray:none"></path><path d="M95.963 113.782v.588" style="fill:none;stroke:#000;stroke-width:.132293;stroke-miterlimit:10;stroke-dasharray:none"></path></symbol><symbol id="template-bath" xmlns="http://www.w3.org/2000/svg" width="61.751" height="23.176" viewBox="820.571 366.88 61.751 23.176" preserveAspectRatio="none"><path d="M869.85 367.255h-44.13c-.84 0-1.52.632-1.52 1.411v19.607c0 .778.68 1.408 1.52 1.408h44.13c3.01 0 5.91-1.039 8.14-2.912 5.29-4.45 5.29-12.151 0-16.599-2.23-1.876-5.13-2.915-8.14-2.915" style="fill:#e6e7e8;fill-opacity:1;fill-rule:nonzero;stroke:#231f20;stroke-width:.75;stroke-linecap:butt;stroke-linejoin:miter;stroke-miterlimit:10;stroke-dasharray:none;stroke-opacity:1"></path><path d="M834.05 378.469a1.355 1.355 0 1 1-2.71-.003 1.355 1.355 0 0 1 2.71.003M820.96 373.49v8.003h.43s.66.205.9-.262c.29-.564.37-3.741.37-3.741s-.08-3.175-.37-3.74c-.24-.467-.9-.26-.9-.26z" style="fill:#fff;fill-opacity:1;fill-rule:nonzero;stroke:#231f20;stroke-width:.759;stroke-linecap:butt;stroke-linejoin:miter;stroke-miterlimit:10;stroke-dasharray:none;stroke-opacity:1"></path><path d="M820.96 377.63c.09.693.68 1.167 1.31 1.117l6.83-.564c.22 0 .39-.194.39-.436v-.513c0-.243-.17-.435-.39-.435l-6.83-.565c-.63-.051-1.22.423-1.31 1.116v.28" style="fill:#fff;fill-opacity:1;fill-rule:nonzero;stroke:#231f20;stroke-width:.759;stroke-linecap:butt;stroke-linejoin:miter;stroke-miterlimit:10;stroke-dasharray:none;stroke-opacity:1"></path><path d="m825.86 375.225.13.2c.21.357.09.824-.26 1.037l-2.74 1.652a.76.76 0 0 1-1.04-.256l-.12-.204a.756.756 0 0 1 .25-1.036l2.75-1.651c.35-.214.82-.1 1.03.258M823.9 381.959a2.34 2.34 0 0 0 2.34 2.336c1.29 0 2.34-1.045 2.34-2.336a2.34 2.34 0 0 0-4.68 0" style="fill:#fff;fill-opacity:1;fill-rule:nonzero;stroke:#231f20;stroke-width:.759;stroke-linecap:butt;stroke-linejoin:miter;stroke-miterlimit:10;stroke-dasharray:none;stroke-opacity:1"></path><path d="M826.23 381.347h-5.28v1.223h5.28s.65-.023.65-.611-.65-.612-.65-.612" style="fill:#fff;fill-opacity:1;fill-rule:nonzero;stroke:#231f20;stroke-width:.759;stroke-linecap:butt;stroke-linejoin:miter;stroke-miterlimit:10;stroke-dasharray:none;stroke-opacity:1"></path></symbol><symbol id="template-bed_double" xmlns="http://www.w3.org/2000/svg" width="98.673" height="79.841" viewBox="19.041 40.34 98.673 79.841" preserveAspectRatio="none"><path d="M1885.74 468.613h-68.03v79.371h68.03z" style="fill:#fff;fill-opacity:1;fill-rule:nonzero;stroke:#231f20;stroke-width:.75;stroke-linecap:butt;stroke-linejoin:miter;stroke-miterlimit:10;stroke-dasharray:none;stroke-opacity:1" transform="translate(-1776.866 -426.26)scale(.9965)"></path><path d="m1883.31 506.937-15.68-14.778h-47.49v-20.996h63.17z" style="fill:#e6e7e8;fill-opacity:1;fill-rule:nonzero;stroke:none;stroke-width:3;stroke-dasharray:none" transform="translate(-1776.866 -426.26)scale(.9965)"></path><path d="m1883.31 506.937-15.68-14.778h-47.49v-20.996h63.17v35.774" style="fill:none;stroke:#231f20;stroke-width:.75;stroke-linecap:butt;stroke-linejoin:miter;stroke-miterlimit:10;stroke-dasharray:none;stroke-opacity:1" transform="translate(-1776.866 -426.26)scale(.9965)"></path><path d="m1867.52 492.042 18.22 16.986h-13.47a4.64 4.64 0 0 1-4.64-4.634v-12.235h-49.92" style="fill:#fff;fill-opacity:1;fill-rule:nonzero;stroke:#231f20;stroke-width:.75;stroke-linecap:butt;stroke-linejoin:miter;stroke-miterlimit:10;stroke-dasharray:none;stroke-opacity:1" transform="translate(-1776.866 -426.26)scale(.9965)"></path><path d="M1894.56 483.295c0 .514-.56.431-1.25.431-.7 0-1.26.083-1.26-.431l-6.31.062v-14.743h15.12v14.743z" style="fill:#f1f2f2;fill-opacity:1;fill-rule:nonzero;stroke:none;stroke-width:3;stroke-dasharray:none" transform="translate(-1776.866 -426.26)scale(.9965)"></path><path d="M1894.56 483.295c0 .514-.56.431-1.25.431-.7 0-1.26.083-1.26-.431l-6.31.062v-14.743h15.12v14.743zm-8.82-.677h15.12" style="fill:none;stroke:#231f20;stroke-width:.75;stroke-linecap:butt;stroke-linejoin:miter;stroke-miterlimit:10;stroke-dasharray:none;stroke-opacity:1" transform="translate(-1776.866 -426.26)scale(.9965)"></path><path d="M1811.41 483.295c0 .514-.56.431-1.26.431-.69 0-1.25.083-1.25-.431l-6.31.062v-14.743h15.12v14.743z" style="fill:#f1f2f2;fill-opacity:1;fill-rule:nonzero;stroke:none;stroke-width:3;stroke-dasharray:none" transform="translate(-1776.866 -426.26)scale(.9965)"></path><path d="M1811.41 483.295c0 .514-.56.431-1.26.431-.69 0-1.25.083-1.25-.431l-6.31.062v-14.743h15.12v14.743zm-8.81-.677h15.11" style="fill:none;stroke:#231f20;stroke-width:.75;stroke-linecap:butt;stroke-linejoin:miter;stroke-miterlimit:10;stroke-dasharray:none;stroke-opacity:1" transform="translate(-1776.866 -426.26)scale(.9965)"></path><path d="M1823.24 474.904s1.41-.028 3.67-.979c2.27-.953 14.67-1.008 17.4 0s2.54-.175 2.96.121c.42.298-.73.83-.73 1.475 0 .643 1.14 4.971.35 7.235-.78 2.265.88 3.514.69 4.27-.2.756-.35-.308-4.07 0-3.71.308-6.29 2.234-15.81.756-.67-.102-2.63.888-2.83.548-.48-.826.67-.884.2-4.898-.48-4.018-.81-7.575-1.71-7.968-.9-.391-.12-.56-.12-.56" style="fill:#fff;fill-opacity:1;fill-rule:nonzero;stroke:#231f20;stroke-width:.75;stroke-linecap:butt;stroke-linejoin:miter;stroke-miterlimit:10;stroke-dasharray:none;stroke-opacity:1" transform="translate(-1776.866 -426.26)scale(.9965)"></path><path d="M1828.08 484.365s10.04-5.152 15.83-4.144" style="fill:#fff;fill-opacity:1;fill-rule:nonzero;stroke:#231f20;stroke-width:.75;stroke-linecap:round;stroke-linejoin:miter;stroke-miterlimit:10;stroke-dasharray:none;stroke-opacity:1" transform="translate(-1776.866 -426.26)scale(.9965)"></path><path d="M1830.21 479.691s3.55-1.785 7.2-.809" style="fill:#fff;fill-opacity:1;fill-rule:nonzero;stroke:#231f20;stroke-width:.75;stroke-linecap:round;stroke-linejoin:miter;stroke-miterlimit:10;stroke-dasharray:none;stroke-opacity:1" transform="translate(-1776.866 -426.26)scale(.9965)"></path><path d="M1878.59 474.904s-1.41-.028-3.68-.979c-2.26-.953-14.66-1.008-17.39 0s-2.54-.175-2.96.121c-.42.298.73.83.73 1.475 0 .643-1.14 4.971-.35 7.235.78 2.265-.88 3.514-.69 4.27.2.756.35-.308 4.07 0s6.29 2.234 15.81.756c.68-.102 2.63.888 2.83.548.48-.826-.67-.884-.2-4.898.48-4.018.82-7.575 1.71-7.968.9-.391.12-.56.12-.56" style="fill:#fff;fill-opacity:1;fill-rule:nonzero;stroke:#231f20;stroke-width:.75;stroke-linecap:butt;stroke-linejoin:miter;stroke-miterlimit:10;stroke-dasharray:none;stroke-opacity:1" transform="translate(-1776.866 -426.26)scale(.9965)"></path><path d="M1874.02 482s-8.44-2.719-13.69-.085" style="fill:#fff;fill-opacity:1;fill-rule:nonzero;stroke:#231f20;stroke-width:.75;stroke-linecap:round;stroke-linejoin:miter;stroke-miterlimit:10;stroke-dasharray:none;stroke-opacity:1" transform="translate(-1776.866 -426.26)scale(.9965)"></path><path d="M1866.35 479.486s3.8-1.164 7.23.409" style="fill:#fff;fill-opacity:1;fill-rule:nonzero;stroke:#231f20;stroke-width:.75;stroke-linecap:round;stroke-linejoin:miter;stroke-miterlimit:10;stroke-dasharray:none;stroke-opacity:1" transform="translate(-1776.866 -426.26)scale(.9965)"></path><path d="M1817.49 471.163h68.25" style="fill:#fff;fill-opacity:1;fill-rule:nonzero;stroke:#231f20;stroke-width:.75;stroke-linecap:butt;stroke-linejoin:miter;stroke-miterlimit:10;stroke-dasharray:none;stroke-opacity:1" transform="translate(-1776.866 -426.26)scale(.9965)"></path></symbol><symbol id="template-chair" xmlns="http://www.w3.org/2000/svg" width="17.091" height="18.906" viewBox="1044.151 52.725 17.091 18.906" preserveAspectRatio="none"><path d="m2830.53 485.546-.42-.74s2.08-.956 5.63-1.056h.93c3.55.1 5.63 1.056 5.63 1.056l-.42.74m-6.14 14.349h-6.94c-.56 0-1-.466-.92-.99l.63-12.715-.81-2.44v-1.001s4.02-1.751 8.51-1.751c4.48 0 8.5 1.751 8.5 1.751v1.001l-.8 2.44.62 12.715c.08.524-.36.99-.92.99h-6.94zm-8.04-16.145s4.02-1.752 8.51-1.752c4.48 0 8.5 1.752 8.5 1.752m-16.2 2.44s3.43-1.376 7.23-1.376h.93c3.8 0 7.24 1.376 7.24 1.376" style="fill:none;stroke:#231f20;stroke-width:.759;stroke-linecap:butt;stroke-linejoin:round;stroke-miterlimit:10;stroke-dasharray:none;stroke-opacity:1" transform="translate(-1675.335 -409.563)scale(.96186)"></path><path d="M1045.33 71.085c-.207-.064-.43-.282-.476-.466-.023-.088-.025-.317-.01-.662.035-.676.33-6.63.46-9.36.055-1.15.108-2.166.118-2.257l.017-.167.405-.14c1.48-.51 3.186-.885 4.787-1.055.69-.073 2.648-.102 3.437-.05a21.4 21.4 0 0 1 4.232.718c.552.152 1.636.507 1.66.543.01.015.151 2.79.317 6.165.234 4.78.292 6.165.264 6.262-.046.16-.204.34-.379.433l-.136.073-7.27.006c-6.355.005-7.29 0-7.43-.043z" style="fill:#fff;stroke:#000;stroke-width:.00099594;stroke-dasharray:none"></path><path d="m1045.033 56.852-.347-1.04.37-.139a25 25 0 0 1 3.72-1.065c2.99-.602 5.64-.543 8.727.195 1.296.31 3.235.95 3.195 1.053-.01.026-.164.491-.34 1.034-.175.542-.323.99-.328.996a7 7 0 0 1-.552-.17c-.298-.098-.67-.215-.827-.258l-.284-.078.16-.278c.088-.152.16-.313.16-.356 0-.097-.04-.12-.496-.282-2.14-.763-4.987-1.042-7.604-.744-1.278.146-2.624.45-3.535.798-.405.156-.411.173-.187.564l.167.293-.472.142c-.26.077-.625.194-.811.258a8 8 0 0 1-.355.117c-.01 0-.17-.468-.36-1.04z" style="fill:#fff;stroke:#000;stroke-width:.00099594;stroke-dasharray:none"></path><path d="M1047.186 57.084a1.4 1.4 0 0 1-.118-.245c0-.083 1.175-.434 2.024-.605 2.61-.527 5.375-.473 7.881.152.415.103 1.338.39 1.374.425.017.017-.218.443-.26.468-.015.01-.174-.02-.353-.064a24 24 0 0 0-2.865-.504c-.637-.072-2.94-.103-3.693-.05-1.14.08-2.398.28-3.484.553a5 5 0 0 1-.355.08c-.02 0-.087-.094-.152-.21zm-2.535-1.886.01-.336.381-.145a24 24 0 0 1 6.358-1.44 24 24 0 0 1 2.788.018c2.06.18 4.381.723 6.34 1.487l.2.078.01.338.01.338-.176-.07c-.86-.344-2.34-.789-3.411-1.026-3.33-.737-6.15-.69-9.546.153-.92.23-2.115.605-2.88.906l-.093.036z" style="fill:#fff;stroke:#000;stroke-width:.201;stroke-dasharray:none"></path></symbol><symbol id="template-closet_medium" xmlns="http://www.w3.org/2000/svg" width="45.628" height="23.842" viewBox="102.251 276.99 45.628 23.842" preserveAspectRatio="none"><path d="M1908.47 705.924h22.68v1.889h-22.68z" style="fill:#e6e7e8;fill-opacity:1;fill-rule:nonzero;stroke:#231f20;stroke-width:.751501;stroke-linecap:butt;stroke-linejoin:miter;stroke-miterlimit:10;stroke-dasharray:none;stroke-opacity:1" transform="matrix(.98973 0 0 -.98973 -1763.81 998.48)"></path><path d="M1885.8 705.924h22.67v1.889h-22.67z" style="fill:#e6e7e8;fill-opacity:1;fill-rule:nonzero;stroke:#231f20;stroke-width:.751501;stroke-linecap:butt;stroke-linejoin:miter;stroke-miterlimit:10;stroke-dasharray:none;stroke-opacity:1" transform="matrix(.98973 0 0 -.98973 -1763.81 998.48)"></path><path d="M1885.8 728.601h45.35v-20.788h-45.35zm23.7-22.713c0-.344.23-.625.5-.625h3.11c.28 0 .5.281.5.625m-10.27 0c0-.344.22-.625.5-.625h3.1c.28 0 .5.281.5.625m-21.64 12.319h45.35m-26.54-7.098-1.67 14.195m-.33-14.195-1.67 14.195m-11.16-14.195-1.67 14.195m9.99-14.195-1.67 14.195m-.33-14.195-1.67 14.195m4.44-14.195.6 14.195m-7.66-14.195.6 14.195m-1.92-14.195.6 14.195m36.97-14.195-1.67 14.195m-.33-14.195-1.67 14.195m-11.16-14.195-1.66 14.195m9.99-14.195-1.67 14.195m-.34-14.195-1.67 14.195m4.44-14.195.6 14.195m-7.66-14.195.6 14.195m-1.92-14.195.61 14.195" style="fill:none;stroke:#231f20;stroke-width:.751501;stroke-linecap:round;stroke-linejoin:round;stroke-miterlimit:10;stroke-dasharray:none;stroke-opacity:1" transform="matrix(.98973 0 0 -.98973 -1763.81 998.48)"></path><path d="M102.801 282.484v5h1.375c1.06 0 1.375-.018 1.375-.078 0-.043-.18-1.597-.4-3.453s-.386-3.396-.37-3.422c.015-.026.08-.047.145-.047.09 0 .126.06.155.266.05.36.783 6.612.783 6.68 0 .03.347.054.772.054h.772l.04-.703c.02-.387.082-1.87.136-3.297.115-2.996.115-3 .283-3 .11 0 .122.045.121.485 0 .266-.056 1.722-.124 3.234q-.071 1.507-.124 3.016v.265h.5c.358 0 .5-.022.497-.078-.005-.29.266-6.669.288-6.78.018-.09.074-.14.152-.14.16 0 .16-.023 0 3.592q-.072 1.555-.125 3.11v.296h2.75l-.003-.14c-.002-.078-.179-1.622-.393-3.432s-.38-3.32-.367-3.36c.012-.037.075-.068.14-.068.083 0 .126.06.15.203.043.257.786 6.613.785 6.72 0 .058.21.077.847.077h.848l-.037-.265c-.164-1.174-.775-6.635-.748-6.679.044-.07.197-.072.241 0 .02.03.203 1.5.41 3.264.206 1.767.392 3.317.413 3.446l.037.234h1.614v-.265c-.003-.484.258-6.577.283-6.657.014-.043.082-.078.152-.078.16 0 .16-.197.003 3.282a166 166 0 0 0-.125 3.234v.484h1.093c1.025 0 1.094-.007 1.094-.116 0-.064-.169-1.545-.375-3.29s-.375-3.268-.375-3.384c0-.166.025-.21.122-.21.09 0 .132.055.157.203.046.266.783 6.575.783 6.7 0 .083.125.097.844.097.464 0 .843-.02.843-.047 0-.025-.182-1.578-.403-3.449-.22-1.87-.387-3.425-.37-3.453.043-.07.196-.064.242.01.027.045.844 6.74.844 6.918 0 .012 1.857.021 4.126.021h4.127l-.032-.14a220 220 0 0 1-.413-3.444c-.264-2.276-.363-3.323-.318-3.368.164-.164.243.01.32.704.043.385.223 1.942.402 3.46l.324 2.757.76.018.76.017.031-.267c.02-.148.092-1.7.164-3.45s.145-3.207.162-3.235c.043-.07.196-.066.241.007.032.051-.153 4.89-.244 6.394l-.033.547h.5c.274 0 .5-.007.501-.015s.07-1.56.152-3.447c.086-1.972.177-3.457.212-3.492.034-.034.106-.046.16-.025.08.03.091.118.065.493-.017.25-.073 1.51-.123 2.8-.05 1.288-.11 2.645-.13 3.014l-.04.672h2.823l-.03-.172c-.05-.27-.78-6.557-.78-6.704 0-.102.034-.128.141-.113.14.02.148.08.55 3.49l.408 3.468.826.017.826.018v-.15c0-.082-.169-1.577-.375-3.323s-.375-3.254-.375-3.352c0-.135.03-.179.12-.179.067 0 .135.05.152.11s.208 1.635.424 3.5l.394 3.39h1.58l.038-.672c.021-.37.083-1.825.137-3.234.118-3.06.121-3.094.284-3.094.11 0 .12.047.12.516 0 .283-.057 1.781-.125 3.328s-.123 2.89-.124 2.984v.172h2.247l-.03-.172c-.098-.566-.78-6.672-.754-6.742.041-.107.22-.112.255-.008.014.043.197 1.555.406 3.36.208 1.804.393 3.344.41 3.422.03.137.051.14.842.14.775 0 .811-.005.811-.127 0-.07-.169-1.56-.375-3.31s-.375-3.268-.375-3.372c0-.148.028-.19.122-.19.09 0 .132.054.158.202.045.266.783 6.575.783 6.7 0 .086.22.097 1.812.097h1.813v-10h-44.563zm0 10.313v5h44.562v-10h-1.78c-.98 0-1.782.01-1.782.02 0 .012.182 1.563.404 3.447s.39 3.45.372 3.48c-.047.076-.276.065-.276-.013 0-.095-.743-6.424-.786-6.7l-.037-.234h-1.674l.031.172c.05.27.78 6.556.78 6.704 0 .102-.034.128-.14.112-.14-.02-.15-.08-.55-3.488l-.41-3.469-1.135-.017-1.135-.017-.03.204c-.018.113-.076 1.372-.13 2.8-.138 3.626-.16 3.94-.266 3.981-.049.02-.115.008-.146-.023-.05-.05.112-4.812.22-6.444l.034-.515h-1.574l.037.234c.043.276.786 6.605.786 6.7 0 .077-.228.09-.273.016-.017-.028-.202-1.51-.41-3.297q-.198-1.725-.414-3.45l-.033-.203h-1.674l.03.203c.061.424.774 6.57.774 6.68 0 .133-.237.166-.28.04-.015-.044-.198-1.556-.406-3.36a221 221 0 0 0-.41-3.423l-.03-.14h-2.8l-.037.515q-.077 1.461-.13 2.922a199 199 0 0 1-.13 2.988c-.037.55-.046.58-.173.563-.16-.023-.16.252.023-4.05.068-1.565.123-2.866.123-2.89 0-.027-.22-.048-.492-.048h-.492l-.039.672c-.02.37-.08 1.74-.134 3.046-.052 1.307-.11 2.581-.13 2.832-.034.423-.046.456-.172.438s-.133-.05-.117-.488l.14-3.368c.068-1.595.124-2.952.124-3.016 0-.107-.06-.116-.753-.116h-.753l.035.203c.042.243.783 6.596.783 6.714 0 .087-.222.116-.27.036-.017-.026-.203-1.538-.414-3.36a238 238 0 0 0-.413-3.453l-.03-.14h-8.185l.002.14c.002.078.18 1.622.393 3.432s.38 3.321.367 3.36c-.012.037-.075.068-.14.068-.083 0-.126-.059-.15-.203-.043-.257-.786-6.613-.785-6.72 0-.058-.21-.077-.843-.077-.465 0-.844.01-.844.02 0 .012.182 1.563.404 3.447s.39 3.45.371 3.48c-.043.07-.275.07-.275 0 0-.069-.733-6.323-.783-6.68l-.037-.267h-2.305l.001.172c.003.386-.264 6.677-.286 6.75-.013.043-.085.078-.16.078-.153 0-.154.142.042-4.188.05-1.083.09-2.158.09-2.39v-.422h-.75c-.714 0-.75.006-.75.128 0 .07.17 1.56.375 3.31.206 1.75.375 3.267.375 3.371 0 .148-.027.19-.124.19-.077 0-.135-.05-.153-.14-.017-.077-.206-1.652-.42-3.5l-.39-3.36h-.832c-.457 0-.83.022-.83.048 0 .025.181 1.578.403 3.45.22 1.87.387 3.424.37 3.452-.035.057-.274.07-.274.016 0-.02-.183-1.585-.406-3.48-.223-1.894-.406-3.453-.406-3.465 0-.01-.64-.02-1.425-.02h-1.424l-.144 3.453c-.079 1.9-.157 3.474-.173 3.5s-.084.047-.15.047q-.122 0-.122-.13c0-.14.235-5.832.268-6.48l.02-.39h-.487c-.454 0-.488.01-.514.14-.016.078-.087 1.63-.16 3.448-.072 1.818-.146 3.33-.164 3.36-.018.028-.09.052-.16.052-.126 0-.129-.022-.09-.703.02-.387.08-1.758.13-3.047s.107-2.548.124-2.797l.032-.453h-.75c-.558 0-.749.02-.748.078 0 .043.18 1.597.4 3.453s.386 3.396.37 3.422c-.015.026-.08.047-.146.047-.09 0-.126-.06-.154-.266a954 954 0 0 1-.783-6.68c0-.03-.633-.054-1.406-.054h-1.407z" style="fill:#fff;stroke:#000;stroke-width:.00187875;stroke-dasharray:none"></path><path d="M120.13 299.962q.051.24.215.33l.06.032 1.588.003c1.063.001 1.604 0 1.632-.009q.198-.053.283-.367c.005-.018-.09-.02-1.89-.02h-1.896zm6.091-.02c0 .005.01.041.022.08a.48.48 0 0 0 .216.278l.044.024 1.596.003c1.805.003 1.655.01 1.763-.088a.53.53 0 0 0 .145-.26l.007-.047h-1.897q-.948-.005-1.896.01z" style="fill:#fff;stroke:#000;stroke-width:.00033212;stroke-dasharray:none"></path></symbol><symbol id="template-closet_small" xmlns="http://www.w3.org/2000/svg" width="38.121" height="23.826" viewBox="18.071 276.99 38.121 23.826" preserveAspectRatio="none"><path d="M1820.52 705.924h18.89v1.889h-18.89z" style="fill:#e6e7e8;fill-opacity:1;fill-rule:nonzero;stroke:#231f20;stroke-width:.75;stroke-linecap:butt;stroke-linejoin:miter;stroke-miterlimit:10;stroke-dasharray:none;stroke-opacity:1" transform="matrix(.98913 0 0 -.98913 -1763.594 998.042)"></path><path d="M1801.62 705.924h18.89v1.889h-18.89z" style="fill:#e6e7e8;fill-opacity:1;fill-rule:nonzero;stroke:#231f20;stroke-width:.75;stroke-linecap:butt;stroke-linejoin:miter;stroke-miterlimit:10;stroke-dasharray:none;stroke-opacity:1" transform="matrix(.98913 0 0 -.98913 -1763.594 998.042)"></path><path d="M1801.62 728.601h37.79v-20.788h-37.79zm19.75-22.713c0-.344.19-.625.42-.625h2.59c.23 0 .42.281.42.625m-8.57 0c0-.344.19-.625.42-.625h2.59c.23 0 .42.281.42.625m-18.04 12.319h18.89m0-10.394v20.788m-1.2-17.492-1.66 14.195m-.34-14.195-1.67 14.195m-11.16-14.195-1.66 14.195m9.99-14.195-1.67 14.195m-.33-14.195-1.67 14.195m4.43-14.195.6 14.195m-7.66-14.195.6 14.195m-1.91-14.195.6 14.195" style="fill:none;stroke:#231f20;stroke-width:.75;stroke-linecap:round;stroke-linejoin:round;stroke-miterlimit:10;stroke-dasharray:none;stroke-opacity:1" transform="matrix(.98913 0 0 -.98913 -1763.594 998.042)"></path><path d="M37.304 287.641v10.12H55.67v-20.24H37.303zm-18.73 5.135v4.985h18.429v-9.969h-.846q-.844 0-.846.065c0 .036.178 1.578.394 3.427.217 1.85.38 3.397.365 3.44-.034.086-.191.103-.24.025-.028-.047-.82-6.68-.82-6.874 0-.066-.172-.083-.846-.083-.466 0-.846.01-.846.02s.176 1.518.392 3.35c.216 1.83.393 3.4.393 3.488 0 .13-.024.155-.136.14-.133-.02-.143-.08-.54-3.403a448 448 0 0 1-.407-3.49c-.004-.096-.1-.105-1.147-.105H30.73l-.037.559c-.02.307-.09 1.86-.157 3.45-.066 1.59-.135 2.916-.154 2.946-.043.07-.19.069-.235-.003-.032-.052.159-5.097.24-6.393l.037-.559h-1.567l.03.227c.218 1.704.778 6.649.758 6.706-.015.041-.077.075-.138.075-.142 0-.11.216-.54-3.504-.2-1.711-.376-3.2-.395-3.308l-.034-.196h-.812c-.781 0-.813.005-.813.125 0 .068.176 1.623.393 3.455.244 2.07.37 3.353.336 3.388-.094.094-.227.001-.26-.181-.018-.094-.205-1.66-.417-3.48l-.384-3.307h-2.87v.136c.005.356-.253 6.504-.28 6.676-.02.14-.06.196-.14.196-.061 0-.123-.034-.136-.075-.014-.042.035-1.449.11-3.127.074-1.678.137-3.22.14-3.428l.004-.378h-.957l-.034.438c-.02.241-.09 1.795-.16 3.453-.067 1.658-.137 3.038-.154 3.066-.043.07-.19.065-.235-.007-.032-.053.159-5.166.24-6.421l.035-.529h-.757c-.417 0-.758.009-.758.02 0 .01.177 1.524.393 3.363.216 1.84.393 3.408.393 3.485 0 .1-.035.14-.123.14-.067 0-.134-.034-.148-.075-.015-.042-.191-1.503-.392-3.248a540 540 0 0 0-.402-3.428l-.036-.257h-1.74zm0-10.27v4.984h.847c.675 0 .846-.017.846-.082 0-.046-.178-1.6-.395-3.454-.254-2.172-.374-3.392-.336-3.43.107-.107.23.005.265.24.02.127.205 1.693.413 3.479l.378 3.247h1.533l.039-.68c.02-.373.078-1.672.126-2.885.049-1.212.105-2.485.126-2.827.036-.593.044-.622.168-.605s.13.046.115.623c-.021.859-.187 4.95-.233 5.727l-.038.652.506-.018.505-.017.132-3.112c.072-1.71.14-3.274.15-3.474.018-.323.035-.364.156-.381.127-.018.136.002.135.332 0 .193-.054 1.575-.12 3.07a170 170 0 0 0-.12 3.157l-.001.438h2.78l-.033-.227c-.092-.63-.753-6.403-.753-6.578 0-.162.024-.203.12-.203.074 0 .13.05.149.136.016.074.195 1.563.397 3.307.2 1.745.382 3.26.4 3.37l.035.195h1.653l-.407-3.455c-.224-1.9-.393-3.477-.377-3.504.038-.062.264-.065.268-.004 0 .025.186 1.595.41 3.49l.407 3.443.798.017c.44.01.8-.005.8-.03.015-.812.307-6.866.332-6.907.045-.073.192-.076.236-.006.029.047-.141 4.523-.238 6.276l-.038.68h1.122c.894 0 1.122-.016 1.122-.08 0-.045-.177-1.586-.394-3.426s-.381-3.38-.365-3.424c.034-.086.19-.106.238-.03.03.047.823 6.672.823 6.866 0 .08.122.094.853.094h.853l-.036-.257c-.16-1.14-.765-6.6-.74-6.667.04-.105.213-.11.249-.009.022.065.816 6.764.815 6.888 0 .025.394.045.876.045h.876v-9.969H18.575z" style="fill:#fff;stroke:#000;stroke-width:.00181247;stroke-dasharray:none"></path><path d="M33.037 299.952c.022.144.11.295.2.344l.034.017h2.65l.035-.02a.4.4 0 0 0 .124-.13.8.8 0 0 0 .075-.214l.005-.032h-3.127zm5.083-.007c.026.156.105.292.199.348l.035.02h2.65l.034-.017c.09-.049.18-.2.2-.344l.006-.035h-3.13z" style="fill:#fff;stroke:#000;stroke-width:.00022656;stroke-dasharray:none"></path></symbol><symbol id="template-computer" xmlns="http://www.w3.org/2000/svg" width="45.569" height="39.076" viewBox="19.121 355.057 45.569 39.076" preserveAspectRatio="none"><path d="M1825.51 783.33c.43.003.79-.008.79.247v1.229c0 .256-.36.464-.79.462-.44 0-.79-.208-.79-.464v-1.228c0-.256.36-.246.79-.246" style="fill:#e6e7e8;fill-opacity:1;fill-rule:nonzero;stroke:#231f20;stroke-width:.5;stroke-linecap:butt;stroke-linejoin:miter;stroke-miterlimit:10;stroke-dasharray:none;stroke-opacity:1" transform="matrix(.99366 0 0 -.99366 -1771.872 1172.248)"></path><path d="M1825.34 783.942h.33c.2 0 .36.164.36.362v1.602c0 .198-.16.359-.36.359h-.33a.365.365 0 0 1-.36-.359v-1.602c0-.198.17-.362.36-.362" style="fill:#fff;fill-opacity:1;fill-rule:nonzero;stroke:#231f20;stroke-width:.5;stroke-linecap:butt;stroke-linejoin:miter;stroke-miterlimit:10;stroke-dasharray:none;stroke-opacity:1" transform="matrix(.99366 0 0 -.99366 -1771.872 1172.248)"></path><path d="M1833.49 786.405c-1.23-.503-4.49-1.661-8.14-1.661s-6.91 1.158-8.15 1.661c-.32.131-.52.412-.52.719v.13s2.3-.164 3.82-.704c.26-.09.57-.14.88-.14h7.8c.32 0 .63.05.88.14 1.53.54 3.97.704 3.97.704v-.13c0-.307-.21-.588-.54-.719" style="fill:#e6e7e8;fill-opacity:1;fill-rule:nonzero;stroke:#231f20;stroke-width:.5;stroke-linecap:butt;stroke-linejoin:miter;stroke-miterlimit:10;stroke-dasharray:none;stroke-opacity:1" transform="matrix(.99366 0 0 -.99366 -1771.872 1172.248)"></path><path d="M1816.68 787.254v1.896c0 .348.33.632.73.615.35-.016.86-.099 1.6-.313 2.16-.616 3.67-1.315 6.34-1.315s4.18.699 6.34 1.315c.74.214 1.25.297 1.6.313.4.017.74-.267.74-.615v-1.896" style="fill:none;stroke:#231f20;stroke-width:.506;stroke-linecap:butt;stroke-linejoin:round;stroke-miterlimit:10;stroke-dasharray:none;stroke-opacity:1" transform="matrix(.99366 0 0 -.99366 -1771.872 1172.248)"></path><path d="M1836.01 792.852c0-.434.01-.79-.25-.79h-1.23c-.25 0-.46.356-.46.79 0 .432.21.788.46.788h1.23c.26 0 .25-.356.25-.788" style="fill:#e6e7e8;fill-opacity:1;fill-rule:nonzero;stroke:#231f20;stroke-width:.5;stroke-linecap:butt;stroke-linejoin:miter;stroke-miterlimit:10;stroke-dasharray:none;stroke-opacity:1" transform="matrix(.99366 0 0 -.99366 -1771.872 1172.248)"></path><path d="m1835.42 792.824-.1-.311a.35.35 0 0 0-.44-.244l-1.54.459a.357.357 0 0 0-.24.449l.09.312c.06.191.26.299.45.243l1.53-.459c.2-.057.3-.257.25-.449" style="fill:#fff;fill-opacity:1;fill-rule:nonzero;stroke:#231f20;stroke-width:.5;stroke-linecap:butt;stroke-linejoin:miter;stroke-miterlimit:10;stroke-dasharray:none;stroke-opacity:1" transform="matrix(.99366 0 0 -.99366 -1771.872 1172.248)"></path><path d="M1814.87 792.489c.14-.412.24-.753.48-.675l1.17.378c.24.078.33.48.2.893-.14.412-.44.685-.69.607l-1.17-.378c-.24-.078-.12-.413.01-.825" style="fill:#e6e7e8;fill-opacity:1;fill-rule:nonzero;stroke:#231f20;stroke-width:.5;stroke-linecap:butt;stroke-linejoin:miter;stroke-miterlimit:10;stroke-dasharray:none;stroke-opacity:1" transform="matrix(.99366 0 0 -.99366 -1771.872 1172.248)"></path><path d="m1815.41 792.824.1-.311a.364.364 0 0 1 .45-.244l1.53.459c.19.056.3.258.24.449l-.09.312a.365.365 0 0 1-.45.243l-1.53-.459a.37.37 0 0 1-.25-.449" style="fill:#fff;fill-opacity:1;fill-rule:nonzero;stroke:#231f20;stroke-width:.5;stroke-linecap:butt;stroke-linejoin:miter;stroke-miterlimit:10;stroke-dasharray:none;stroke-opacity:1" transform="matrix(.99366 0 0 -.99366 -1771.872 1172.248)"></path><path d="M1832.98 789.765s1.06 1.388 1.06 11.003c0 1.134-4.67 1.937-8.67 1.854-4.01.083-8.68-.72-8.68-1.854 0-9.615 1.06-11.003 1.06-11.003l1.27-.311c2.15-.617 3.66-1.317 6.33-1.317s4.18.7 6.33 1.317z" style="fill:#e6e7e8;fill-opacity:1;fill-rule:nonzero;stroke:#231f20;stroke-width:.5;stroke-linecap:butt;stroke-linejoin:miter;stroke-miterlimit:10;stroke-dasharray:none;stroke-opacity:1" transform="matrix(.99366 0 0 -.99366 -1771.872 1172.248)"></path><path d="M1848.03 822.155h-45.36v-22.679h45.36z" style="fill:#e6e7e8;fill-opacity:1;fill-rule:nonzero;stroke:#231f20;stroke-width:.5;stroke-linecap:butt;stroke-linejoin:miter;stroke-miterlimit:10;stroke-dasharray:none;stroke-opacity:1" transform="matrix(.99366 0 0 -.99366 -1771.872 1172.248)"></path><path d="M1819.34 813.817v-.9c0-.331.27-.597.6-.597h10.82c.33 0 .6.266.6.597v.9" style="fill:#fff;fill-opacity:1;fill-rule:nonzero;stroke:#231f20;stroke-width:.506;stroke-linecap:butt;stroke-linejoin:round;stroke-miterlimit:10;stroke-dasharray:none;stroke-opacity:1" transform="matrix(.99366 0 0 -.99366 -1771.872 1172.248)"></path><path d="M1831.36 815.934v2.531a.6.6 0 0 1-.6.599h-10.82a.6.6 0 0 1-.6-.599v-2.531" style="fill:#fff;fill-opacity:1;fill-rule:nonzero;stroke:#231f20;stroke-width:.506;stroke-linecap:butt;stroke-linejoin:round;stroke-miterlimit:10;stroke-dasharray:none;stroke-opacity:1" transform="matrix(.99366 0 0 -.99366 -1771.872 1172.248)"></path><path d="M1812.35 815.082v-1.265h26.07v1.265c0 .695-.57.852-1.27.852h-23.54c-.69 0-1.26-.157-1.26-.852" style="fill:#fff;fill-opacity:1;fill-rule:nonzero;stroke:none;stroke-width:2;stroke-dasharray:none" transform="matrix(.99366 0 0 -.99366 -1771.872 1172.248)"></path><path d="M1812.35 815.082v-1.265h26.07v1.265c0 .695-.57.852-1.27.852h-23.54c-.69 0-1.26-.157-1.26-.852zm15.78 2.24a.84.84 0 0 0-.42-.802c-.2-.12-.33-.587-.33-.587h-4.01s-.13.467-.33.587a.84.84 0 0 0-.42.802c.04.443.44.766.89.766h3.73c.45 0 .85-.323.89-.766z" style="fill:none;stroke:#231f20;stroke-width:.506;stroke-linecap:butt;stroke-linejoin:round;stroke-miterlimit:10;stroke-dasharray:none;stroke-opacity:1" transform="matrix(.99366 0 0 -.99366 -1771.872 1172.248)"></path><path d="M1817.58 810.134v-4.093c0-.209.17-.377.38-.377h14.85c.21 0 .38.168.38.377v4.093c0 .208-.17.376-.38.376h-14.85a.38.38 0 0 1-.38-.376" style="fill:#fff;fill-opacity:1;fill-rule:nonzero;stroke:#231f20;stroke-width:.506;stroke-linecap:butt;stroke-linejoin:round;stroke-miterlimit:10;stroke-dasharray:none;stroke-opacity:1" transform="matrix(.99366 0 0 -.99366 -1771.872 1172.248)"></path><path d="M1816 808.329c0-.132-.25-1.119-.28-1.296-.03-.187.12-1.115.12-1.181 0-.334-.53-.606-1.19-.606-.65 0-1.19.272-1.19.606 0 .066.16.994.13 1.181-.03.177-.28 1.164-.28 1.296 0 .483.6.873 1.34.873.75 0 1.35-.39 1.35-.873" style="fill:#fff;fill-opacity:1;fill-rule:nonzero;stroke:#231f20;stroke-width:.506;stroke-linecap:butt;stroke-linejoin:round;stroke-miterlimit:10;stroke-dasharray:none;stroke-opacity:1" transform="matrix(.99366 0 0 -.99366 -1771.872 1172.248)"></path><path d="M1818.5 809.544h.34" style="fill:none;stroke:#231f20;stroke-width:.506;stroke-linecap:butt;stroke-linejoin:round;stroke-miterlimit:4;stroke-dasharray:none;stroke-opacity:1" transform="matrix(.99366 0 0 -.99366 -1771.872 1172.248)"></path><path d="M1819.53 809.544h12.06" style="fill:none;stroke:#231f20;stroke-width:.506;stroke-linecap:butt;stroke-linejoin:round;stroke-miterlimit:4;stroke-dasharray:1.034,1.034;stroke-dashoffset:0;stroke-opacity:1" transform="matrix(.99366 0 0 -.99366 -1771.872 1172.248)"></path><path d="M1831.93 809.544h.33m-13.76-1.028h.34" style="fill:none;stroke:#231f20;stroke-width:.506;stroke-linecap:butt;stroke-linejoin:round;stroke-miterlimit:4;stroke-dasharray:none;stroke-opacity:1" transform="matrix(.99366 0 0 -.99366 -1771.872 1172.248)"></path><path d="M1819.53 808.517h12.06" style="fill:none;stroke:#231f20;stroke-width:.506;stroke-linecap:butt;stroke-linejoin:round;stroke-miterlimit:4;stroke-dasharray:1.034,1.034;stroke-dashoffset:0;stroke-opacity:1" transform="matrix(.99366 0 0 -.99366 -1771.872 1172.248)"></path><path d="M1831.93 808.517h.33m-13.76-1.028h.34" style="fill:none;stroke:#231f20;stroke-width:.506;stroke-linecap:butt;stroke-linejoin:round;stroke-miterlimit:4;stroke-dasharray:none;stroke-opacity:1" transform="matrix(.99366 0 0 -.99366 -1771.872 1172.248)"></path><path d="M1819.53 807.489h12.06" style="fill:none;stroke:#231f20;stroke-width:.506;stroke-linecap:butt;stroke-linejoin:round;stroke-miterlimit:4;stroke-dasharray:1.034,1.034;stroke-dashoffset:0;stroke-opacity:1" transform="matrix(.99366 0 0 -.99366 -1771.872 1172.248)"></path><path d="M1831.93 807.489h.33" style="fill:none;stroke:#231f20;stroke-width:.506;stroke-linecap:butt;stroke-linejoin:round;stroke-miterlimit:4;stroke-dasharray:none;stroke-opacity:1" transform="matrix(.99366 0 0 -.99366 -1771.872 1172.248)"></path><path d="M1821.76 806.465h7.24m-10.5 0h2.18m9.41 0h2.17" style="fill:none;stroke:#231f20;stroke-width:.506;stroke-linecap:butt;stroke-linejoin:round;stroke-miterlimit:10;stroke-dasharray:none;stroke-opacity:1" transform="matrix(.99366 0 0 -.99366 -1771.872 1172.248)"></path><path d="M1814.94 808.158c0 .314-.13.568-.29.568-.15 0-.28-.254-.28-.568 0-.312.13-.566.28-.566.16 0 .29.254.29.566" style="fill:#fff;fill-opacity:1;fill-rule:nonzero;stroke:#231f20;stroke-width:.506;stroke-linecap:butt;stroke-linejoin:round;stroke-miterlimit:10;stroke-dasharray:none;stroke-opacity:1" transform="matrix(.99366 0 0 -.99366 -1771.872 1172.248)"></path><path d="M33.765 387.682a.7.7 0 0 0-.232.18c-.09.117-.096.165-.096 1.06v.939l.377.03c.956.078 2.27.328 3.103.59l.52.165h8.795l.53-.162c.872-.268 1.94-.468 3.06-.575l.586-.055v-.876c0-1.04-.025-1.14-.324-1.272-.173-.076-.234-.081-.545-.042-.502.063-1.248.255-2.49.641-2.733.85-4.2 1.063-6.214.904-1.194-.094-2.046-.282-3.995-.882-1.327-.41-2.032-.593-2.533-.661-.413-.056-.374-.057-.542.016z" style="fill:#fff;stroke:#000;stroke-width:.00088388;stroke-dasharray:none"></path></symbol><symbol id="template-cooking" xmlns="http://www.w3.org/2000/svg" width="23.182" height="23.796" viewBox="1117.961 128.936 23.182 23.796" preserveAspectRatio="none"><path d="M2903.04 557.821c0-.338.48-.612 1.05-.612h17.52c.57 0 1.05.274 1.05.612" style="fill:#e6e7e8;fill-opacity:1;fill-rule:nonzero;stroke:#231f20;stroke-width:.759;stroke-linecap:butt;stroke-linejoin:miter;stroke-miterlimit:10;stroke-dasharray:none;stroke-opacity:1" transform="matrix(.98905 0 0 -.98905 -1751.402 703.464)"></path><path d="M2901.51 580.509h22.68v-22.677h-22.68z" style="fill:none;stroke:#231f20;stroke-width:.759;stroke-linecap:butt;stroke-linejoin:round;stroke-miterlimit:10;stroke-dasharray:none;stroke-opacity:1" transform="matrix(.98905 0 0 -.98905 -1751.402 703.464)"></path><path d="M2920.77 578.619h-15.84c-1.04 0-1.89-.847-1.89-1.89v-15.118c0-1.044.85-1.89 1.89-1.89h15.84c1.04 0 1.89.846 1.89 1.89v15.118c0 1.043-.85 1.89-1.89 1.89" style="fill:#fff;fill-opacity:1;fill-rule:nonzero;stroke:#231f20;stroke-width:.759;stroke-linecap:butt;stroke-linejoin:miter;stroke-miterlimit:10;stroke-dasharray:none;stroke-opacity:1" transform="matrix(.98905 0 0 -.98905 -1751.402 703.464)"></path><path d="M2910.91 573.487a3.147 3.147 0 0 1-3.15 3.146 3.147 3.147 0 1 1 0-6.292c1.74 0 3.15 1.406 3.15 3.146" style="fill:#e6e7e8;fill-opacity:1;fill-rule:nonzero;stroke:#231f20;stroke-width:.759;stroke-linecap:butt;stroke-linejoin:miter;stroke-miterlimit:10;stroke-dasharray:none;stroke-opacity:1" transform="matrix(.98905 0 0 -.98905 -1751.402 703.464)"></path><path d="M2921.09 572.874c0 2.077-1.68 3.76-3.76 3.76a3.76 3.76 0 0 1-3.76-3.76 3.757 3.757 0 0 1 3.76-3.761c2.08 0 3.76 1.682 3.76 3.761" style="fill:#e6e7e8;fill-opacity:1;fill-rule:nonzero;stroke:#231f20;stroke-width:.759;stroke-linecap:butt;stroke-linejoin:miter;stroke-miterlimit:10;stroke-dasharray:none;stroke-opacity:1" transform="matrix(.98905 0 0 -.98905 -1751.402 703.464)"></path><path d="M2910.91 564.853a3.15 3.15 0 0 1-3.15 3.147 3.148 3.148 0 1 1 0-6.294c1.74 0 3.15 1.408 3.15 3.147" style="fill:#e6e7e8;fill-opacity:1;fill-rule:nonzero;stroke:#231f20;stroke-width:.759;stroke-linecap:butt;stroke-linejoin:miter;stroke-miterlimit:10;stroke-dasharray:none;stroke-opacity:1" transform="matrix(.98905 0 0 -.98905 -1751.402 703.464)"></path><path d="M2919.84 564.213a2.51 2.51 0 0 1-2.51 2.506 2.51 2.51 0 0 1-2.51-2.506 2.513 2.513 0 0 1 2.51-2.507c1.38 0 2.51 1.123 2.51 2.507" style="fill:#e6e7e8;fill-opacity:1;fill-rule:nonzero;stroke:#231f20;stroke-width:.759;stroke-linecap:butt;stroke-linejoin:miter;stroke-miterlimit:10;stroke-dasharray:none;stroke-opacity:1" transform="matrix(.98905 0 0 -.98905 -1751.402 703.464)"></path><path d="M1118.51 140.505v11.07h22.144v-22.14h-22.142zm19.279-9.43c.55.114 1.115.527 1.376 1.006.26.48.249.08.249 8.446 0 8.37.01 7.986-.25 8.44a2.22 2.22 0 0 1-1.097.934l-.265.106-8.043.013c-5.848.009-8.126-.002-8.345-.038a2.05 2.05 0 0 1-1.666-1.637c-.03-.162-.041-2.85-.033-7.975l.012-7.731.106-.265c.266-.668.808-1.145 1.462-1.288.335-.073 16.145-.084 16.494-.012z" style="fill:#fff;stroke:#000;stroke-width:.00132583;stroke-dasharray:none"></path></symbol><symbol id="template-couch" xmlns="http://www.w3.org/2000/svg" width="61.227" height="34.986" viewBox="27.491 489.779 61.227 34.986" preserveAspectRatio="none"><path d="M1841.59 924.121v26.3c0 .449 1.48.815 1.62.815h21.32c.14 0 1.62-.366 1.62-.815v-26.3" style="fill:#e6e7e8;fill-opacity:1;fill-rule:nonzero;stroke:#231f20;stroke-width:1.25;stroke-linecap:butt;stroke-linejoin:miter;stroke-miterlimit:10;stroke-dasharray:none;stroke-opacity:1" transform="translate(-1768.477 -420.327)scale(.99202)"></path><path d="M1817.04 924.121v26.3c0 .449 1.48.815 1.62.815h21.31c.15 0 1.62-.366 1.62-.815v-26.3" style="fill:#e6e7e8;fill-opacity:1;fill-rule:nonzero;stroke:none;stroke-width:5;stroke-dasharray:none" transform="translate(-1768.477 -420.327)scale(.99202)"></path><path d="M1817.04 924.121v26.3c0 .449 1.48.815 1.62.815h21.31c.15 0 1.62-.366 1.62-.815v-26.3m24.56.199v26.917c0 .459.34.832.77.832h3.82c.42 0 .77-.373.77-.832v-32.352c0-.459-.35-.833-.77-.833h-58.93c-.43 0-.77.374-.77.833v32.352c0 .459.34.832.77.832h4.46c.43 0 .77-.373.77-.832V924.32" style="fill:none;stroke:#231f20;stroke-width:1.25;stroke-linecap:butt;stroke-linejoin:miter;stroke-miterlimit:10;stroke-dasharray:none;stroke-opacity:1" transform="translate(-1768.477 -420.327)scale(.99202)"></path><path d="M1841.59 927.408v-4.42c0-.462.42-.834.93-.834h22.7c.51 0 .93.372.93.834v4.42c0 .434-.37.797-.86.83h-.01c-7.59.546-15.22.546-22.82 0h-.01c-.49-.033-.86-.396-.86-.83" style="fill:#fff;fill-opacity:1;fill-rule:nonzero;stroke:#231f20;stroke-width:1.25;stroke-linecap:butt;stroke-linejoin:miter;stroke-miterlimit:10;stroke-dasharray:none;stroke-opacity:1" transform="translate(-1768.477 -420.327)scale(.99202)"></path><path d="M1817.04 927.408v-4.42c0-.462.42-.834.93-.834h22.7c.51 0 .92.372.92.834v4.42c0 .434-.37.797-.85.83h-.01c-7.6.546-15.23.546-22.83 0h-.01c-.48-.033-.85-.396-.85-.83" style="fill:#fff;fill-opacity:1;fill-rule:nonzero;stroke:#231f20;stroke-width:1.25;stroke-linecap:butt;stroke-linejoin:miter;stroke-miterlimit:10;stroke-dasharray:none;stroke-opacity:1" transform="translate(-1768.477 -420.327)scale(.99202)"></path><path d="m28.47 523.792-.19-.188v-32.617l.122-.178a.54.54 0 0 1 .302-.23c.13-.038 8.636-.049 29.498-.039 27.466.013 29.324.02 29.432.096a1 1 0 0 1 .205.217c.087.132.09.66.09 16.444v16.307l-.188.188-.187.187h-2.089c-2.255 0-2.25 0-2.422-.26-.059-.087-.072-2.167-.093-14.386-.022-13.322-.03-14.294-.106-14.434a1.27 1.27 0 0 0-.602-.51c-.154-.054-2.13-.065-11.69-.065H59.048l-.194.104a1.5 1.5 0 0 0-.31.23l-.119.127-.148-.14a1.8 1.8 0 0 0-.317-.23c-.164-.088-.547-.09-11.698-.09H34.734l-.24.12a1.4 1.4 0 0 0-.386.307l-.147.186-.025 14.29c-.023 13.894-.026 14.296-.115 14.443-.193.318-.108.308-2.762.308h-2.403z" style="fill:#fff;stroke:#000;stroke-width:.00241687;stroke-dasharray:none"></path></symbol><symbol id="template-fridge" xmlns="http://www.w3.org/2000/svg" width="23.184" height="23.926" viewBox="1060.251 128.801 23.184 23.926" preserveAspectRatio="none"><path d="M2843.8 580.509h22.68v-22.677h-22.68z" style="fill:none;stroke:#231f20;stroke-width:.759;stroke-linecap:butt;stroke-linejoin:round;stroke-miterlimit:10;stroke-dasharray:none;stroke-opacity:1" transform="matrix(.9891 0 0 -.9891 -1752.176 703.358)"></path><path d="M2843.8 557.736h22.68v1.889h-22.68z" style="fill:#e6e7e8;fill-opacity:1;fill-rule:nonzero;stroke:#231f20;stroke-width:.75;stroke-linecap:butt;stroke-linejoin:miter;stroke-miterlimit:10;stroke-dasharray:none;stroke-opacity:1" transform="matrix(.9891 0 0 -.9891 -1752.176 703.358)"></path><path d="M2844.65 557.699c0-.344.19-.625.42-.625h6.92c.23 0 .42.281.42.625m-3.67 6.776v4.735m2.36-2.368h-4.73m4.04-1.673-3.35 3.348m3.35 0-3.35-3.348m8.12-.694v4.735m2.37-2.368h-4.73m4.04-1.673-3.35 3.348m3.35 0-3.35-3.348m8.03-.694v4.735m2.37-2.368h-4.74m4.04-1.673-3.35 3.348m3.35 0-3.35-3.348" style="fill:none;stroke:#231f20;stroke-width:.75;stroke-linecap:round;stroke-linejoin:round;stroke-miterlimit:10;stroke-dasharray:none;stroke-opacity:1" transform="matrix(.9891 0 0 -.9891 -1752.176 703.358)"></path><path d="M1060.765 139.502v10.187h22.156v-20.375h-22.156zm4.837.756c.028.028.038.308.038 1.07v1.033l.726-.727c.719-.718.8-.78.892-.69.092.092.03.175-.688.893l-.727.727h1.033c.76 0 1.042.01 1.07.038.052.052.047.136-.012.194-.042.043-.183.05-1.07.05h-1.02l.726.726c.399.4.726.75.726.78 0 .059-.08.15-.134.15-.02 0-.37-.334-.78-.742l-.742-.741v1.053c0 1.02 0 1.053-.063 1.086-.072.039-.17 0-.2-.08-.01-.028-.02-.495-.02-1.04v-.99l-.71.708c-.391.388-.733.714-.762.724-.065.022-.183-.06-.183-.127 0-.028.327-.38.726-.78l.725-.728h-.988c-.544 0-1.012-.008-1.04-.02-.08-.03-.118-.126-.08-.2.033-.06.066-.061 1.088-.061h1.053l-.748-.748c-.721-.722-.746-.751-.711-.828.075-.164.14-.117.905.646l.726.727v-1.01c0-.636.012-1.032.033-1.07.036-.068.154-.08.21-.023zm6.375 0c.028.028.038.308.038 1.07v1.033l.726-.727c.719-.718.8-.78.892-.69.092.092.03.175-.688.893l-.727.727h1.033c.76 0 1.042.01 1.07.038.057.057.044.175-.023.21-.038.02-.434.033-1.07.033h-1.01l.727.727c.742.743.802.824.665.897a.3.3 0 0 1-.084.033c-.013 0-.36-.334-.768-.742l-.743-.741v1.03c0 .567-.012 1.046-.024 1.064-.042.06-.125.072-.192.025-.065-.045-.066-.063-.066-1.067v-1.02l-.728.725c-.4.4-.745.726-.765.726-.05 0-.163-.114-.163-.163 0-.02.327-.365.726-.766l.725-.728h-.993c-.625 0-1.016-.012-1.054-.032-.075-.04-.082-.202-.01-.23.026-.01.508-.02 1.069-.02h1.02l-.742-.743c-.407-.41-.74-.754-.74-.767s.014-.051.03-.085c.075-.136.156-.076.899.666l.726.727v-1.01c0-.636.012-1.032.033-1.07.036-.068.154-.08.21-.023zm6.28 0c.029.028.039.308.039 1.07v1.033l.727-.727c.718-.718.8-.78.892-.69.092.092.029.175-.69.893l-.726.727h1.033c.76 0 1.042.01 1.07.038.058.057.045.175-.023.21-.038.02-.434.033-1.07.033h-1.01l.727.727c.742.743.802.824.666.897a.3.3 0 0 1-.085.033c-.013 0-.358-.334-.767-.742l-.744-.741v1.053c0 1.02 0 1.053-.063 1.086a.12.12 0 0 1-.125 0c-.06-.033-.062-.066-.062-1.086v-1.053l-.744.74c-.41.409-.76.743-.781.743-.05 0-.163-.114-.163-.163 0-.02.327-.365.726-.766l.726-.728h-.994c-.625 0-1.015-.012-1.053-.032-.075-.04-.083-.202-.011-.23.027-.01.508-.02 1.069-.02h1.02l-.741-.743c-.408-.41-.742-.754-.742-.767a.3.3 0 0 1 .033-.085c.073-.137.154-.076.912.682l.743.742v-1.068c0-.824.01-1.07.039-1.083.07-.028.135-.022.173.017z" style="fill:#fff;stroke:#000;stroke-width:.0009375;stroke-dasharray:none"></path><path d="M1061.596 151.84c0 .02.02.106.037.149a.5.5 0 0 0 .103.17.2.2 0 0 0 .127.07c.02.004 1.38.005 3.464.004l3.43-.001.033-.015c.1-.047.188-.194.213-.354v-.032h-3.705c-3.526 0-3.706 0-3.706.01z" style="fill:#fff;stroke:#000;stroke-width:.00016573;stroke-dasharray:none"></path></symbol><symbol id="template-kitchen_sink" xmlns="http://www.w3.org/2000/svg" width="22.933" height="22.93" viewBox="929.691 129.559 22.933 22.93" preserveAspectRatio="none"><path d="M2713.24 580.509h22.68v-22.677h-22.68z" style="fill:none;stroke:#231f20;stroke-width:.506;stroke-linecap:butt;stroke-linejoin:round;stroke-miterlimit:10;stroke-dasharray:none;stroke-opacity:1" transform="translate(-1753.724 -421.942)scale(.9891)"></path><path d="M2732.5 578.477h-15.84c-1.04 0-1.89-.847-1.89-1.89v-15.118c0-1.044.85-1.89 1.89-1.89h15.84c1.04 0 1.89.846 1.89 1.89v15.118c0 1.043-.85 1.89-1.89 1.89" style="fill:#fff;fill-opacity:1;fill-rule:nonzero;stroke:#231f20;stroke-width:.506;stroke-linecap:butt;stroke-linejoin:miter;stroke-miterlimit:10;stroke-dasharray:none;stroke-opacity:1" transform="translate(-1753.724 -421.942)scale(.9891)"></path><path d="M2728 577.653h-10.53c-1.04 0-1.89-.847-1.89-1.89v-13.47c0-1.044.85-1.891 1.89-1.891H2728c1.04 0 1.89.847 1.89 1.891v13.47c0 1.043-.85 1.89-1.89 1.89" style="fill:#e6e7e8;fill-opacity:1;fill-rule:nonzero;stroke:#231f20;stroke-width:.5;stroke-linecap:butt;stroke-linejoin:miter;stroke-miterlimit:10;stroke-dasharray:none;stroke-opacity:1" transform="translate(-1753.724 -421.942)scale(.9891)"></path><path d="M2722.91 569.028a1.355 1.355 0 1 1-2.71-.002 1.355 1.355 0 0 1 2.71.002" style="fill:#fff;fill-opacity:1;fill-rule:nonzero;stroke:#231f20;stroke-width:.506;stroke-linecap:butt;stroke-linejoin:miter;stroke-miterlimit:10;stroke-dasharray:none;stroke-opacity:1" transform="translate(-1753.724 -421.942)scale(.9891)"></path><path d="M2733.05 560.65c-.48-.383-1.15-.304-1.51.12l-3.91 4.615c-.14.133-.13.365.02.517l.32.32c.16.149.39.163.52.025l4.62-3.91c.42-.36.5-1.03.11-1.511a.5.5 0 0 0-.08-.092q-.045-.045-.09-.084" style="fill:#fff;fill-opacity:1;fill-rule:nonzero;stroke:#231f20;stroke-width:.506;stroke-linecap:butt;stroke-linejoin:miter;stroke-miterlimit:10;stroke-dasharray:none;stroke-opacity:1" transform="translate(-1753.724 -421.942)scale(.9891)"></path><path d="M2731.32 565.374a.75.75 0 0 1-.55-.916l.74-2.989a.76.76 0 0 1 .92-.551c.4.1.65.512.55.917l-.74 2.987a.77.77 0 0 1-.92.552" style="fill:#fff;fill-opacity:1;fill-rule:nonzero;stroke:#231f20;stroke-width:.506;stroke-linecap:butt;stroke-linejoin:miter;stroke-miterlimit:10;stroke-dasharray:none;stroke-opacity:1" transform="translate(-1753.523 -422.198)scale(.9891)"></path><path d="M2730.91 566.469h2.56m-2.56 1.793h2.56m-2.56 1.794h2.56m-2.56 1.793h2.56m-2.56 1.795h2.56m-2.56 1.793h2.56" style="fill:none;stroke:#231f20;stroke-width:.506;stroke-linecap:butt;stroke-linejoin:round;stroke-miterlimit:10;stroke-dasharray:none;stroke-opacity:1" transform="translate(-1753.724 -421.942)scale(.9891)"></path><path d="M930.08 141.029V129.95h22.156v22.156H930.08zm19.53 9.243a2.12 2.12 0 0 0 1.288-1.29l.072-.203.008-7.826c.01-8.71.028-7.974-.21-8.455a1.97 1.97 0 0 0-1.174-1.003l-.28-.09h-16.312l-.235.073a2.07 2.07 0 0 0-1.398 1.442c-.052.19-.055.665-.055 7.97 0 7.414.003 7.774.057 7.965.125.44.384.832.717 1.082.25.188.392.26.68.347l.233.07 8.204-.006 8.203-.006z" style="fill:#fff;stroke:#000;stroke-width:.000625;stroke-dasharray:none"></path></symbol><symbol id="template-sink" xmlns="http://www.w3.org/2000/svg" width="22.874" height="19.143" viewBox="1041.881 392.96 22.874 19.143" preserveAspectRatio="none"><path d="M2825.43 821.233v12.315c0 2.341 2.01 4.469 5.15 5.441l.98.306c3.67 1.138 7.9 1.113 11.54-.075 3.06-.993 5.01-3.091 5.01-5.395v-12.592z" style="fill:#fff;fill-opacity:1;fill-rule:nonzero;stroke:#231f20;stroke-width:.506;stroke-linecap:round;stroke-linejoin:miter;stroke-miterlimit:10;stroke-dasharray:none;stroke-opacity:1" transform="translate(-1745.27 -416.97)scale(.98654)"></path><path d="M2827.42 825.651v7.576c0 1.822 1.66 3.478 4.24 4.236l.81.236c3.03.888 6.52.866 9.52-.056 2.52-.775 4.12-2.408 4.12-4.199v-7.793z" style="fill:#e6e7e8;fill-opacity:1;fill-rule:nonzero;stroke:#231f20;stroke-width:.5;stroke-linecap:butt;stroke-linejoin:miter;stroke-miterlimit:10;stroke-dasharray:none;stroke-opacity:1" transform="translate(-1745.27 -416.97)scale(.98654)"></path><path d="M2836.59 821.244c-.89.103-1.49.864-1.43 1.668l.72 8.72c0 .279.25.503.56.503h.65c.31 0 .56-.224.56-.503l.72-8.72c.07-.804-.54-1.565-1.42-1.668a1.6 1.6 0 0 0-.36 0" style="fill:#fff;fill-opacity:1;fill-rule:nonzero;stroke:#231f20;stroke-width:.506;stroke-linecap:butt;stroke-linejoin:miter;stroke-miterlimit:10;stroke-dasharray:none;stroke-opacity:1" transform="translate(-1745.27 -416.97)scale(.98654)"></path><path d="m2840.01 827.672-.58.348a.76.76 0 0 1-1.04-.257l-2.65-4.394a.76.76 0 0 1 .26-1.038l.58-.35a.76.76 0 0 1 1.04.258l2.64 4.396c.22.356.1.822-.25 1.037" style="fill:#fff;fill-opacity:1;fill-rule:nonzero;stroke:#231f20;stroke-width:.506;stroke-linecap:butt;stroke-linejoin:miter;stroke-miterlimit:10;stroke-dasharray:none;stroke-opacity:1" transform="translate(-1745.27 -416.97)scale(.98654)"></path><path d="M2837.9 835.215c0 .625-.51 1.132-1.13 1.132-.63 0-1.13-.507-1.13-1.132 0-.627.5-1.134 1.13-1.134.62 0 1.13.507 1.13 1.134" style="fill:#fff;fill-opacity:1;fill-rule:nonzero;stroke:#231f20;stroke-width:.506;stroke-linecap:butt;stroke-linejoin:miter;stroke-miterlimit:10;stroke-dasharray:none;stroke-opacity:1" transform="translate(-1745.27 -416.97)scale(.98654)"></path></symbol><symbol id="template-table_rectangle" xmlns="http://www.w3.org/2000/svg" width="149.986" height="76.493" viewBox="0 0 112.49 57.369" preserveAspectRatio="none"><g data-name="Слой 1" style="stroke-width:2.25001;stroke-dasharray:none">
		<path fill="#fff" d="M110.591 55.471H.352V.351h110.24z" style="stroke-width:2.25001;stroke-dasharray:none" transform="translate(.773 .774)"></path>
		<path fill="none" stroke="#231f20" stroke-linejoin="round" stroke-width=".703" d="M110.591 55.471H.352V.351h110.24z" style="stroke-width:2.25001;stroke-dasharray:none" transform="translate(.773 .774)"></path>
	</g></symbol><symbol id="template-table_square" xmlns="http://www.w3.org/2000/svg" width="35.163" height="35.163" viewBox="822.567 40.248 35.163 35.163" preserveAspectRatio="none"><path d="M149.271 464.987h-25.512v25.512h25.512z" style="fill:none;stroke:#231f20;stroke-width:1.1385;stroke-linecap:butt;stroke-linejoin:round;stroke-miterlimit:10;stroke-dasharray:none;stroke-opacity:1" transform="matrix(1.31942 0 0 -1.31942 660.028 688.173)"></path><path d="M823.506 57.83V41.188h33.284v33.285h-33.284z" style="fill:#fff;stroke:#000;stroke-width:.00188167;stroke-dasharray:none"></path></symbol><symbol id="template-television" xmlns="http://www.w3.org/2000/svg" width="45.212" height="15.474" viewBox="29.151 586.057 45.212 15.474" preserveAspectRatio="none"><path d="M1858.05 1029.45h-45.35v-15.12h45.35z" style="fill:#e6e7e8;fill-opacity:1;fill-rule:nonzero;stroke:#231f20;stroke-width:.609923;stroke-linecap:butt;stroke-linejoin:miter;stroke-miterlimit:10;stroke-dasharray:none;stroke-opacity:1" transform="translate(-1753.756 -411.47)scale(.98373)"></path><path d="M1840.81 1023.74c-.53.93-2.8 2.39-5.56 2.39-2.62 0-4.81-1.58-5.47-2.39" style="fill:#e6e7e8;fill-opacity:1;fill-rule:nonzero;stroke:#231f20;stroke-width:.609923;stroke-linecap:butt;stroke-linejoin:miter;stroke-miterlimit:10;stroke-dasharray:none;stroke-opacity:1" transform="translate(-1753.756 -411.47)scale(.98373)"></path><path d="M1829.78 1020.14c.53-.93 2.8-2.38 5.56-2.38 2.62 0 4.8 1.57 5.47 2.38" style="fill:#e6e7e8;fill-opacity:1;fill-rule:nonzero;stroke:#231f20;stroke-width:.609923;stroke-linecap:butt;stroke-linejoin:miter;stroke-miterlimit:10;stroke-dasharray:none;stroke-opacity:1" transform="translate(-1753.756 -411.47)scale(.98373)"></path><path d="M1854.47 1022.2h-38.29v-2.06h38.29z" style="fill:#fff;fill-opacity:1;fill-rule:nonzero;stroke:#231f20;stroke-width:.609923;stroke-linecap:butt;stroke-linejoin:miter;stroke-miterlimit:10;stroke-dasharray:none;stroke-opacity:1" transform="translate(-1753.756 -411.47)scale(.98373)"></path><path d="m1850.69 1022.2-3.32 1.54h-24.24l-3.32-1.54z" style="fill:#fff;fill-opacity:1;fill-rule:nonzero;stroke:#231f20;stroke-width:.609923;stroke-linecap:butt;stroke-linejoin:miter;stroke-miterlimit:10;stroke-dasharray:none;stroke-opacity:1" transform="translate(-1753.756 -411.47)scale(.98373)"></path></symbol><symbol id="template-toilet" xmlns="http://www.w3.org/2000/svg" width="15.364" height="24.651" viewBox="1038.291 477.958 15.364 24.651" preserveAspectRatio="none"><path d="M2821.9 910.679v12.589a7.97 7.97 0 0 0 1.03 3.945c.99 1.734 2.88 3.583 6.47 3.583s5.48-1.849 6.46-3.583a7.97 7.97 0 0 0 1.03-3.945v-12.589z" style="fill:#fff;fill-opacity:1;fill-rule:nonzero;stroke:#231f20;stroke-width:.506;stroke-linecap:butt;stroke-linejoin:miter;stroke-miterlimit:10;stroke-dasharray:none;stroke-opacity:1" transform="translate(-1735.978 -412.827)scale(.98323)"></path><path d="M2824.18 914.995c-.64 0-1.16.481-1.16 1.077v6.783c0 1.232.29 2.453.88 3.548.84 1.558 2.44 3.22 5.5 3.22 3.05 0 4.66-1.662 5.5-3.22.58-1.095.87-2.316.87-3.548v-6.783c0-.596-.52-1.077-1.16-1.077z" style="fill:#e6e7e8;fill-opacity:1;fill-rule:nonzero;stroke:#231f20;stroke-width:.5;stroke-linecap:butt;stroke-linejoin:miter;stroke-miterlimit:10;stroke-dasharray:none;stroke-opacity:1" transform="translate(-1735.978 -412.827)scale(.98323)"></path><path d="M2827.87 922.752c-.19 0-.34.141-.34.316v1.993c0 .363.08.722.25 1.044.25.456.72.946 1.62.946.89 0 1.37-.49 1.61-.946.18-.322.26-.681.26-1.044v-1.993c0-.175-.15-.316-.34-.316z" style="fill:#fff;fill-opacity:1;fill-rule:nonzero;stroke:#231f20;stroke-width:.506;stroke-linecap:butt;stroke-linejoin:miter;stroke-miterlimit:10;stroke-dasharray:none;stroke-opacity:1" transform="translate(-1735.978 -412.827)scale(.98323)"></path><path d="M2827.14 913.691c0 .322-.28.582-.63.582-.34 0-.62-.26-.62-.582 0-.323.28-.586.62-.586.35 0 .63.263.63.586" style="fill:#fff;fill-opacity:1;fill-rule:nonzero;stroke:#231f20;stroke-width:.506;stroke-linecap:butt;stroke-linejoin:miter;stroke-miterlimit:10;stroke-dasharray:none;stroke-opacity:1" transform="translate(-1735.978 -412.827)scale(.98323)"></path><path d="M2832.91 913.691c0 .322-.28.582-.63.582s-.63-.26-.63-.582c0-.323.28-.586.63-.586s.63.263.63.586" style="fill:#fff;fill-opacity:1;fill-rule:nonzero;stroke:#231f20;stroke-width:.506;stroke-linecap:butt;stroke-linejoin:miter;stroke-miterlimit:10;stroke-dasharray:none;stroke-opacity:1" transform="translate(-1735.978 -412.827)scale(.98323)"></path><path d="M2836.2 912.151h-13.61a.756.756 0 0 1-.75-.755v-4.411c0-.416.34-.754.75-.754h13.61c.42 0 .76.338.76.754v4.411c0 .416-.34.755-.76.755" style="fill:#fff;fill-opacity:1;fill-rule:nonzero;stroke:#231f20;stroke-width:.506;stroke-linecap:butt;stroke-linejoin:miter;stroke-miterlimit:10;stroke-dasharray:none;stroke-opacity:1" transform="translate(-1735.978 -412.827)scale(.98323)"></path><path d="M2830.53 909.189a1.135 1.135 0 1 1-2.269.001 1.135 1.135 0 0 1 2.269-.001" style="fill:#fff;fill-opacity:1;fill-rule:nonzero;stroke:#231f20;stroke-width:.506;stroke-linecap:butt;stroke-linejoin:miter;stroke-miterlimit:10;stroke-dasharray:none;stroke-opacity:1" transform="translate(-1735.978 -412.827)scale(.98323)"></path></symbol><symbol id="template-washing_machine" xmlns="http://www.w3.org/2000/svg" width="17.475" height="23.065" viewBox="1119.941 478.212 17.475 23.065" preserveAspectRatio="none"><path d="M2920.49 929.163h-17v-22.678h17z" style="fill:none;stroke:#231f20;stroke-width:.75;stroke-linecap:butt;stroke-linejoin:round;stroke-miterlimit:10;stroke-dasharray:none;stroke-opacity:1" transform="translate(-1738.147 -413.844)scale(.98449)"></path><path d="M2904.83 907.976c0-.253.35-.459.77-.459h12.78c.42 0 .77.206.77.459" style="fill:#e6e7e8;fill-opacity:1;fill-rule:nonzero;stroke:#231f20;stroke-width:.759;stroke-linecap:butt;stroke-linejoin:miter;stroke-miterlimit:10;stroke-dasharray:none;stroke-opacity:1" transform="translate(-1738.147 -413.844)scale(.98449)"></path><path d="M2919.53 917.76s-.4-2.747-3.39-2.747c-1.64 0-2.39.911-2.73 1.734-.35.836-.35 1.789.08 2.593.33.648 1.18 1.297 2.42 1.297 1.41 0 1.96-.754 2.18-1.401.19-.593.12-1.252-.21-1.781-.27-.439-.94-.878-1.74-.878-1.6 0-1.44 1.575-1.44 1.575s.01 1.053 1.05 1.053c.88 0 .8-.797.8-.797s-.06-.619-.62-.619m-11.48-2.39.87 4.277h5.63l.86-4.277" style="fill:none;stroke:#231f20;stroke-width:.759;stroke-linecap:round;stroke-linejoin:miter;stroke-miterlimit:10;stroke-dasharray:none;stroke-opacity:1" transform="translate(-1738.147 -413.844)scale(.98449)"></path><path d="m2911.62 916.641-.86-.525a.59.59 0 0 0-.61.003l-.56.342a.58.58 0 0 1-.59.01l-.64-.36a.56.56 0 0 0-.6.017l-.5.321a.58.58 0 0 1-.6.023l-.67-.365a.58.58 0 0 0-.61.028l-.74.506" style="fill:none;stroke:#231f20;stroke-width:.759;stroke-linecap:butt;stroke-linejoin:miter;stroke-miterlimit:10;stroke-dasharray:none;stroke-opacity:1" transform="translate(-1738.147 -413.844)scale(.98449)"></path><path d="M2905.54 920.637h5.19" style="fill:#fff;fill-opacity:1;fill-rule:nonzero;stroke:#231f20;stroke-width:.759;stroke-linecap:round;stroke-linejoin:miter;stroke-miterlimit:10;stroke-dasharray:none;stroke-opacity:1" transform="translate(-1738.147 -413.844)scale(.98449)"></path><path d="M1120.428 489.723v-11.015h16.452v22.03h-16.452zm12.945 2.82c.894-.236 1.466-.96 1.521-1.924.076-1.307-.818-2.236-2.157-2.243-.517-.003-.855.128-1.145.443-.355.385-.499 1.064-.343 1.623.07.25.337.574.58.7.252.13.817.122 1.053-.017.685-.4.474-1.543-.284-1.543-.31 0-.267.237.055.3.346.07.453.609.174.887-.135.135-.212.165-.428.165-.594 0-.9-.335-.9-.986q.001-.76.496-1.088c.208-.14.275-.151.768-.15.63.003.92.107 1.32.476.364.336.51.706.51 1.297 0 .407-.023.527-.154.797a2.04 2.04 0 0 1-.93.907c-.324.144-1.142.197-1.59.104-.77-.16-1.354-.584-1.658-1.205-.285-.584-.357-1.081-.24-1.67.23-1.164.935-1.96 1.957-2.205.392-.094 1.23-.093 1.634 0 1.085.255 1.94 1.099 2.255 2.23.082.293.113.338.23.338.12 0 .133-.022.115-.195-.052-.527-.493-1.343-.99-1.833-1.233-1.213-3.618-1.24-4.7-.054-.89.973-1.1 2.417-.52 3.568.318.629 1.018 1.148 1.75 1.296.17.034.361.074.423.088.181.04.876-.02 1.198-.106zm-5.163-3.018c.242-1.193.428-2.2.415-2.24-.013-.038-.075-.07-.136-.07-.12 0-.156.096-.286.75l-.066.326-.263-.152a8 8 0 0 1-.374-.228c-.218-.15-.536-.092-.987.178-.233.138-.458.252-.502.253-.043 0-.293-.117-.556-.26-.59-.322-.77-.32-1.303.027-.199.128-.4.233-.446.233s-.293-.114-.549-.253c-.606-.331-.792-.335-1.243-.03l-.33.226-.09-.44a6 6 0 0 0-.125-.534c-.045-.117-.2-.126-.244-.014-.017.045.167 1.06.41 2.254l.441 2.173 2.897-.015 2.897-.014zm7.655-9.555c0-.144-.303-.404-.55-.47-.16-.044-2.159-.057-6.784-.047l-6.554.015-.206.128a.7.7 0 0 0-.265.297l-.059.168 7.21-.002c6.497 0 7.208-.01 7.208-.09z" style="fill:#ececec;stroke:#000;stroke-width:.00169029;stroke-dasharray:none"></path><path d="M1122.204 491.314c-.03-.092-.537-2.625-.537-2.684s.554-.428.725-.483c.098-.03.256.024.63.218.633.33.757.33 1.296.006.23-.14.454-.253.496-.253s.285.113.54.252c.598.326.728.326 1.284 0 .238-.14.466-.253.507-.253.08 0 .39.157.721.367l.21.132-.218 1.089-.279 1.384-.06.296h-2.646c-2.067 0-2.65-.016-2.67-.07z" style="fill:#b3b3b3;stroke:#000;stroke-width:.00169029;stroke-dasharray:none"></path></symbol></defs><g id="flat-8" class="flat"><g class="room"><path class="floor" d=" M 25000,12500 L 25000,15500 L 21000,15500 L 21000,12500"></path><path class="wall" d=" M 24875,12540 L 25125,12460 L 25125,15650 L 24875,15350 M 24875,15350 L 25125,15650 L 20925,15650 L 21075,15350 M 21075,15350 L 20925,15650 L 20925,12460 L 21075,12540 M 21075,12540 L 20925,12460 L 25125,12460 L 24875,12540"></path><path class="wall-cutout floor" d=" M 21500,15650 L 21500,15350 L 22500,15350 L 22500,15650 M 23500,15650 L 23500,15350 L 24500,15350 L 24500,15650 M 21950,12540 L 21950,12460 L 22750,12460 L 22750,12540"></path><g><use href="#template-door" x="22350" y="12500" width="800" height="643.5074499058057" style="transform-origin: 22350px 12500px;
					rotate: 3.141592653589793rad;
					translate: 400px 40px;"></use><use href="#template-window" x="22000" y="15500" width="1000" height="300" style="transform-origin: 22000px 15500px;
					rotate: 0rad;
					translate: -500px -150px;"></use><use href="#template-window" x="24000" y="15500" width="1000" height="300" style="transform-origin: 24000px 15500px;
					rotate: 0rad;
					translate: -500px -150px;"></use><use href="#template-bed_double" x="25000" y="14300" width="2000" height="1618.2947716193892" style="transform-origin: 25000px 14300px;
					rotate: 1.5707963267948966rad;
					translate: -125px -1000px;"></use><use href="#template-kitchen_sink" x="21000" y="12900" width="700" height="699.908428901583" style="transform-origin: 21000px 12900px;
					rotate: -1.5707963267948966rad;
					translate: 75px 350px;"></use><use href="#template-cooking" x="21000" y="13600" width="700" height="718.5402467431628" style="transform-origin: 21000px 13600px;
					rotate: -1.5707963267948966rad;
					translate: 75px 350px;"></use><use href="#template-table_rectangle" x="21000" y="14700" width="1400" height="714.0013067886335" style="transform-origin: 21000px 14700px;
					rotate: -1.5707963267948966rad;
					translate: 75px 700px;"></use><use href="#template-toilet" x="24600" y="12500" width="600" height="962.6789898463941" style="transform-origin: 24600px 12500px;
					rotate: 3.141592653589793rad;
					translate: 300px -40px;"></use><use href="#template-washing_machine" x="23400" y="12500" width="600" height="791.931330472103" style="transform-origin: 23400px 12500px;
					rotate: 3.141592653589793rad;
					translate: 300px -40px;"></use></g><text class="area" x="23000" y="14000" font-size="200" text-anchor="middle">12 м²</text></g><g class="room"><path class="floor" d=" M 25000,9000 L 25000,12500 L 23000,12500 L 23000,9000"></path><path class="wall" d=" M 24875,9075 L 25125,8925 L 25125,12540 L 24875,12460 M 24875,12460 L 25125,12540 L 22960,12540 L 23040,12460 M 23040,12460 L 22960,12540 L 22960,8925 L 23040,9075 M 23040,9075 L 22960,8925 L 25125,8925 L 24875,9075"></path><path class="wall-cutout floor" d=" M 23040,11400 L 22960,11400 L 22960,10600 L 23040,10600"></path><g><use href="#template-door" x="23000" y="11000" width="800" height="643.5074499058057" style="transform-origin: 23000px 11000px;
					rotate: 1.5707963267948966rad;
					translate: 40px -400px;"></use><use href="#template-sink" x="25000" y="10250" width="800" height="669.5112354638454" style="transform-origin: 25000px 10250px;
					rotate: 1.5707963267948966rad;
					translate: -125px -400px;"></use><use href="#template-toilet" x="24600" y="12500" width="600" height="962.6789898463941" style="transform-origin: 24600px 12500px;
					rotate: 3.141592653589793rad;
					translate: 300px -40px;"></use><use href="#template-washing_machine" x="23400" y="12500" width="600" height="791.931330472103" style="transform-origin: 23400px 12500px;
					rotate: 3.141592653589793rad;
					translate: 300px -40px;"></use><use href="#template-bath" x="23950" y="9000" width="1900" height="713.0961441919969" style="transform-origin: 23950px 9000px;
					rotate: 0rad;
					translate: -950px 75px;"></use></g><text class="area" x="24000" y="10750" font-size="200" text-anchor="middle">7 м²</text></g><g class="room"><path class="floor" d=" M 23000,9000 L 21000,9000 L 21000,12500 L 23000,12500"></path><path class="wall" d=" M 23040,8925 L 22960,9075 L 21075,9075 L 20925,8925 M 20925,8925 L 21075,9075 L 21075,12460 L 20925,12540 M 20925,12540 L 21075,12460 L 22960,12460 L 23040,12540 M 23040,12540 L 22960,12460 L 22960,9075 L 23040,8925"></path><path class="wall-cutout floor" d=" M 22650,8925 L 22650,9075 L 21850,9075 L 21850,8925 M 21950,12540 L 21950,12460 L 22750,12460 L 22750,12540 M 23040,11400 L 22960,11400 L 22960,10600 L 23040,10600"></path><g><use href="#template-door" x="22250" y="9000" width="800" height="643.5074499058057" style="transform-origin: 22250px 9000px;
					rotate: 3.141592653589793rad;
					translate: 400px 75px;"></use><use href="#template-door" x="22350" y="12500" width="800" height="643.5074499058057" style="transform-origin: 22350px 12500px;
					rotate: 3.141592653589793rad;
					translate: 400px 40px;"></use><use href="#template-door" x="23000" y="11000" width="800" height="643.5074499058057" style="transform-origin: 23000px 11000px;
					rotate: 1.5707963267948966rad;
					translate: 40px -400px;"></use></g><text class="area" x="22000" y="10750" font-size="200" text-anchor="middle">7 м²</text></g></g><style>use { transform-origin: center }
		.wall {
			fill: #444444;
		}

		.floor {
			fill: #ffefef;
		}
	</style></svg>