<svg xmlns="http://www.w3.org/2000/svg" width="503" height="208" fill="none" viewBox="0 0 503 208"><path fill="#fff" d="M1.46 2.053h499.279v204.3H1.459z"/><path fill="#1d2132" d="M378.989 143.765a1.36 1.36 0 0 1-1.365-1.355 1.36 1.36 0 0 1 1.365-1.355 1.36 1.36 0 0 1 1.365 1.355 1.36 1.36 0 0 1-1.365 1.355M19.47 173.844a1.353 1.353 0 0 1-1.36 1.349 1.353 1.353 0 0 1-1.36-1.349V35.112c0-.748.606-1.35 1.36-1.35.753 0 1.36.602 1.36 1.35zM34.774 17.505H398.1a1.35 1.35 0 0 1 1.359 1.35 1.35 1.35 0 0 1-1.359 1.35H34.774c-.754 0-1.386-.602-1.386-1.35s.633-1.35 1.386-1.35m0 171.244H398.1a1.35 1.35 0 0 1 1.359 1.349 1.35 1.35 0 0 1-1.359 1.349H34.774c-.754 0-1.386-.601-1.386-1.349s.633-1.349 1.386-1.349M1.458.977H500.74c.754 0 1.36.601 1.36 1.35a1.35 1.35 0 0 1-1.36 1.349H1.459c-.754 0-1.36-.602-1.36-1.35 0-.747.606-1.348 1.36-1.349m-.001 204.3H500.74c.754 0 1.36.601 1.36 1.349 0 .749-.606 1.35-1.36 1.35H1.459a1.35 1.35 0 0 1-1.36-1.35 1.35 1.35 0 0 1 1.36-1.349m105.988 114.514 2.08-.265c4.709-1.077 8.156-5.325 8.05-10.293-.151-5.665-4.902-10.166-10.61-10.055-5.718.144-10.277 4.882-10.156 10.558.072 5.623 4.712 10.127 10.37 10.055zm-2.852 2.461c-5.927-1.127-10.397-6.267-10.477-12.49-.142-7.158 5.555-13.1 12.769-13.283 7.221-.151 13.227 5.534 13.409 12.701l-.213 2.62c-1.086 5.944-6.237 10.531-12.582 10.69h-.294zm1.103-210.74c4.077-.142 7.26-3.493 7.145-7.541a7.36 7.36 0 0 0-7.598-7.092c-4.081.138-7.26 3.516-7.144 7.568.12 3.943 3.374 7.062 7.357 7.065zm-.24 2.725c-5.45-.002-9.94-4.292-10.103-9.711-.158-5.538 4.203-10.155 9.784-10.346 5.594-.188 10.234 4.177 10.423 9.711l-.133 2.038c-.806 4.594-4.767 8.144-9.651 8.308zm234.219 46.339c31.211 0 56.514-25.117 56.515-56.096 0-30.981-25.303-56.097-56.515-56.097a1.353 1.353 0 0 1-1.359-1.35c0-.746.607-1.347 1.359-1.349 32.72 0 59.235 26.319 59.235 58.796-.002 32.475-26.516 58.795-59.235 58.795a1.36 1.36 0 0 1-1.359-1.35c0-.747.607-1.348 1.359-1.349m-284.436-.283h.267c.752 0 1.356.604 1.36 1.35a1.35 1.35 0 0 1-1.36 1.349h-.267c-5.285 0-9.57-4.227-9.57-9.473 0-.748.632-1.349 1.386-1.349a1.36 1.36 0 0 1 1.36 1.349c0 3.75 3.047 6.774 6.824 6.774m.267-114.609c.753 0 1.36.602 1.36 1.35a1.35 1.35 0 0 1-1.36 1.35c-3.826 0-6.977 3.038-7.091 6.826-.027.745-.662 1.32-1.413 1.297-.75-.023-1.35-.633-1.333-1.376.159-5.262 4.545-9.447 9.837-9.447m446.591 160.944a1.35 1.35 0 0 1-1.36 1.349 1.35 1.35 0 0 1-1.359-1.349V2.327c0-.749.605-1.35 1.359-1.35s1.36.601 1.36 1.35zm-499.281 0c0 .747-.606 1.349-1.36 1.349a1.35 1.35 0 0 1-1.36-1.349V2.327c0-.749.606-1.35 1.36-1.35s1.36.601 1.36 1.35zm52.686-46.059H339.68c.754 0 1.36.602 1.36 1.35a1.35 1.35 0 0 1-1.36 1.349H55.504a1.354 1.354 0 0 1-1.36-1.349c0-.747.608-1.347 1.36-1.35m-7.097-7.047a1.354 1.354 0 0 1-1.36 1.35 1.354 1.354 0 0 1-1.36-1.35V55.434c0-.749.606-1.35 1.36-1.35s1.36.601 1.36 1.35zm7.097-107.838H339.68c.754 0 1.36.602 1.36 1.35s-.606 1.35-1.36 1.35H55.504a1.354 1.354 0 0 1-1.36-1.35c0-.747.608-1.347 1.36-1.35m51.321 73.963a1.35 1.35 0 0 1-1.36 1.349 1.35 1.35 0 0 1-1.359-1.349v-10.293c0-.749.605-1.35 1.359-1.35s1.36.601 1.36 1.35zm-16.652-16.52h10.104a1.35 1.35 0 1 1 0 2.699H90.173a1.353 1.353 0 0 1-1.36-1.349c0-.748.608-1.348 1.36-1.35m16.652-3.796a1.354 1.354 0 0 1-1.36 1.35 1.353 1.353 0 0 1-1.359-1.35V89.303c0-.748.605-1.35 1.359-1.35s1.36.602 1.36 1.35zm3.822 3.796h10.103c.754 0 1.36.601 1.36 1.35a1.35 1.35 0 0 1-1.36 1.349h-10.103a1.353 1.353 0 0 1-1.36-1.349c0-.748.607-1.348 1.36-1.35m287.448 85.604c46.88 0 84.904-37.719 84.906-84.25 0-46.534-38.025-84.277-84.906-84.277a1.354 1.354 0 0 1-1.359-1.35c0-.746.607-1.346 1.359-1.349 48.389 0 87.626 38.946 87.626 86.976-.003 48.028-39.238 86.975-87.626 86.975a1.36 1.36 0 0 1-1.359-1.349c0-.747.607-1.374 1.359-1.376M36.124 18.878a1.35 1.35 0 0 1-1.387 1.323c-8.274-.147-15.095 6.437-15.248 14.66v.264c-.007.742-.637 1.35-1.386 1.35a1.37 1.37 0 0 1-1.36-1.35v-.317C16.925 25.1 25 17.326 34.791 17.502a1.353 1.353 0 0 1 1.333 1.376m-1.626 169.86h.266c.75 0 1.354.606 1.36 1.35 0 .748-.606 1.376-1.36 1.376h-.266c-9.79 0-17.755-7.906-17.755-17.623 0-.745.61-1.344 1.36-1.349.754 0 1.386.601 1.386 1.349 0 8.22 6.727 14.897 15.009 14.897"/></svg>