<svg xmlns="http://www.w3.org/2000/svg" width="263" height="211" fill="none" viewBox="0 0 263 211"><path fill="#fff" d="M2.08 114.897v25.07l4.174 8.357 4.175 8.357 4.175 4.178 4.174 8.357 8.35 4.178 8.35 8.357 8.349 4.179 8.35 4.178 8.349 4.178 12.524 4.179 8.35 4.178h8.349l12.524 4.179h20.874l8.349 4.178 8.35-4.178h20.873l8.35-4.179h12.524l8.349-4.178 8.35-4.179 12.524-4.178 8.349-4.178 8.35-4.179 8.349-8.357 4.175-4.178 8.349-8.357 4.175-4.178 4.175-8.357v-8.357l4.175-8.356V2.081H2.079z"/><path fill="#1d2132" d="M137.742 94.014c0-1.41-.725-3.011-1.998-4.285-1.268-1.263-2.838-1.996-4.24-2-1.409 0-3.008.727-4.281 2s-1.997 2.875-1.997 4.285c.002 1.403.735 2.974 1.997 4.243 1.273 1.274 2.872 2 4.281 2 1.406-.003 2.97-.728 4.24-2 1.27-1.27 1.995-2.836 1.998-4.243m4.199 0c-.003 2.765-1.364 5.364-3.221 7.222s-4.453 3.221-7.216 3.224c-2.762 0-5.358-1.368-7.216-3.224-1.857-1.858-3.218-4.457-3.221-7.222 0-2.769 1.362-5.363 3.221-7.223s4.45-3.223 7.216-3.223c2.763.002 5.359 1.365 7.216 3.223 1.854 1.86 3.221 4.458 3.221 7.223m100.201 29.226v-2.081h4.158v2.081c0 8.526-1.044 15.101-3.261 20.648-2.223 5.562-5.56 9.971-9.866 14.281-17.115 17.13-42.716 25.595-67.636 33.909l-1.957.693-1.345-3.998 1.998-.653c25.176-8.4 49.682-16.633 65.964-32.93 4.039-4.043 6.977-7.977 8.928-12.853 1.958-4.9 3.017-10.909 3.017-19.097m-213.71 31.828c20.75 16.613 41.304 28.877 65.841 32.97l2.039.367-.693 4.122-2.039-.368c-25.552-4.262-46.766-17.02-67.758-33.827l-1.63-1.305 2.609-3.265zM146.09 94.024c0-3.499-1.769-7.197-4.607-10.038-2.837-2.833-6.498-4.61-9.989-4.61s-7.152 1.777-9.988 4.61c-2.838 2.84-4.607 6.54-4.607 10.038.006 3.494 1.773 7.161 4.607 9.997 2.837 2.836 6.496 4.611 9.988 4.611 3.493 0 7.152-1.775 9.989-4.611 2.833-2.836 4.601-6.503 4.607-9.997m4.199 0c-.006 4.847-2.416 9.513-5.83 12.935-3.424 3.427-8.111 5.835-12.965 5.835s-9.54-2.408-12.964-5.835c-3.414-3.422-5.825-8.088-5.83-12.935 0-4.854 2.41-9.55 5.83-12.976 3.424-3.427 8.111-5.835 12.964-5.835 4.854 0 9.541 2.408 12.965 5.835 3.42 3.427 5.83 8.122 5.83 12.976m238.824 173.41-1.468 1.469c-2.265 2.267-5.612 4.479-8.683 6.529-3.19 2.128-6.123 4.088-8.032 5.998l-.244.245-.286.163c-25.224 12.623-50.619 21.096-80.274 21.096h-2.079v-4.162h2.079c28.749 0 53.441-8.231 78.276-20.647 2.244-2.13 5.341-4.231 8.236-6.162 3.19-2.129 6.122-4.128 8.031-6.039l1.468-1.469zm-67.106 18.036-1.997.652c-12.892 4.299-25.767 4.285-38.241 4.285-12.467 0-25.317.01-38.2-4.285l-1.999-.652 1.305-3.999 1.998.693c12.146 4.052 24.332 4.04 36.896 4.04 12.571 0 24.783.015 36.936-4.04l1.957-.693zM0 119.058v-6.243h4.158v6.243c0 17.832 6.232 35.557 18.55 47.782l5.667 4.897.245.163c1.909 1.911 4.84 3.91 8.031 6.039 3.066 2.046 6.382 4.266 8.643 6.529l1.468 1.469-2.935 2.938-1.468-1.469c-1.907-1.909-4.845-3.872-8.032-5.998-3.071-2.05-6.418-4.262-8.683-6.529v-.041C8.484 161.808 0 140.354 0 119.058m16.675 4.203v-6.284h4.199v6.284c.002 12.118 4.037 24.075 11.904 31.95l1.468 1.469-2.936 2.938-1.467-1.469c-8.828-8.835-13.167-21.941-13.169-34.888m237.984 12.522c-.001-37.14-12.376-74.24-37.059-103.072l-.489-.572-2.12 2.163-1.467-1.51c-2.113-2.114-4.09-4.09-6.034-5.55-1.964-1.473-3.61-2.16-5.015-2.162h-2.079v-.938c-22.888-3.238-45.808-3.265-68.899-3.265-25.076 0-49.961.017-74.811 4.162l-.326.041c-1.404 0-3.052.69-5.015 2.163-1.942 1.457-3.924 3.437-6.034 5.55C20.678 61.611 8.335 98.68 8.333 135.782v2.081H4.174v-2.081c.002-38.056 12.68-76.148 38.079-105.806l.081-.123c2.059-2.06 4.255-4.284 6.482-5.957 2.112-1.585 4.547-2.867 7.176-2.979l9.499-1.387c22.077-2.819 44.117-2.816 66.005-2.816 25.02 0 50.257-.009 75.504 4.203l2.038.326-.326 1.877c.414.271.87.48 1.264.776 2.227 1.672 4.423 3.897 6.482 5.957l.53.53 2.405-1.999 1.346 1.592c25.399 29.658 38.076 67.75 38.078 105.806v6.284h-4.159zM131.496 62.661c12.624 0 25.229 1.078 37.222 2.122 12.033 1.047 23.43 2.08 33.756 2.08h2.079v4.163h-2.079c-10.547 0-22.152-1.04-34.123-2.081-12.006-1.045-24.439-2.081-36.855-2.081-25.076 0-49.961-.024-74.811 4.121l-2.039.367-.693-4.12 2.039-.368c25.246-4.212 50.483-4.203 75.504-4.203M44.764 184.07c24.644 12.331 49.319 16.48 78.44 20.647h18.712v4.203h-19.079v-.041c-29.213-4.177-54.57-8.396-79.948-21.096l-1.876-.939 1.876-3.713zm214.078-65.002V4.162H4.158v112.825H0V0h263v119.068c0 25.512-8.512 47.143-25.888 60.187l-1.672 1.224-2.487-3.305 1.672-1.265c16.018-12.028 24.217-32.215 24.217-56.841M139.837 45.946c16.03 0 31.981 4.83 46.028 10.772l13.372 6.162.123.081 7.787 5.183c17.655 13.001 31.617 32.103 39.056 54.433l.653 1.999-3.955 1.306-.652-1.958c-8.2-24.62-24.623-45.105-45.05-57.372h-.041c-16.594-8.288-37.027-16.403-57.321-16.403h-16.674c-20.313 0-40.73 8.088-61.602 16.444-20.381 16.41-32.68 36.901-45.172 57.739l-1.06 1.795-3.588-2.163 1.06-1.795c12.503-20.856 25.229-42.063 46.436-59.044l.245-.204.285-.123c20.778-8.318 42.053-16.852 63.396-16.852zM129.4 100.257h4.2v20.892h-4.2zm-4.158-8.324v4.162h-16.715v-4.162zm29.231 0v4.162h-16.715v-4.162zM129.4 66.838h4.2V87.73h-4.2z"/></svg>