<svg xmlns="http://www.w3.org/2000/svg" width="61.751" height="23.176" viewBox="820.571 366.88 61.751 23.176"><path d="M869.85 367.255h-44.13c-.84 0-1.52.632-1.52 1.411v19.607c0 .778.68 1.408 1.52 1.408h44.13c3.01 0 5.91-1.039 8.14-2.912 5.29-4.45 5.29-12.151 0-16.599-2.23-1.876-5.13-2.915-8.14-2.915" style="fill:#e6e7e8;fill-opacity:1;fill-rule:nonzero;stroke:#231f20;stroke-width:.75;stroke-linecap:butt;stroke-linejoin:miter;stroke-miterlimit:10;stroke-dasharray:none;stroke-opacity:1"/><path d="M834.05 378.469a1.355 1.355 0 1 1-2.71-.003 1.355 1.355 0 0 1 2.71.003M820.96 373.49v8.003h.43s.66.205.9-.262c.29-.564.37-3.741.37-3.741s-.08-3.175-.37-3.74c-.24-.467-.9-.26-.9-.26z" style="fill:#fff;fill-opacity:1;fill-rule:nonzero;stroke:#231f20;stroke-width:.759;stroke-linecap:butt;stroke-linejoin:miter;stroke-miterlimit:10;stroke-dasharray:none;stroke-opacity:1"/><path d="M820.96 377.63c.09.693.68 1.167 1.31 1.117l6.83-.564c.22 0 .39-.194.39-.436v-.513c0-.243-.17-.435-.39-.435l-6.83-.565c-.63-.051-1.22.423-1.31 1.116v.28" style="fill:#fff;fill-opacity:1;fill-rule:nonzero;stroke:#231f20;stroke-width:.759;stroke-linecap:butt;stroke-linejoin:miter;stroke-miterlimit:10;stroke-dasharray:none;stroke-opacity:1"/><path d="m825.86 375.225.13.2c.21.357.09.824-.26 1.037l-2.74 1.652a.76.76 0 0 1-1.04-.256l-.12-.204a.756.756 0 0 1 .25-1.036l2.75-1.651c.35-.214.82-.1 1.03.258M823.9 381.959a2.34 2.34 0 0 0 2.34 2.336c1.29 0 2.34-1.045 2.34-2.336a2.34 2.34 0 0 0-4.68 0" style="fill:#fff;fill-opacity:1;fill-rule:nonzero;stroke:#231f20;stroke-width:.759;stroke-linecap:butt;stroke-linejoin:miter;stroke-miterlimit:10;stroke-dasharray:none;stroke-opacity:1"/><path d="M826.23 381.347h-5.28v1.223h5.28s.65-.023.65-.611-.65-.612-.65-.612" style="fill:#fff;fill-opacity:1;fill-rule:nonzero;stroke:#231f20;stroke-width:.759;stroke-linecap:butt;stroke-linejoin:miter;stroke-miterlimit:10;stroke-dasharray:none;stroke-opacity:1"/></svg>