<svg width="7" height="6" viewBox="0 0 7 6" fill="none" xmlns="http://www.w3.org/2000/svg">
<path d="M0.699982 2.98064V3.58064L0.79998 3.78064L0.899986 3.98064L0.999985 4.08064L1.09998 4.28064L1.29998 4.38064L1.49998 4.58064L1.69998 4.68064L1.89999 4.78064L2.09998 4.88064L2.39999 4.98064L2.59998 5.08064H2.79998L3.09998 5.18064H3.59998L3.79998 5.28064L3.99998 5.18064H4.49998L4.69998 5.08064H4.99998L5.19998 4.98064L5.39999 4.88064L5.69998 4.78064L5.89999 4.68064L6.09998 4.58064L6.29998 4.38064L6.39999 4.28064L6.59998 4.08064L6.69998 3.98064L6.79998 3.78064V3.58064L6.89999 3.38064V0.28064H0.699982V2.98064Z" fill="white"/>
<path d="M1.72246 4.62146C2.31277 4.91658 2.90381 5.01587 3.60136 5.1156H4.04961V5.21619H3.59258V5.21521C2.89284 5.11524 2.28545 5.01428 1.67754 4.71033L1.63261 4.68787L1.67754 4.599L1.72246 4.62146ZM6.85039 3.0658V0.315796H0.749802V3.01599H0.650192V0.216187H6.95V3.0658C6.95 3.67637 6.7461 4.19406 6.32988 4.50623L6.28984 4.53552L6.23027 4.45642L6.27031 4.42615C6.65401 4.1383 6.85039 3.65516 6.85039 3.0658ZM3.9998 1.3158C4.38378 1.3158 4.76585 1.4314 5.10234 1.57361L5.42265 1.72107L5.42558 1.72302L5.61211 1.84705C6.03502 2.15821 6.36945 2.61537 6.54765 3.14978L6.56328 3.19763L6.46855 3.22888L6.45293 3.18201C6.25652 2.5928 5.86312 2.10254 5.37383 1.80896H5.37285C4.97536 1.61059 4.48592 1.41638 3.9998 1.41638H3.60039C3.11382 1.41638 2.62477 1.60996 2.1248 1.80994C1.63659 2.20268 1.34199 2.69307 1.04277 3.19177L1.01738 3.23474L0.931442 3.18298L0.956833 3.14001C1.25631 2.64088 1.56114 2.13333 2.06914 1.72693L2.075 1.72205L2.08183 1.71912C2.57954 1.52003 3.08914 1.3158 3.60039 1.3158H3.9998ZM3.7498 2.6156H3.85039V3.1156H3.7498V2.6156ZM3.65019 2.41638V2.51599H3.2498V2.41638H3.65019ZM4.35039 2.41638V2.51599H3.95V2.41638H4.35039ZM3.7498 1.8158H3.85039V2.3158H3.7498V1.8158Z" fill="#1D2132"/>
<path d="M6.75018 3.46582C6.75014 2.57694 6.45371 1.68905 5.86249 0.999023L5.85077 0.985352L5.79999 1.03711L5.76483 1.00098C5.71423 0.950371 5.66686 0.903091 5.6203 0.868164C5.57326 0.832885 5.53382 0.816471 5.50018 0.816406H5.45038V0.793945C4.90212 0.716462 4.35311 0.71582 3.79999 0.71582C3.19933 0.71582 2.60325 0.716221 2.008 0.81543L2.00018 0.816406C1.96655 0.816406 1.9271 0.832928 1.88007 0.868164C1.83355 0.903048 1.78608 0.950434 1.73553 1.00098C1.1455 1.6907 0.849836 2.57784 0.849792 3.46582V3.51562H0.750183V3.46582C0.750227 2.55504 1.05389 1.6434 1.66229 0.933594L1.66425 0.930664C1.71356 0.881347 1.76615 0.828126 1.81952 0.788086C1.87009 0.750157 1.92843 0.719483 1.99139 0.716797L2.21893 0.683594C2.74776 0.616142 3.27569 0.616211 3.79999 0.616211C4.39933 0.616211 5.00383 0.616005 5.60858 0.716797L5.65741 0.724609L5.6496 0.769531C5.65952 0.776015 5.67044 0.781018 5.67987 0.788086C5.73323 0.828108 5.78583 0.881346 5.83514 0.930664L5.84784 0.943359L5.90546 0.895508L5.93768 0.933594C6.54609 1.6434 6.84975 2.55504 6.84979 3.46582V3.61621H6.75018V3.46582ZM3.79999 1.71582C4.10238 1.71582 4.40431 1.74162 4.69159 1.7666C4.97984 1.79167 5.25283 1.81641 5.50018 1.81641H5.54999V1.91602H5.50018C5.24754 1.91602 4.96955 1.89115 4.6828 1.86621C4.39523 1.84121 4.09741 1.81641 3.79999 1.81641C3.19933 1.81641 2.60325 1.81583 2.008 1.91504L1.95917 1.92383L1.94257 1.8252L1.99139 1.81641C2.59614 1.71561 3.20065 1.71582 3.79999 1.71582Z" fill="#1D2132"/>
<path d="M6.3709 4.36633L6.33574 4.40149C6.28147 4.45576 6.2013 4.50869 6.12773 4.55774C6.05134 4.60867 5.98106 4.65558 5.93535 4.70129L5.92949 4.70715L5.92265 4.71106C5.31845 5.01316 4.71014 5.21594 3.9998 5.21594H3.95V5.11633H3.9998C4.68844 5.11633 5.2799 4.91935 5.8748 4.62219C5.92855 4.57121 6.00274 4.52095 6.07207 4.47473C6.1485 4.42378 6.21872 4.37593 6.26445 4.3302L6.29961 4.29504L6.3709 4.36633ZM4.76347 4.79797L4.71562 4.8136C4.40682 4.91648 4.0984 4.91614 3.79961 4.91614C3.50099 4.91614 3.19318 4.91638 2.88457 4.8136L2.83672 4.79797L2.86797 4.70227L2.91582 4.71887C3.20677 4.81583 3.49866 4.81555 3.79961 4.81555C4.10073 4.81555 4.39325 4.81591 4.68437 4.71887L4.73125 4.70227L4.76347 4.79797ZM0.650192 3.06555V2.91614H0.749802V3.06555C0.749802 3.49231 0.899074 3.91653 1.19414 4.20911L1.32988 4.32629L1.33574 4.3302C1.38147 4.37593 1.45169 4.42378 1.52812 4.47473C1.60157 4.52369 1.681 4.57682 1.73515 4.63098L1.77031 4.66614L1.7 4.73645L1.66484 4.70129C1.61915 4.65561 1.5488 4.60863 1.47246 4.55774C1.39889 4.50869 1.31872 4.45576 1.26445 4.40149V4.40051C0.8534 4.08866 0.650192 3.57522 0.650192 3.06555ZM1.04961 3.16614V3.01575H1.15019V3.16614C1.15024 3.45615 1.24689 3.74233 1.43535 3.93079L1.4705 3.96594L1.40019 4.03625L1.36504 4.0011C1.15358 3.78964 1.04965 3.476 1.04961 3.16614Z" fill="#1D2132"/>
<path d="M6.45038 3.16565V3.11584H6.54999V3.16565C6.54999 3.36969 6.52496 3.52706 6.47186 3.65979C6.41861 3.79293 6.33868 3.89844 6.23553 4.00159C5.82556 4.41156 5.21234 4.61414 4.61542 4.81311L4.56854 4.82971L4.53632 4.73401L4.58417 4.71838C5.18723 4.51736 5.77423 4.32032 6.16425 3.9303C6.26101 3.83354 6.33137 3.73939 6.37811 3.62268C6.42502 3.50541 6.45038 3.36161 6.45038 3.16565ZM1.33124 3.92737C1.82827 4.32497 2.32062 4.61847 2.90839 4.71643L2.95721 4.72522L2.94061 4.82385L2.89178 4.81506C2.27972 4.71304 1.77157 4.40773 1.26874 4.00549L1.22968 3.97424L1.29218 3.89612L1.33124 3.92737ZM4.1496 2.46643C4.1496 2.38269 4.10723 2.29418 4.03925 2.2262C3.9713 2.15839 3.88361 2.11584 3.79999 2.11584C3.71637 2.11584 3.62867 2.15838 3.56073 2.2262C3.49275 2.29418 3.45038 2.38269 3.45038 2.46643C3.45051 2.55005 3.49285 2.63781 3.56073 2.70569C3.62868 2.77356 3.71633 2.81604 3.79999 2.81604C3.88365 2.81604 3.97129 2.77356 4.03925 2.70569C4.10712 2.63781 4.14947 2.55005 4.1496 2.46643ZM4.25018 2.46643C4.25005 2.58241 4.19231 2.6941 4.11053 2.776C4.02852 2.85802 3.91625 2.91565 3.79999 2.91565C3.68373 2.91565 3.57146 2.85802 3.48944 2.776C3.40767 2.6941 3.34992 2.58241 3.34979 2.46643C3.34979 2.35026 3.40753 2.23788 3.48944 2.15588C3.57146 2.07387 3.68373 2.01624 3.79999 2.01624C3.91625 2.01624 4.02852 2.07387 4.11053 2.15588C4.19245 2.23788 4.25018 2.35026 4.25018 2.46643Z" fill="#1D2132"/>
<path d="M3.9496 2.46619C3.9496 2.43245 3.93223 2.39413 3.90175 2.36365C3.87137 2.33341 3.83377 2.31586 3.80019 2.3158C3.76645 2.3158 3.72813 2.33317 3.69765 2.36365C3.66717 2.39413 3.6498 2.43245 3.6498 2.46619C3.64986 2.49977 3.66741 2.53738 3.69765 2.56775C3.72813 2.59823 3.76645 2.6156 3.80019 2.6156C3.83387 2.61553 3.87132 2.59817 3.90175 2.56775C3.93217 2.53732 3.94953 2.49988 3.9496 2.46619ZM4.05019 2.46619C4.05012 2.53238 4.01751 2.59456 3.97304 2.63904C3.92856 2.68351 3.86637 2.71612 3.80019 2.71619C3.73402 2.71619 3.67184 2.68346 3.62733 2.63904C3.58286 2.59456 3.55025 2.53237 3.55019 2.46619C3.55019 2.39993 3.58282 2.33785 3.62733 2.29333C3.67185 2.24882 3.73392 2.21619 3.80019 2.21619C3.86637 2.21625 3.92856 2.24886 3.97304 2.29333C4.01746 2.33784 4.05019 2.40002 4.05019 2.46619Z" fill="#1D2132"/>
</svg>
