<?xml version="1.0" encoding="utf-8"?>
<svg xmlns="http://www.w3.org/2000/svg" viewBox="206.9665 183.8457 18.29 7.54" width="18.29px" height="7.54px"><g transform="matrix(0, 1, -1, 0, 209.06149817, 141.54069757)" style="transform-origin: 7.04999px 46.075px;" id="object-0"><line style="fill:none;stroke:#1D2132;stroke-width:0.1;stroke-linecap:round;stroke-linejoin:round;" x1="8.45" y1="41.39" x2="8.45" y2="41.39"/><polyline style="fill:#FFFFFF;" points="3.28,55.22 3.28,36.93 10.82,36.93 10.82,55.22 3.28,55.22 "/><line style="fill:none;stroke:#1D2132;stroke-width:0.1;stroke-linecap:round;stroke-linejoin:round;" x1="9.61" y1="54.61" x2="4.49" y2="54.61"/><line style="fill:none;stroke:#1D2132;stroke-width:0.1;stroke-linecap:round;stroke-linejoin:round;" x1="3.89" y1="54" x2="3.89" y2="40.69"/><line style="fill:none;stroke:#1D2132;stroke-width:0.1;stroke-linecap:round;stroke-linejoin:round;" x1="10.21" y1="54" x2="10.21" y2="40.69"/><line style="fill:none;stroke:#1D2132;stroke-width:0.1;stroke-linecap:round;stroke-linejoin:round;" x1="3.28" y1="36.93" x2="3.28" y2="55.22"/><line style="fill:none;stroke:#1D2132;stroke-width:0.1;stroke-linecap:round;stroke-linejoin:round;" x1="10.82" y1="36.93" x2="10.82" y2="55.22"/><line style="fill:none;stroke:#1D2132;stroke-width:0.1;stroke-linecap:round;stroke-linejoin:round;" x1="10.82" y1="36.93" x2="3.28" y2="36.93"/><line style="fill:none;stroke:#1D2132;stroke-width:0.1;stroke-linecap:round;stroke-linejoin:round;" x1="10.82" y1="55.22" x2="3.28" y2="55.22"/><line style="fill:none;stroke:#1D2132;stroke-width:0.1;stroke-linecap:round;stroke-linejoin:round;" x1="9.17" y1="42.83" x2="9.17" y2="53.24"/><line style="fill:none;stroke:#1D2132;stroke-width:0.1;stroke-linecap:round;stroke-linejoin:round;" x1="8.86" y1="53.55" x2="5.24" y2="53.55"/><line style="fill:none;stroke:#1D2132;stroke-width:0.1;stroke-linecap:round;stroke-linejoin:round;" x1="4.93" y1="42.83" x2="4.93" y2="53.24"/><line style="fill:none;stroke:#1D2132;stroke-width:0.1;stroke-linecap:round;stroke-linejoin:round;" x1="7.23" y1="51.41" x2="7.61" y2="51.41"/><line style="fill:none;stroke:#1D2132;stroke-width:0.1;stroke-linecap:round;stroke-linejoin:round;" x1="7.05" y1="51.6" x2="7.05" y2="51.97"/><line style="fill:none;stroke:#1D2132;stroke-width:0.1;stroke-linecap:round;stroke-linejoin:round;" x1="6.86" y1="51.41" x2="6.49" y2="51.41"/><line style="fill:none;stroke:#1D2132;stroke-width:0.1;stroke-linecap:round;stroke-linejoin:round;" x1="7.05" y1="51.22" x2="7.05" y2="50.85"/><path style="fill:none;stroke:#1D2132;stroke-width:0.1;stroke-linecap:round;stroke-linejoin:round;" d="M10.21,40.69 c0-1.745-1.415-3.16-3.16-3.16s-3.16,1.415-3.16,3.16l0,0"/><path style="fill:none;stroke:#1D2132;stroke-width:0.1;stroke-linecap:round;stroke-linejoin:round;" d="M3.89,54 c-0.006,0.331,0.259,0.604,0.59,0.61c0,0,0,0,0,0h0.01"/><path style="fill:none;stroke:#1D2132;stroke-width:0.1;stroke-linecap:round;stroke-linejoin:round;" d="M9.61,54.61 c0.331,0,0.6-0.269,0.6-0.6V54"/><path style="fill:none;stroke:#1D2132;stroke-width:0.1;stroke-linecap:round;stroke-linejoin:round;" d="M7.05,51.73 c-0.177,0.005-0.324-0.133-0.33-0.31s0.133-0.324,0.31-0.33c0.177-0.005,0.324,0.133,0.33,0.31v0.01 C7.36,51.583,7.223,51.725,7.05,51.73"/><path style="fill:none;stroke:#1D2132;stroke-width:0.1;stroke-linecap:round;stroke-linejoin:round;" d="M9.17,42.83 c0-1.171-0.949-2.12-2.12-2.12c-1.171,0-2.12,0.949-2.12,2.12l0,0"/><path style="fill:none;stroke:#1D2132;stroke-width:0.1;stroke-linecap:round;stroke-linejoin:round;" d="M8.86,53.55 c0.166,0,0.3-0.134,0.3-0.3v-0.01"/><path style="fill:none;stroke:#1D2132;stroke-width:0.1;stroke-linecap:round;stroke-linejoin:round;" d="M4.93,53.24 c0,0.167,0.133,0.305,0.3,0.31"/><path style="fill:none;stroke:#1D2132;stroke-width:0.1;stroke-linecap:round;stroke-linejoin:round;" d="M7.05,51.83 c-0.237,0.005-0.434-0.183-0.44-0.42c-0.005-0.237,0.183-0.434,0.42-0.44c0.237-0.005,0.434,0.182,0.44,0.42v0.01 C7.473,51.635,7.285,51.827,7.05,51.83C7.05,51.83,7.05,51.83,7.05,51.83L7.05,51.83"/></g></svg>