<svg xmlns="http://www.w3.org/2000/svg" width="98.673" height="79.841" viewBox="19.041 40.34 98.673 79.841">
	<path d="M1885.74 468.613h-68.03v79.371h68.03z"
		style="fill:#fff;fill-opacity:1;fill-rule:nonzero;stroke:#231f20;stroke-width:.75;stroke-linecap:butt;stroke-linejoin:miter;stroke-miterlimit:10;stroke-dasharray:none;stroke-opacity:1"
		transform="translate(-1776.866 -426.26)scale(.9965)" />
	<path d="m1883.31 506.937-15.68-14.778h-47.49v-20.996h63.17z"
		style="fill:#e6e7e8;fill-opacity:1;fill-rule:nonzero;stroke:none;stroke-width:3;stroke-dasharray:none"
		transform="translate(-1776.866 -426.26)scale(.9965)" />
	<path d="m1883.31 506.937-15.68-14.778h-47.49v-20.996h63.17v35.774"
		style="fill:none;stroke:#231f20;stroke-width:.75;stroke-linecap:butt;stroke-linejoin:miter;stroke-miterlimit:10;stroke-dasharray:none;stroke-opacity:1"
		transform="translate(-1776.866 -426.26)scale(.9965)" />
	<path d="m1867.52 492.042 18.22 16.986h-13.47a4.64 4.64 0 0 1-4.64-4.634v-12.235h-49.92"
		style="fill:#fff;fill-opacity:1;fill-rule:nonzero;stroke:#231f20;stroke-width:.75;stroke-linecap:butt;stroke-linejoin:miter;stroke-miterlimit:10;stroke-dasharray:none;stroke-opacity:1"
		transform="translate(-1776.866 -426.26)scale(.9965)" />
	<path d="M1894.56 483.295c0 .514-.56.431-1.25.431-.7 0-1.26.083-1.26-.431l-6.31.062v-14.743h15.12v14.743z"
		style="fill:#f1f2f2;fill-opacity:1;fill-rule:nonzero;stroke:none;stroke-width:3;stroke-dasharray:none"
		transform="translate(-1776.866 -426.26)scale(.9965)" />
	<path
		d="M1894.56 483.295c0 .514-.56.431-1.25.431-.7 0-1.26.083-1.26-.431l-6.31.062v-14.743h15.12v14.743zm-8.82-.677h15.12"
		style="fill:none;stroke:#231f20;stroke-width:.75;stroke-linecap:butt;stroke-linejoin:miter;stroke-miterlimit:10;stroke-dasharray:none;stroke-opacity:1"
		transform="translate(-1776.866 -426.26)scale(.9965)" />
	<path d="M1811.41 483.295c0 .514-.56.431-1.26.431-.69 0-1.25.083-1.25-.431l-6.31.062v-14.743h15.12v14.743z"
		style="fill:#f1f2f2;fill-opacity:1;fill-rule:nonzero;stroke:none;stroke-width:3;stroke-dasharray:none"
		transform="translate(-1776.866 -426.26)scale(.9965)" />
	<path
		d="M1811.41 483.295c0 .514-.56.431-1.26.431-.69 0-1.25.083-1.25-.431l-6.31.062v-14.743h15.12v14.743zm-8.81-.677h15.11"
		style="fill:none;stroke:#231f20;stroke-width:.75;stroke-linecap:butt;stroke-linejoin:miter;stroke-miterlimit:10;stroke-dasharray:none;stroke-opacity:1"
		transform="translate(-1776.866 -426.26)scale(.9965)" />
	<path
		d="M1823.24 474.904s1.41-.028 3.67-.979c2.27-.953 14.67-1.008 17.4 0s2.54-.175 2.96.121c.42.298-.73.83-.73 1.475 0 .643 1.14 4.971.35 7.235-.78 2.265.88 3.514.69 4.27-.2.756-.35-.308-4.07 0-3.71.308-6.29 2.234-15.81.756-.67-.102-2.63.888-2.83.548-.48-.826.67-.884.2-4.898-.48-4.018-.81-7.575-1.71-7.968-.9-.391-.12-.56-.12-.56"
		style="fill:#fff;fill-opacity:1;fill-rule:nonzero;stroke:#231f20;stroke-width:.75;stroke-linecap:butt;stroke-linejoin:miter;stroke-miterlimit:10;stroke-dasharray:none;stroke-opacity:1"
		transform="translate(-1776.866 -426.26)scale(.9965)" />
	<path d="M1828.08 484.365s10.04-5.152 15.83-4.144"
		style="fill:#fff;fill-opacity:1;fill-rule:nonzero;stroke:#231f20;stroke-width:.75;stroke-linecap:round;stroke-linejoin:miter;stroke-miterlimit:10;stroke-dasharray:none;stroke-opacity:1"
		transform="translate(-1776.866 -426.26)scale(.9965)" />
	<path d="M1830.21 479.691s3.55-1.785 7.2-.809"
		style="fill:#fff;fill-opacity:1;fill-rule:nonzero;stroke:#231f20;stroke-width:.75;stroke-linecap:round;stroke-linejoin:miter;stroke-miterlimit:10;stroke-dasharray:none;stroke-opacity:1"
		transform="translate(-1776.866 -426.26)scale(.9965)" />
	<path
		d="M1878.59 474.904s-1.41-.028-3.68-.979c-2.26-.953-14.66-1.008-17.39 0s-2.54-.175-2.96.121c-.42.298.73.83.73 1.475 0 .643-1.14 4.971-.35 7.235.78 2.265-.88 3.514-.69 4.27.2.756.35-.308 4.07 0s6.29 2.234 15.81.756c.68-.102 2.63.888 2.83.548.48-.826-.67-.884-.2-4.898.48-4.018.82-7.575 1.71-7.968.9-.391.12-.56.12-.56"
		style="fill:#fff;fill-opacity:1;fill-rule:nonzero;stroke:#231f20;stroke-width:.75;stroke-linecap:butt;stroke-linejoin:miter;stroke-miterlimit:10;stroke-dasharray:none;stroke-opacity:1"
		transform="translate(-1776.866 -426.26)scale(.9965)" />
	<path d="M1874.02 482s-8.44-2.719-13.69-.085"
		style="fill:#fff;fill-opacity:1;fill-rule:nonzero;stroke:#231f20;stroke-width:.75;stroke-linecap:round;stroke-linejoin:miter;stroke-miterlimit:10;stroke-dasharray:none;stroke-opacity:1"
		transform="translate(-1776.866 -426.26)scale(.9965)" />
	<path d="M1866.35 479.486s3.8-1.164 7.23.409"
		style="fill:#fff;fill-opacity:1;fill-rule:nonzero;stroke:#231f20;stroke-width:.75;stroke-linecap:round;stroke-linejoin:miter;stroke-miterlimit:10;stroke-dasharray:none;stroke-opacity:1"
		transform="translate(-1776.866 -426.26)scale(.9965)" />
	<path d="M1817.49 471.163h68.25"
		style="fill:#fff;fill-opacity:1;fill-rule:nonzero;stroke:#231f20;stroke-width:.75;stroke-linecap:butt;stroke-linejoin:miter;stroke-miterlimit:10;stroke-dasharray:none;stroke-opacity:1"
		transform="translate(-1776.866 -426.26)scale(.9965)" />
</svg>
