<svg xmlns="http://www.w3.org/2000/svg" width="17.091" height="18.906" viewBox="1044.151 52.725 17.091 18.906">
	<path
		d="m2830.53 485.546-.42-.74s2.08-.956 5.63-1.056h.93c3.55.1 5.63 1.056 5.63 1.056l-.42.74m-6.14 14.349h-6.94c-.56 0-1-.466-.92-.99l.63-12.715-.81-2.44v-1.001s4.02-1.751 8.51-1.751c4.48 0 8.5 1.751 8.5 1.751v1.001l-.8 2.44.62 12.715c.08.524-.36.99-.92.99h-6.94zm-8.04-16.145s4.02-1.752 8.51-1.752c4.48 0 8.5 1.752 8.5 1.752m-16.2 2.44s3.43-1.376 7.23-1.376h.93c3.8 0 7.24 1.376 7.24 1.376"
		style="fill:none;stroke:#231f20;stroke-width:.759;stroke-linecap:butt;stroke-linejoin:round;stroke-miterlimit:10;stroke-dasharray:none;stroke-opacity:1"
		transform="translate(-1675.335 -409.563)scale(.96186)" />
	<path
		d="M1045.33 71.085c-.207-.064-.43-.282-.476-.466-.023-.088-.025-.317-.01-.662.035-.676.33-6.63.46-9.36.055-1.15.108-2.166.118-2.257l.017-.167.405-.14c1.48-.51 3.186-.885 4.787-1.055.69-.073 2.648-.102 3.437-.05a21.4 21.4 0 0 1 4.232.718c.552.152 1.636.507 1.66.543.01.015.151 2.79.317 6.165.234 4.78.292 6.165.264 6.262-.046.16-.204.34-.379.433l-.136.073-7.27.006c-6.355.005-7.29 0-7.43-.043z"
		style="fill:#fff;stroke:#000;stroke-width:.00099594;stroke-dasharray:none" />
	<path
		d="m1045.033 56.852-.347-1.04.37-.139a25 25 0 0 1 3.72-1.065c2.99-.602 5.64-.543 8.727.195 1.296.31 3.235.95 3.195 1.053-.01.026-.164.491-.34 1.034-.175.542-.323.99-.328.996a7 7 0 0 1-.552-.17c-.298-.098-.67-.215-.827-.258l-.284-.078.16-.278c.088-.152.16-.313.16-.356 0-.097-.04-.12-.496-.282-2.14-.763-4.987-1.042-7.604-.744-1.278.146-2.624.45-3.535.798-.405.156-.411.173-.187.564l.167.293-.472.142c-.26.077-.625.194-.811.258a8 8 0 0 1-.355.117c-.01 0-.17-.468-.36-1.04z"
		style="fill:#fff;stroke:#000;stroke-width:.00099594;stroke-dasharray:none" />
	<path
		d="M1047.186 57.084a1.4 1.4 0 0 1-.118-.245c0-.083 1.175-.434 2.024-.605 2.61-.527 5.375-.473 7.881.152.415.103 1.338.39 1.374.425.017.017-.218.443-.26.468-.015.01-.174-.02-.353-.064a24 24 0 0 0-2.865-.504c-.637-.072-2.94-.103-3.693-.05-1.14.08-2.398.28-3.484.553a5 5 0 0 1-.355.08c-.02 0-.087-.094-.152-.21zm-2.535-1.886.01-.336.381-.145a24 24 0 0 1 6.358-1.44 24 24 0 0 1 2.788.018c2.06.18 4.381.723 6.34 1.487l.2.078.01.338.01.338-.176-.07c-.86-.344-2.34-.789-3.411-1.026-3.33-.737-6.15-.69-9.546.153-.92.23-2.115.605-2.88.906l-.093.036z"
		style="fill:#fff;stroke:#000;stroke-width:.201;stroke-dasharray:none" />
</svg>
