<svg xmlns="http://www.w3.org/2000/svg" width="45.628" height="23.842" viewBox="102.251 276.99 45.628 23.842">
	<path d="M1908.47 705.924h22.68v1.889h-22.68z"
		style="fill:#e6e7e8;fill-opacity:1;fill-rule:nonzero;stroke:#231f20;stroke-width:.751501;stroke-linecap:butt;stroke-linejoin:miter;stroke-miterlimit:10;stroke-dasharray:none;stroke-opacity:1"
		transform="matrix(.98973 0 0 -.98973 -1763.81 998.48)" />
	<path d="M1885.8 705.924h22.67v1.889h-22.67z"
		style="fill:#e6e7e8;fill-opacity:1;fill-rule:nonzero;stroke:#231f20;stroke-width:.751501;stroke-linecap:butt;stroke-linejoin:miter;stroke-miterlimit:10;stroke-dasharray:none;stroke-opacity:1"
		transform="matrix(.98973 0 0 -.98973 -1763.81 998.48)" />
	<path
		d="M1885.8 728.601h45.35v-20.788h-45.35zm23.7-22.713c0-.344.23-.625.5-.625h3.11c.28 0 .5.281.5.625m-10.27 0c0-.344.22-.625.5-.625h3.1c.28 0 .5.281.5.625m-21.64 12.319h45.35m-26.54-7.098-1.67 14.195m-.33-14.195-1.67 14.195m-11.16-14.195-1.67 14.195m9.99-14.195-1.67 14.195m-.33-14.195-1.67 14.195m4.44-14.195.6 14.195m-7.66-14.195.6 14.195m-1.92-14.195.6 14.195m36.97-14.195-1.67 14.195m-.33-14.195-1.67 14.195m-11.16-14.195-1.66 14.195m9.99-14.195-1.67 14.195m-.34-14.195-1.67 14.195m4.44-14.195.6 14.195m-7.66-14.195.6 14.195m-1.92-14.195.61 14.195"
		style="fill:none;stroke:#231f20;stroke-width:.751501;stroke-linecap:round;stroke-linejoin:round;stroke-miterlimit:10;stroke-dasharray:none;stroke-opacity:1"
		transform="matrix(.98973 0 0 -.98973 -1763.81 998.48)" />
	<path
		d="M102.801 282.484v5h1.375c1.06 0 1.375-.018 1.375-.078 0-.043-.18-1.597-.4-3.453s-.386-3.396-.37-3.422c.015-.026.08-.047.145-.047.09 0 .126.06.155.266.05.36.783 6.612.783 6.68 0 .03.347.054.772.054h.772l.04-.703c.02-.387.082-1.87.136-3.297.115-2.996.115-3 .283-3 .11 0 .122.045.121.485 0 .266-.056 1.722-.124 3.234q-.071 1.507-.124 3.016v.265h.5c.358 0 .5-.022.497-.078-.005-.29.266-6.669.288-6.78.018-.09.074-.14.152-.14.16 0 .16-.023 0 3.592q-.072 1.555-.125 3.11v.296h2.75l-.003-.14c-.002-.078-.179-1.622-.393-3.432s-.38-3.32-.367-3.36c.012-.037.075-.068.14-.068.083 0 .126.06.15.203.043.257.786 6.613.785 6.72 0 .058.21.077.847.077h.848l-.037-.265c-.164-1.174-.775-6.635-.748-6.679.044-.07.197-.072.241 0 .02.03.203 1.5.41 3.264.206 1.767.392 3.317.413 3.446l.037.234h1.614v-.265c-.003-.484.258-6.577.283-6.657.014-.043.082-.078.152-.078.16 0 .16-.197.003 3.282a166 166 0 0 0-.125 3.234v.484h1.093c1.025 0 1.094-.007 1.094-.116 0-.064-.169-1.545-.375-3.29s-.375-3.268-.375-3.384c0-.166.025-.21.122-.21.09 0 .132.055.157.203.046.266.783 6.575.783 6.7 0 .083.125.097.844.097.464 0 .843-.02.843-.047 0-.025-.182-1.578-.403-3.449-.22-1.87-.387-3.425-.37-3.453.043-.07.196-.064.242.01.027.045.844 6.74.844 6.918 0 .012 1.857.021 4.126.021h4.127l-.032-.14a220 220 0 0 1-.413-3.444c-.264-2.276-.363-3.323-.318-3.368.164-.164.243.01.32.704.043.385.223 1.942.402 3.46l.324 2.757.76.018.76.017.031-.267c.02-.148.092-1.7.164-3.45s.145-3.207.162-3.235c.043-.07.196-.066.241.007.032.051-.153 4.89-.244 6.394l-.033.547h.5c.274 0 .5-.007.501-.015s.07-1.56.152-3.447c.086-1.972.177-3.457.212-3.492.034-.034.106-.046.16-.025.08.03.091.118.065.493-.017.25-.073 1.51-.123 2.8-.05 1.288-.11 2.645-.13 3.014l-.04.672h2.823l-.03-.172c-.05-.27-.78-6.557-.78-6.704 0-.102.034-.128.141-.113.14.02.148.08.55 3.49l.408 3.468.826.017.826.018v-.15c0-.082-.169-1.577-.375-3.323s-.375-3.254-.375-3.352c0-.135.03-.179.12-.179.067 0 .135.05.152.11s.208 1.635.424 3.5l.394 3.39h1.58l.038-.672c.021-.37.083-1.825.137-3.234.118-3.06.121-3.094.284-3.094.11 0 .12.047.12.516 0 .283-.057 1.781-.125 3.328s-.123 2.89-.124 2.984v.172h2.247l-.03-.172c-.098-.566-.78-6.672-.754-6.742.041-.107.22-.112.255-.008.014.043.197 1.555.406 3.36.208 1.804.393 3.344.41 3.422.03.137.051.14.842.14.775 0 .811-.005.811-.127 0-.07-.169-1.56-.375-3.31s-.375-3.268-.375-3.372c0-.148.028-.19.122-.19.09 0 .132.054.158.202.045.266.783 6.575.783 6.7 0 .086.22.097 1.812.097h1.813v-10h-44.563zm0 10.313v5h44.562v-10h-1.78c-.98 0-1.782.01-1.782.02 0 .012.182 1.563.404 3.447s.39 3.45.372 3.48c-.047.076-.276.065-.276-.013 0-.095-.743-6.424-.786-6.7l-.037-.234h-1.674l.031.172c.05.27.78 6.556.78 6.704 0 .102-.034.128-.14.112-.14-.02-.15-.08-.55-3.488l-.41-3.469-1.135-.017-1.135-.017-.03.204c-.018.113-.076 1.372-.13 2.8-.138 3.626-.16 3.94-.266 3.981-.049.02-.115.008-.146-.023-.05-.05.112-4.812.22-6.444l.034-.515h-1.574l.037.234c.043.276.786 6.605.786 6.7 0 .077-.228.09-.273.016-.017-.028-.202-1.51-.41-3.297q-.198-1.725-.414-3.45l-.033-.203h-1.674l.03.203c.061.424.774 6.57.774 6.68 0 .133-.237.166-.28.04-.015-.044-.198-1.556-.406-3.36a221 221 0 0 0-.41-3.423l-.03-.14h-2.8l-.037.515q-.077 1.461-.13 2.922a199 199 0 0 1-.13 2.988c-.037.55-.046.58-.173.563-.16-.023-.16.252.023-4.05.068-1.565.123-2.866.123-2.89 0-.027-.22-.048-.492-.048h-.492l-.039.672c-.02.37-.08 1.74-.134 3.046-.052 1.307-.11 2.581-.13 2.832-.034.423-.046.456-.172.438s-.133-.05-.117-.488l.14-3.368c.068-1.595.124-2.952.124-3.016 0-.107-.06-.116-.753-.116h-.753l.035.203c.042.243.783 6.596.783 6.714 0 .087-.222.116-.27.036-.017-.026-.203-1.538-.414-3.36a238 238 0 0 0-.413-3.453l-.03-.14h-8.185l.002.14c.002.078.18 1.622.393 3.432s.38 3.321.367 3.36c-.012.037-.075.068-.14.068-.083 0-.126-.059-.15-.203-.043-.257-.786-6.613-.785-6.72 0-.058-.21-.077-.843-.077-.465 0-.844.01-.844.02 0 .012.182 1.563.404 3.447s.39 3.45.371 3.48c-.043.07-.275.07-.275 0 0-.069-.733-6.323-.783-6.68l-.037-.267h-2.305l.001.172c.003.386-.264 6.677-.286 6.75-.013.043-.085.078-.16.078-.153 0-.154.142.042-4.188.05-1.083.09-2.158.09-2.39v-.422h-.75c-.714 0-.75.006-.75.128 0 .07.17 1.56.375 3.31.206 1.75.375 3.267.375 3.371 0 .148-.027.19-.124.19-.077 0-.135-.05-.153-.14-.017-.077-.206-1.652-.42-3.5l-.39-3.36h-.832c-.457 0-.83.022-.83.048 0 .025.181 1.578.403 3.45.22 1.87.387 3.424.37 3.452-.035.057-.274.07-.274.016 0-.02-.183-1.585-.406-3.48-.223-1.894-.406-3.453-.406-3.465 0-.01-.64-.02-1.425-.02h-1.424l-.144 3.453c-.079 1.9-.157 3.474-.173 3.5s-.084.047-.15.047q-.122 0-.122-.13c0-.14.235-5.832.268-6.48l.02-.39h-.487c-.454 0-.488.01-.514.14-.016.078-.087 1.63-.16 3.448-.072 1.818-.146 3.33-.164 3.36-.018.028-.09.052-.16.052-.126 0-.129-.022-.09-.703.02-.387.08-1.758.13-3.047s.107-2.548.124-2.797l.032-.453h-.75c-.558 0-.749.02-.748.078 0 .043.18 1.597.4 3.453s.386 3.396.37 3.422c-.015.026-.08.047-.146.047-.09 0-.126-.06-.154-.266a954 954 0 0 1-.783-6.68c0-.03-.633-.054-1.406-.054h-1.407z"
		style="fill:#fff;stroke:#000;stroke-width:.00187875;stroke-dasharray:none" />
	<path
		d="M120.13 299.962q.051.24.215.33l.06.032 1.588.003c1.063.001 1.604 0 1.632-.009q.198-.053.283-.367c.005-.018-.09-.02-1.89-.02h-1.896zm6.091-.02c0 .005.01.041.022.08a.48.48 0 0 0 .216.278l.044.024 1.596.003c1.805.003 1.655.01 1.763-.088a.53.53 0 0 0 .145-.26l.007-.047h-1.897q-.948-.005-1.896.01z"
		style="fill:#fff;stroke:#000;stroke-width:.00033212;stroke-dasharray:none" />
</svg>
