<svg xmlns="http://www.w3.org/2000/svg" width="38.121" height="23.826" viewBox="18.071 276.99 38.121 23.826">
	<path d="M1820.52 705.924h18.89v1.889h-18.89z"
		style="fill:#e6e7e8;fill-opacity:1;fill-rule:nonzero;stroke:#231f20;stroke-width:.75;stroke-linecap:butt;stroke-linejoin:miter;stroke-miterlimit:10;stroke-dasharray:none;stroke-opacity:1"
		transform="matrix(.98913 0 0 -.98913 -1763.594 998.042)" />
	<path d="M1801.62 705.924h18.89v1.889h-18.89z"
		style="fill:#e6e7e8;fill-opacity:1;fill-rule:nonzero;stroke:#231f20;stroke-width:.75;stroke-linecap:butt;stroke-linejoin:miter;stroke-miterlimit:10;stroke-dasharray:none;stroke-opacity:1"
		transform="matrix(.98913 0 0 -.98913 -1763.594 998.042)" />
	<path
		d="M1801.62 728.601h37.79v-20.788h-37.79zm19.75-22.713c0-.344.19-.625.42-.625h2.59c.23 0 .42.281.42.625m-8.57 0c0-.344.19-.625.42-.625h2.59c.23 0 .42.281.42.625m-18.04 12.319h18.89m0-10.394v20.788m-1.2-17.492-1.66 14.195m-.34-14.195-1.67 14.195m-11.16-14.195-1.66 14.195m9.99-14.195-1.67 14.195m-.33-14.195-1.67 14.195m4.43-14.195.6 14.195m-7.66-14.195.6 14.195m-1.91-14.195.6 14.195"
		style="fill:none;stroke:#231f20;stroke-width:.75;stroke-linecap:round;stroke-linejoin:round;stroke-miterlimit:10;stroke-dasharray:none;stroke-opacity:1"
		transform="matrix(.98913 0 0 -.98913 -1763.594 998.042)" />
	<path
		d="M37.304 287.641v10.12H55.67v-20.24H37.303zm-18.73 5.135v4.985h18.429v-9.969h-.846q-.844 0-.846.065c0 .036.178 1.578.394 3.427.217 1.85.38 3.397.365 3.44-.034.086-.191.103-.24.025-.028-.047-.82-6.68-.82-6.874 0-.066-.172-.083-.846-.083-.466 0-.846.01-.846.02s.176 1.518.392 3.35c.216 1.83.393 3.4.393 3.488 0 .13-.024.155-.136.14-.133-.02-.143-.08-.54-3.403a448 448 0 0 1-.407-3.49c-.004-.096-.1-.105-1.147-.105H30.73l-.037.559c-.02.307-.09 1.86-.157 3.45-.066 1.59-.135 2.916-.154 2.946-.043.07-.19.069-.235-.003-.032-.052.159-5.097.24-6.393l.037-.559h-1.567l.03.227c.218 1.704.778 6.649.758 6.706-.015.041-.077.075-.138.075-.142 0-.11.216-.54-3.504-.2-1.711-.376-3.2-.395-3.308l-.034-.196h-.812c-.781 0-.813.005-.813.125 0 .068.176 1.623.393 3.455.244 2.07.37 3.353.336 3.388-.094.094-.227.001-.26-.181-.018-.094-.205-1.66-.417-3.48l-.384-3.307h-2.87v.136c.005.356-.253 6.504-.28 6.676-.02.14-.06.196-.14.196-.061 0-.123-.034-.136-.075-.014-.042.035-1.449.11-3.127.074-1.678.137-3.22.14-3.428l.004-.378h-.957l-.034.438c-.02.241-.09 1.795-.16 3.453-.067 1.658-.137 3.038-.154 3.066-.043.07-.19.065-.235-.007-.032-.053.159-5.166.24-6.421l.035-.529h-.757c-.417 0-.758.009-.758.02 0 .01.177 1.524.393 3.363.216 1.84.393 3.408.393 3.485 0 .1-.035.14-.123.14-.067 0-.134-.034-.148-.075-.015-.042-.191-1.503-.392-3.248a540 540 0 0 0-.402-3.428l-.036-.257h-1.74zm0-10.27v4.984h.847c.675 0 .846-.017.846-.082 0-.046-.178-1.6-.395-3.454-.254-2.172-.374-3.392-.336-3.43.107-.107.23.005.265.24.02.127.205 1.693.413 3.479l.378 3.247h1.533l.039-.68c.02-.373.078-1.672.126-2.885.049-1.212.105-2.485.126-2.827.036-.593.044-.622.168-.605s.13.046.115.623c-.021.859-.187 4.95-.233 5.727l-.038.652.506-.018.505-.017.132-3.112c.072-1.71.14-3.274.15-3.474.018-.323.035-.364.156-.381.127-.018.136.002.135.332 0 .193-.054 1.575-.12 3.07a170 170 0 0 0-.12 3.157l-.001.438h2.78l-.033-.227c-.092-.63-.753-6.403-.753-6.578 0-.162.024-.203.12-.203.074 0 .13.05.149.136.016.074.195 1.563.397 3.307.2 1.745.382 3.26.4 3.37l.035.195h1.653l-.407-3.455c-.224-1.9-.393-3.477-.377-3.504.038-.062.264-.065.268-.004 0 .025.186 1.595.41 3.49l.407 3.443.798.017c.44.01.8-.005.8-.03.015-.812.307-6.866.332-6.907.045-.073.192-.076.236-.006.029.047-.141 4.523-.238 6.276l-.038.68h1.122c.894 0 1.122-.016 1.122-.08 0-.045-.177-1.586-.394-3.426s-.381-3.38-.365-3.424c.034-.086.19-.106.238-.03.03.047.823 6.672.823 6.866 0 .08.122.094.853.094h.853l-.036-.257c-.16-1.14-.765-6.6-.74-6.667.04-.105.213-.11.249-.009.022.065.816 6.764.815 6.888 0 .025.394.045.876.045h.876v-9.969H18.575z"
		style="fill:#fff;stroke:#000;stroke-width:.00181247;stroke-dasharray:none" />
	<path
		d="M33.037 299.952c.022.144.11.295.2.344l.034.017h2.65l.035-.02a.4.4 0 0 0 .124-.13.8.8 0 0 0 .075-.214l.005-.032h-3.127zm5.083-.007c.026.156.105.292.199.348l.035.02h2.65l.034-.017c.09-.049.18-.2.2-.344l.006-.035h-3.13z"
		style="fill:#fff;stroke:#000;stroke-width:.00022656;stroke-dasharray:none" />
</svg>
