<svg xmlns="http://www.w3.org/2000/svg" width="45.569" height="39.076" viewBox="19.121 355.057 45.569 39.076">
	<path
		d="M1825.51 783.33c.43.003.79-.008.79.247v1.229c0 .256-.36.464-.79.462-.44 0-.79-.208-.79-.464v-1.228c0-.256.36-.246.79-.246"
		style="fill:#e6e7e8;fill-opacity:1;fill-rule:nonzero;stroke:#231f20;stroke-width:.5;stroke-linecap:butt;stroke-linejoin:miter;stroke-miterlimit:10;stroke-dasharray:none;stroke-opacity:1"
		transform="matrix(.99366 0 0 -.99366 -1771.872 1172.248)" />
	<path
		d="M1825.34 783.942h.33c.2 0 .36.164.36.362v1.602c0 .198-.16.359-.36.359h-.33a.365.365 0 0 1-.36-.359v-1.602c0-.198.17-.362.36-.362"
		style="fill:#fff;fill-opacity:1;fill-rule:nonzero;stroke:#231f20;stroke-width:.5;stroke-linecap:butt;stroke-linejoin:miter;stroke-miterlimit:10;stroke-dasharray:none;stroke-opacity:1"
		transform="matrix(.99366 0 0 -.99366 -1771.872 1172.248)" />
	<path
		d="M1833.49 786.405c-1.23-.503-4.49-1.661-8.14-1.661s-6.91 1.158-8.15 1.661c-.32.131-.52.412-.52.719v.13s2.3-.164 3.82-.704c.26-.09.57-.14.88-.14h7.8c.32 0 .63.05.88.14 1.53.54 3.97.704 3.97.704v-.13c0-.307-.21-.588-.54-.719"
		style="fill:#e6e7e8;fill-opacity:1;fill-rule:nonzero;stroke:#231f20;stroke-width:.5;stroke-linecap:butt;stroke-linejoin:miter;stroke-miterlimit:10;stroke-dasharray:none;stroke-opacity:1"
		transform="matrix(.99366 0 0 -.99366 -1771.872 1172.248)" />
	<path
		d="M1816.68 787.254v1.896c0 .348.33.632.73.615.35-.016.86-.099 1.6-.313 2.16-.616 3.67-1.315 6.34-1.315s4.18.699 6.34 1.315c.74.214 1.25.297 1.6.313.4.017.74-.267.74-.615v-1.896"
		style="fill:none;stroke:#231f20;stroke-width:.506;stroke-linecap:butt;stroke-linejoin:round;stroke-miterlimit:10;stroke-dasharray:none;stroke-opacity:1"
		transform="matrix(.99366 0 0 -.99366 -1771.872 1172.248)" />
	<path
		d="M1836.01 792.852c0-.434.01-.79-.25-.79h-1.23c-.25 0-.46.356-.46.79 0 .432.21.788.46.788h1.23c.26 0 .25-.356.25-.788"
		style="fill:#e6e7e8;fill-opacity:1;fill-rule:nonzero;stroke:#231f20;stroke-width:.5;stroke-linecap:butt;stroke-linejoin:miter;stroke-miterlimit:10;stroke-dasharray:none;stroke-opacity:1"
		transform="matrix(.99366 0 0 -.99366 -1771.872 1172.248)" />
	<path
		d="m1835.42 792.824-.1-.311a.35.35 0 0 0-.44-.244l-1.54.459a.357.357 0 0 0-.24.449l.09.312c.06.191.26.299.45.243l1.53-.459c.2-.057.3-.257.25-.449"
		style="fill:#fff;fill-opacity:1;fill-rule:nonzero;stroke:#231f20;stroke-width:.5;stroke-linecap:butt;stroke-linejoin:miter;stroke-miterlimit:10;stroke-dasharray:none;stroke-opacity:1"
		transform="matrix(.99366 0 0 -.99366 -1771.872 1172.248)" />
	<path
		d="M1814.87 792.489c.14-.412.24-.753.48-.675l1.17.378c.24.078.33.48.2.893-.14.412-.44.685-.69.607l-1.17-.378c-.24-.078-.12-.413.01-.825"
		style="fill:#e6e7e8;fill-opacity:1;fill-rule:nonzero;stroke:#231f20;stroke-width:.5;stroke-linecap:butt;stroke-linejoin:miter;stroke-miterlimit:10;stroke-dasharray:none;stroke-opacity:1"
		transform="matrix(.99366 0 0 -.99366 -1771.872 1172.248)" />
	<path
		d="m1815.41 792.824.1-.311a.364.364 0 0 1 .45-.244l1.53.459c.19.056.3.258.24.449l-.09.312a.365.365 0 0 1-.45.243l-1.53-.459a.37.37 0 0 1-.25-.449"
		style="fill:#fff;fill-opacity:1;fill-rule:nonzero;stroke:#231f20;stroke-width:.5;stroke-linecap:butt;stroke-linejoin:miter;stroke-miterlimit:10;stroke-dasharray:none;stroke-opacity:1"
		transform="matrix(.99366 0 0 -.99366 -1771.872 1172.248)" />
	<path
		d="M1832.98 789.765s1.06 1.388 1.06 11.003c0 1.134-4.67 1.937-8.67 1.854-4.01.083-8.68-.72-8.68-1.854 0-9.615 1.06-11.003 1.06-11.003l1.27-.311c2.15-.617 3.66-1.317 6.33-1.317s4.18.7 6.33 1.317z"
		style="fill:#e6e7e8;fill-opacity:1;fill-rule:nonzero;stroke:#231f20;stroke-width:.5;stroke-linecap:butt;stroke-linejoin:miter;stroke-miterlimit:10;stroke-dasharray:none;stroke-opacity:1"
		transform="matrix(.99366 0 0 -.99366 -1771.872 1172.248)" />
	<path d="M1848.03 822.155h-45.36v-22.679h45.36z"
		style="fill:#e6e7e8;fill-opacity:1;fill-rule:nonzero;stroke:#231f20;stroke-width:.5;stroke-linecap:butt;stroke-linejoin:miter;stroke-miterlimit:10;stroke-dasharray:none;stroke-opacity:1"
		transform="matrix(.99366 0 0 -.99366 -1771.872 1172.248)" />
	<path d="M1819.34 813.817v-.9c0-.331.27-.597.6-.597h10.82c.33 0 .6.266.6.597v.9"
		style="fill:#fff;fill-opacity:1;fill-rule:nonzero;stroke:#231f20;stroke-width:.506;stroke-linecap:butt;stroke-linejoin:round;stroke-miterlimit:10;stroke-dasharray:none;stroke-opacity:1"
		transform="matrix(.99366 0 0 -.99366 -1771.872 1172.248)" />
	<path d="M1831.36 815.934v2.531a.6.6 0 0 1-.6.599h-10.82a.6.6 0 0 1-.6-.599v-2.531"
		style="fill:#fff;fill-opacity:1;fill-rule:nonzero;stroke:#231f20;stroke-width:.506;stroke-linecap:butt;stroke-linejoin:round;stroke-miterlimit:10;stroke-dasharray:none;stroke-opacity:1"
		transform="matrix(.99366 0 0 -.99366 -1771.872 1172.248)" />
	<path d="M1812.35 815.082v-1.265h26.07v1.265c0 .695-.57.852-1.27.852h-23.54c-.69 0-1.26-.157-1.26-.852"
		style="fill:#fff;fill-opacity:1;fill-rule:nonzero;stroke:none;stroke-width:2;stroke-dasharray:none"
		transform="matrix(.99366 0 0 -.99366 -1771.872 1172.248)" />
	<path
		d="M1812.35 815.082v-1.265h26.07v1.265c0 .695-.57.852-1.27.852h-23.54c-.69 0-1.26-.157-1.26-.852zm15.78 2.24a.84.84 0 0 0-.42-.802c-.2-.12-.33-.587-.33-.587h-4.01s-.13.467-.33.587a.84.84 0 0 0-.42.802c.04.443.44.766.89.766h3.73c.45 0 .85-.323.89-.766z"
		style="fill:none;stroke:#231f20;stroke-width:.506;stroke-linecap:butt;stroke-linejoin:round;stroke-miterlimit:10;stroke-dasharray:none;stroke-opacity:1"
		transform="matrix(.99366 0 0 -.99366 -1771.872 1172.248)" />
	<path
		d="M1817.58 810.134v-4.093c0-.209.17-.377.38-.377h14.85c.21 0 .38.168.38.377v4.093c0 .208-.17.376-.38.376h-14.85a.38.38 0 0 1-.38-.376"
		style="fill:#fff;fill-opacity:1;fill-rule:nonzero;stroke:#231f20;stroke-width:.506;stroke-linecap:butt;stroke-linejoin:round;stroke-miterlimit:10;stroke-dasharray:none;stroke-opacity:1"
		transform="matrix(.99366 0 0 -.99366 -1771.872 1172.248)" />
	<path
		d="M1816 808.329c0-.132-.25-1.119-.28-1.296-.03-.187.12-1.115.12-1.181 0-.334-.53-.606-1.19-.606-.65 0-1.19.272-1.19.606 0 .066.16.994.13 1.181-.03.177-.28 1.164-.28 1.296 0 .483.6.873 1.34.873.75 0 1.35-.39 1.35-.873"
		style="fill:#fff;fill-opacity:1;fill-rule:nonzero;stroke:#231f20;stroke-width:.506;stroke-linecap:butt;stroke-linejoin:round;stroke-miterlimit:10;stroke-dasharray:none;stroke-opacity:1"
		transform="matrix(.99366 0 0 -.99366 -1771.872 1172.248)" />
	<path d="M1818.5 809.544h.34"
		style="fill:none;stroke:#231f20;stroke-width:.506;stroke-linecap:butt;stroke-linejoin:round;stroke-miterlimit:4;stroke-dasharray:none;stroke-opacity:1"
		transform="matrix(.99366 0 0 -.99366 -1771.872 1172.248)" />
	<path d="M1819.53 809.544h12.06"
		style="fill:none;stroke:#231f20;stroke-width:.506;stroke-linecap:butt;stroke-linejoin:round;stroke-miterlimit:4;stroke-dasharray:1.034,1.034;stroke-dashoffset:0;stroke-opacity:1"
		transform="matrix(.99366 0 0 -.99366 -1771.872 1172.248)" />
	<path d="M1831.93 809.544h.33m-13.76-1.028h.34"
		style="fill:none;stroke:#231f20;stroke-width:.506;stroke-linecap:butt;stroke-linejoin:round;stroke-miterlimit:4;stroke-dasharray:none;stroke-opacity:1"
		transform="matrix(.99366 0 0 -.99366 -1771.872 1172.248)" />
	<path d="M1819.53 808.517h12.06"
		style="fill:none;stroke:#231f20;stroke-width:.506;stroke-linecap:butt;stroke-linejoin:round;stroke-miterlimit:4;stroke-dasharray:1.034,1.034;stroke-dashoffset:0;stroke-opacity:1"
		transform="matrix(.99366 0 0 -.99366 -1771.872 1172.248)" />
	<path d="M1831.93 808.517h.33m-13.76-1.028h.34"
		style="fill:none;stroke:#231f20;stroke-width:.506;stroke-linecap:butt;stroke-linejoin:round;stroke-miterlimit:4;stroke-dasharray:none;stroke-opacity:1"
		transform="matrix(.99366 0 0 -.99366 -1771.872 1172.248)" />
	<path d="M1819.53 807.489h12.06"
		style="fill:none;stroke:#231f20;stroke-width:.506;stroke-linecap:butt;stroke-linejoin:round;stroke-miterlimit:4;stroke-dasharray:1.034,1.034;stroke-dashoffset:0;stroke-opacity:1"
		transform="matrix(.99366 0 0 -.99366 -1771.872 1172.248)" />
	<path d="M1831.93 807.489h.33"
		style="fill:none;stroke:#231f20;stroke-width:.506;stroke-linecap:butt;stroke-linejoin:round;stroke-miterlimit:4;stroke-dasharray:none;stroke-opacity:1"
		transform="matrix(.99366 0 0 -.99366 -1771.872 1172.248)" />
	<path d="M1821.76 806.465h7.24m-10.5 0h2.18m9.41 0h2.17"
		style="fill:none;stroke:#231f20;stroke-width:.506;stroke-linecap:butt;stroke-linejoin:round;stroke-miterlimit:10;stroke-dasharray:none;stroke-opacity:1"
		transform="matrix(.99366 0 0 -.99366 -1771.872 1172.248)" />
	<path d="M1814.94 808.158c0 .314-.13.568-.29.568-.15 0-.28-.254-.28-.568 0-.312.13-.566.28-.566.16 0 .29.254.29.566"
		style="fill:#fff;fill-opacity:1;fill-rule:nonzero;stroke:#231f20;stroke-width:.506;stroke-linecap:butt;stroke-linejoin:round;stroke-miterlimit:10;stroke-dasharray:none;stroke-opacity:1"
		transform="matrix(.99366 0 0 -.99366 -1771.872 1172.248)" />
	<path
		d="M33.765 387.682a.7.7 0 0 0-.232.18c-.09.117-.096.165-.096 1.06v.939l.377.03c.956.078 2.27.328 3.103.59l.52.165h8.795l.53-.162c.872-.268 1.94-.468 3.06-.575l.586-.055v-.876c0-1.04-.025-1.14-.324-1.272-.173-.076-.234-.081-.545-.042-.502.063-1.248.255-2.49.641-2.733.85-4.2 1.063-6.214.904-1.194-.094-2.046-.282-3.995-.882-1.327-.41-2.032-.593-2.533-.661-.413-.056-.374-.057-.542.016z"
		style="fill:#fff;stroke:#000;stroke-width:.00088388;stroke-dasharray:none" />
</svg>
