<svg xmlns="http://www.w3.org/2000/svg" width="23.182" height="23.796" viewBox="1117.961 128.936 23.182 23.796">
	<path d="M2903.04 557.821c0-.338.48-.612 1.05-.612h17.52c.57 0 1.05.274 1.05.612"
		style="fill:#e6e7e8;fill-opacity:1;fill-rule:nonzero;stroke:#231f20;stroke-width:.759;stroke-linecap:butt;stroke-linejoin:miter;stroke-miterlimit:10;stroke-dasharray:none;stroke-opacity:1"
		transform="matrix(.98905 0 0 -.98905 -1751.402 703.464)" />
	<path d="M2901.51 580.509h22.68v-22.677h-22.68z"
		style="fill:none;stroke:#231f20;stroke-width:.759;stroke-linecap:butt;stroke-linejoin:round;stroke-miterlimit:10;stroke-dasharray:none;stroke-opacity:1"
		transform="matrix(.98905 0 0 -.98905 -1751.402 703.464)" />
	<path
		d="M2920.77 578.619h-15.84c-1.04 0-1.89-.847-1.89-1.89v-15.118c0-1.044.85-1.89 1.89-1.89h15.84c1.04 0 1.89.846 1.89 1.89v15.118c0 1.043-.85 1.89-1.89 1.89"

		style="fill:#fff;fill-opacity:1;fill-rule:nonzero;stroke:#231f20;stroke-width:.759;stroke-linecap:butt;stroke-linejoin:miter;stroke-miterlimit:10;stroke-dasharray:none;stroke-opacity:1"
		transform="matrix(.98905 0 0 -.98905 -1751.402 703.464)" />
	<path d="M2910.91 573.487a3.147 3.147 0 0 1-3.15 3.146 3.147 3.147 0 1 1 0-6.292c1.74 0 3.15 1.406 3.15 3.146"

		style="fill:#e6e7e8;fill-opacity:1;fill-rule:nonzero;stroke:#231f20;stroke-width:.759;stroke-linecap:butt;stroke-linejoin:miter;stroke-miterlimit:10;stroke-dasharray:none;stroke-opacity:1"
		transform="matrix(.98905 0 0 -.98905 -1751.402 703.464)" />
	<path
		d="M2921.09 572.874c0 2.077-1.68 3.76-3.76 3.76a3.76 3.76 0 0 1-3.76-3.76 3.757 3.757 0 0 1 3.76-3.761c2.08 0 3.76 1.682 3.76 3.761"

		style="fill:#e6e7e8;fill-opacity:1;fill-rule:nonzero;stroke:#231f20;stroke-width:.759;stroke-linecap:butt;stroke-linejoin:miter;stroke-miterlimit:10;stroke-dasharray:none;stroke-opacity:1"
		transform="matrix(.98905 0 0 -.98905 -1751.402 703.464)" />
	<path d="M2910.91 564.853a3.15 3.15 0 0 1-3.15 3.147 3.148 3.148 0 1 1 0-6.294c1.74 0 3.15 1.408 3.15 3.147"

		style="fill:#e6e7e8;fill-opacity:1;fill-rule:nonzero;stroke:#231f20;stroke-width:.759;stroke-linecap:butt;stroke-linejoin:miter;stroke-miterlimit:10;stroke-dasharray:none;stroke-opacity:1"
		transform="matrix(.98905 0 0 -.98905 -1751.402 703.464)" />
	<path
		d="M2919.84 564.213a2.51 2.51 0 0 1-2.51 2.506 2.51 2.51 0 0 1-2.51-2.506 2.513 2.513 0 0 1 2.51-2.507c1.38 0 2.51 1.123 2.51 2.507"

		style="fill:#e6e7e8;fill-opacity:1;fill-rule:nonzero;stroke:#231f20;stroke-width:.759;stroke-linecap:butt;stroke-linejoin:miter;stroke-miterlimit:10;stroke-dasharray:none;stroke-opacity:1"
		transform="matrix(.98905 0 0 -.98905 -1751.402 703.464)" />
	<path
		d="M1118.51 140.505v11.07h22.144v-22.14h-22.142zm19.279-9.43c.55.114 1.115.527 1.376 1.006.26.48.249.08.249 8.446 0 8.37.01 7.986-.25 8.44a2.22 2.22 0 0 1-1.097.934l-.265.106-8.043.013c-5.848.009-8.126-.002-8.345-.038a2.05 2.05 0 0 1-1.666-1.637c-.03-.162-.041-2.85-.033-7.975l.012-7.731.106-.265c.266-.668.808-1.145 1.462-1.288.335-.073 16.145-.084 16.494-.012z"
		style="fill:#fff;stroke:#000;stroke-width:.00132583;stroke-dasharray:none" />
</svg>
