<svg xmlns="http://www.w3.org/2000/svg" width="147.778" height="73.954" viewBox="0 0 110.833 55.466">
	<g data-name="Слой 1" transform="translate(-1144.859 -1151.037)">
		<path fill="#e6e7e8"
			d="M1200.277 1155.087v51.039c0 .847.319 0 .633 0h39.603c5.266 0 10.32-2.025 13.447-5.633.372-.431.603-.762.603-.92v-44.486" />
		<path fill="none" stroke="#231f20" stroke-miterlimit="10" stroke-width=".694445"
			d="M1200.277 1155.087v47.517c0 1.944 1.852 3.522 4.136 3.522h36.1c5.266 0 10.32-2.025 13.447-5.633.372-.431.603-3.428.603-3.428v-41.978" />
		<path fill="#e6e7e8"
			d="M1145.99 1157.597v41.978c0 .158.228.486.603.916 3.125 3.611 8.183 5.636 13.45 5.636h39.597c.314 0 .636.845.636 0v-51.041" />
		<path fill="none" stroke="#231f20" stroke-miterlimit="10" stroke-width=".694445"
			d="M1145.99 1157.597v39.467s.228 2.997.603 3.427c3.125 3.611 8.183 5.636 13.45 5.636h36.094c2.287 0 4.14-1.577 4.14-3.525v-47.516" />
		<path fill="#fff"
			d="M1200.277 1161.273v-8.32c0-.869.922-1.569 2.05-1.569l50.183 2.512c1.136 0 2.053.7 2.053 1.566v5.811c0 .817-.82 1.5-1.89 1.564h-.019a414.558 414.558 0 0 1-50.47 0h-.019c-1.066-.064-1.888-.747-1.888-1.564" />
		<path fill="none" stroke="#231f20" stroke-miterlimit="10" stroke-width=".694445"
			d="M1200.277 1161.273v-8.32c0-.869.922-1.569 2.05-1.569l50.183 2.512c1.136 0 2.053.7 2.053 1.566v5.811c0 .817-.82 1.5-1.89 1.564h-.019a414.558 414.558 0 0 1-50.47 0h-.019c-1.066-.064-1.888-.747-1.888-1.564Z" />
		<path fill="#fff"
			d="M1145.99 1161.273v-5.81c0-.867.92-1.567 2.05-1.567l50.186-2.512c1.128 0 2.05.7 2.05 1.57v8.32c0 .816-.825 1.5-1.891 1.563h-.02a414.512 414.512 0 0 1-50.466 0h-.023c-1.064-.064-1.886-.747-1.886-1.564" />
		<path fill="none" stroke="#231f20" stroke-miterlimit="10" stroke-width=".694445"
			d="M1145.99 1161.273v-5.81c0-.867.92-1.567 2.05-1.567l50.186-2.512c1.128 0 2.05.7 2.05 1.57v8.32c0 .816-.825 1.5-1.891 1.563h-.02a414.512 414.512 0 0 1-50.466 0h-.023c-1.064-.064-1.886-.747-1.886-1.564Z" />
		<path fill="#fff"
			d="M1145.207 1197.188s.803 2.397 3.436 2.202c2.64-.197 3.078-1.041 3.078-1.041l-3.405-35.214-2.267-2.367Z" />
		<path fill="none" stroke="#231f20" stroke-miterlimit="10" stroke-width=".694445"
			d="M1145.207 1197.188s.803 2.397 3.436 2.202c2.64-.197 3.078-1.041 3.078-1.041l-3.405-35.214-2.267-2.367Z" />
		<path fill="#fff"
			d="M1255.343 1197.188s-.802 2.397-3.438 2.202c-2.64-.197-3.075-1.041-3.075-1.041l3.402-35.214 2.267-2.367z" />
		<path fill="none" stroke="#231f20" stroke-miterlimit="10" stroke-width=".694445"
			d="M1255.343 1197.188s-.802 2.397-3.438 2.202c-2.64-.197-3.075-1.041-3.075-1.041l3.402-35.214 2.267-2.367z" />
	</g>
</svg>