<?xml version="1.0" encoding="utf-8"?>
<svg width="14px" height="10.275px" viewBox="0 0 14 10.275" fill="none" xmlns="http://www.w3.org/2000/svg">
  <path d="M 0.644 0 L 0.644 1.003 L 1.029 0.715 L 1.079 0.677 L 1.124 0.722 L 9.971 9.77 L 10.113 9.628 L 10.208 9.44 L 10.213 9.43 L 10.221 9.422 L 10.412 9.23 L 10.508 9.04 L 10.518 9.019 L 10.54 9.008 L 10.718 8.918 L 10.807 8.74 L 10.813 8.729 L 11.012 8.53 L 11.213 8.13 L 11.413 7.93 L 11.904 6.946 L 12.004 6.649 L 12.007 6.64 L 12.072 6.672 L 12.008 6.64 L 12.604 5.445 L 12.7 5.161 L 12.7 4.955 L 12.708 4.94 L 12.9 4.556 L 12.9 4.255 L 12.908 4.24 L 13.1 3.855 L 13.1 3.355 L 13.108 3.34 L 13.2 3.155 L 13.2 2.961 L 13.204 2.949 L 13.301 2.658 L 13.301 1.955 L 13.307 1.94 L 13.4 1.755 L 13.4 0 L 14.044 0 L 14.044 1.244 L 13.544 1.244 L 13.544 1.789 L 13.444 1.988 L 13.444 2.684 L 13.344 2.985 L 13.344 3.189 L 13.337 3.204 L 13.244 3.389 L 13.244 3.89 L 13.236 3.904 L 13.044 4.289 L 13.044 4.589 L 13.036 4.604 L 12.844 4.99 L 12.844 5.184 L 12.841 5.195 L 12.74 5.495 L 12.737 5.505 L 12.672 5.473 L 12.736 5.505 L 12.14 6.695 L 12.04 6.995 L 12.037 7.005 L 11.972 6.973 L 12.036 7.005 L 11.531 8.015 L 11.523 8.023 L 11.331 8.214 L 11.137 8.604 L 11.132 8.615 L 11.123 8.623 L 10.931 8.813 L 10.837 9.005 L 10.826 9.025 L 10.804 9.036 L 10.625 9.125 L 10.536 9.305 L 10.531 9.314 L 10.523 9.323 L 10.331 9.515 L 10.236 9.704 L 10.231 9.715 L 10.222 9.723 L 10.023 9.923 L 9.722 10.223 L 9.672 10.274 L 9.621 10.223 L 0.644 1.146 L 0.644 1.244 L 0 1.244 L 0 0 L 0.644 0 Z M 0.781 1.08 L 9.672 10.069 L 9.87 9.871 L 1.064 0.867 L 0.781 1.08 Z M 13.544 1.101 L 13.9 1.101 L 13.9 0.145 L 13.544 0.145 L 13.544 1.101 Z M 0.144 1.101 L 0.5 1.101 L 0.5 0.145 L 0.144 0.145 L 0.144 1.101 Z" fill="#1D2132"/>
</svg>