<svg xmlns="http://www.w3.org/2000/svg" width="29.071" height="23.331" viewBox="0 0 7.692 6.173"><path d="M33.937 157.897h25.7v1.309h-25.7z" style="fill:#ececec;stroke:#1d1d1b;stroke-width:.25;stroke-miterlimit:10" transform="scale(-.26458 .26458)rotate(-45 -157.528 155.96)"/><path d="M34.11 158.722h26.176v.48H34.11z" style="fill:#ececec;stroke:#1d1d1b;stroke-width:.25;stroke-miterlimit:10" transform="scale(-.26458 .26458)rotate(-45 -157.117 156.37)"/><path d="M56.651 145.356h1.232v4.535h-1.232zM29.062 145.356h1.355v4.535h-1.355z" style="fill:none;stroke:#000;stroke-width:.25;stroke-linecap:round;stroke-linejoin:round;stroke-miterlimit:10" transform="matrix(-.26458 0 0 .26458 15.348 -38.426)"/><path d="M30.416 149.892q-.003.246 0 .496" style="fill:none;stroke:#000;stroke-width:.25;stroke-linecap:round;stroke-linejoin:round" transform="matrix(-.26458 0 0 .26458 15.348 -38.426)"/><path d="M30.448 151.333c.255 4.555 1.996 9.814 6.171 15.084" style="fill:none;stroke:#000;stroke-width:.25;stroke-linecap:round;stroke-linejoin:round;stroke-dasharray:.946,.946" transform="matrix(-.26458 0 0 .26458 15.348 -38.426)"/><path d="M36.92 166.791q.157.193.319.386" style="fill:none;stroke:#000;stroke-width:.25;stroke-linecap:round;stroke-linejoin:round" transform="matrix(-.26458 0 0 .26458 15.348 -38.426)"/><path d="M39.607 166.934c.723.528 1.579.293 2.756-1.243 0 0 .231-.333.519-.118s.028.494.028.494c-1.74 2.12-2.947 1.796-3.625 1.077" style="fill:none;stroke:#1d1d1b;stroke-width:.25;stroke-miterlimit:10" transform="matrix(-.26458 0 0 .26458 15.348 -38.426)"/><path d="M39.016 167.874a.277.277 0 0 0 .387.006l.996-.996a.27.27 0 0 0 0-.381.277.277 0 0 0-.387-.006l-.996.996a.27.27 0 0 0 0 .381z" style="fill:#fff;stroke:#1d1d1b;stroke-width:.25;stroke-miterlimit:10" transform="matrix(-.26458 0 0 .26458 15.348 -38.426)"/></svg>