<svg xmlns="http://www.w3.org/2000/svg" width="14" height="10.275" fill="none" viewBox="0 0 14 10.275"><path fill="#1d2132" d="M.644 0v1.003l.385-.288.05-.038.045.045L9.971 9.77l.142-.142.095-.188.005-.01.008-.008.191-.192.096-.19.01-.021.022-.011.178-.09.089-.178.006-.011.199-.199.201-.4.2-.2.491-.984.1-.297.003-.009.065.032-.064-.032.596-1.195.096-.284v-.206l.008-.015.192-.384v-.301l.008-.015.192-.385v-.5l.008-.015.092-.185v-.194l.004-.012.097-.291v-.703l.006-.015.093-.185V0h.644v1.244h-.5v.545l-.1.199v.696l-.1.301v.204l-.007.015-.093.185v.501l-.008.014-.192.385v.3l-.008.015-.192.386v.194l-.003.011-.101.3-.003.01-.065-.032.064.032-.596 1.19-.1.3-.003.01-.065-.032.064.032-.505 1.01-.008.008-.192.191-.194.39-.005.011-.009.008-.192.19-.094.192-.011.02-.022.011-.179.089-.089.18-.005.009-.008.009-.192.192-.095.189-.005.011-.009.008-.199.2-.301.3-.05.051-.051-.051L.644 1.146v.098H0V0zm.137 1.08 8.891 8.989.198-.198L1.064.867zm12.763.021h.356V.145h-.356zm-13.4 0H.5V.145H.144z"/></svg>