<svg xmlns="http://www.w3.org/2000/svg" width="23.184" height="23.926" viewBox="1060.251 128.801 23.184 23.926">
	<path d="M2843.8 580.509h22.68v-22.677h-22.68z"
		style="fill:none;stroke:#231f20;stroke-width:.759;stroke-linecap:butt;stroke-linejoin:round;stroke-miterlimit:10;stroke-dasharray:none;stroke-opacity:1"
		transform="matrix(.9891 0 0 -.9891 -1752.176 703.358)" />
	<path d="M2843.8 557.736h22.68v1.889h-22.68z"
		style="fill:#e6e7e8;fill-opacity:1;fill-rule:nonzero;stroke:#231f20;stroke-width:.75;stroke-linecap:butt;stroke-linejoin:miter;stroke-miterlimit:10;stroke-dasharray:none;stroke-opacity:1"
		transform="matrix(.9891 0 0 -.9891 -1752.176 703.358)" />
	<path
		d="M2844.65 557.699c0-.344.19-.625.42-.625h6.92c.23 0 .42.281.42.625m-3.67 6.776v4.735m2.36-2.368h-4.73m4.04-1.673-3.35 3.348m3.35 0-3.35-3.348m8.12-.694v4.735m2.37-2.368h-4.73m4.04-1.673-3.35 3.348m3.35 0-3.35-3.348m8.03-.694v4.735m2.37-2.368h-4.74m4.04-1.673-3.35 3.348m3.35 0-3.35-3.348"

		style="fill:none;stroke:#231f20;stroke-width:.75;stroke-linecap:round;stroke-linejoin:round;stroke-miterlimit:10;stroke-dasharray:none;stroke-opacity:1"
		transform="matrix(.9891 0 0 -.9891 -1752.176 703.358)" />
	<path
		d="M1060.765 139.502v10.187h22.156v-20.375h-22.156zm4.837.756c.028.028.038.308.038 1.07v1.033l.726-.727c.719-.718.8-.78.892-.69.092.092.03.175-.688.893l-.727.727h1.033c.76 0 1.042.01 1.07.038.052.052.047.136-.012.194-.042.043-.183.05-1.07.05h-1.02l.726.726c.399.4.726.75.726.78 0 .059-.08.15-.134.15-.02 0-.37-.334-.78-.742l-.742-.741v1.053c0 1.02 0 1.053-.063 1.086-.072.039-.17 0-.2-.08-.01-.028-.02-.495-.02-1.04v-.99l-.71.708c-.391.388-.733.714-.762.724-.065.022-.183-.06-.183-.127 0-.028.327-.38.726-.78l.725-.728h-.988c-.544 0-1.012-.008-1.04-.02-.08-.03-.118-.126-.08-.2.033-.06.066-.061 1.088-.061h1.053l-.748-.748c-.721-.722-.746-.751-.711-.828.075-.164.14-.117.905.646l.726.727v-1.01c0-.636.012-1.032.033-1.07.036-.068.154-.08.21-.023zm6.375 0c.028.028.038.308.038 1.07v1.033l.726-.727c.719-.718.8-.78.892-.69.092.092.03.175-.688.893l-.727.727h1.033c.76 0 1.042.01 1.07.038.057.057.044.175-.023.21-.038.02-.434.033-1.07.033h-1.01l.727.727c.742.743.802.824.665.897a.3.3 0 0 1-.084.033c-.013 0-.36-.334-.768-.742l-.743-.741v1.03c0 .567-.012 1.046-.024 1.064-.042.06-.125.072-.192.025-.065-.045-.066-.063-.066-1.067v-1.02l-.728.725c-.4.4-.745.726-.765.726-.05 0-.163-.114-.163-.163 0-.02.327-.365.726-.766l.725-.728h-.993c-.625 0-1.016-.012-1.054-.032-.075-.04-.082-.202-.01-.23.026-.01.508-.02 1.069-.02h1.02l-.742-.743c-.407-.41-.74-.754-.74-.767s.014-.051.03-.085c.075-.136.156-.076.899.666l.726.727v-1.01c0-.636.012-1.032.033-1.07.036-.068.154-.08.21-.023zm6.28 0c.029.028.039.308.039 1.07v1.033l.727-.727c.718-.718.8-.78.892-.69.092.092.029.175-.69.893l-.726.727h1.033c.76 0 1.042.01 1.07.038.058.057.045.175-.023.21-.038.02-.434.033-1.07.033h-1.01l.727.727c.742.743.802.824.666.897a.3.3 0 0 1-.085.033c-.013 0-.358-.334-.767-.742l-.744-.741v1.053c0 1.02 0 1.053-.063 1.086a.12.12 0 0 1-.125 0c-.06-.033-.062-.066-.062-1.086v-1.053l-.744.74c-.41.409-.76.743-.781.743-.05 0-.163-.114-.163-.163 0-.02.327-.365.726-.766l.726-.728h-.994c-.625 0-1.015-.012-1.053-.032-.075-.04-.083-.202-.011-.23.027-.01.508-.02 1.069-.02h1.02l-.741-.743c-.408-.41-.742-.754-.742-.767a.3.3 0 0 1 .033-.085c.073-.137.154-.076.912.682l.743.742v-1.068c0-.824.01-1.07.039-1.083.07-.028.135-.022.173.017z"
		style="fill:#fff;stroke:#000;stroke-width:.0009375;stroke-dasharray:none" />
	<path
		d="M1061.596 151.84c0 .02.02.106.037.149a.5.5 0 0 0 .103.17.2.2 0 0 0 .127.07c.02.004 1.38.005 3.464.004l3.43-.001.033-.015c.1-.047.188-.194.213-.354v-.032h-3.705c-3.526 0-3.706 0-3.706.01z"
		style="fill:#fff;stroke:#000;stroke-width:.00016573;stroke-dasharray:none" />
</svg>
