<svg xmlns="http://www.w3.org/2000/svg" width="741" height="741" fill="none" viewBox="0 0 741 741"><path fill="#fff" d="M730.585 737.51H10.374c-6.925 0-6.925 0-6.925-6.926V10.374c0-6.926 0-6.926 6.925-6.926h720.211c6.925 0 6.925 0 6.925 6.925v720.211c0 6.926-6.925 6.926-6.925 6.926"/><path fill="#1d2132" d="M692.511 682.095V44.972c-.005-1.102-.315-1.687-.541-2.03a2.6 2.6 0 0 0-1.015-.878 5.3 5.3 0 0 0-1.42-.474 7 7 0 0 0-.473-.067H226.013C144.254 82.588 82.709 150.736 41.523 225.944v463.117c.005 1.101.315 1.687.542 2.029.24.361.567.653 1.014.879.468.234.998.403 1.42.473.197.033.378.061.474.068h637.123c2.336 0 4.99-1.203 7.101-3.314s3.314-4.764 3.314-7.101M180.026 207.752h6.965v48.49h-6.965zm-13.864-20.761v6.898H117.74v-6.898zm90.08 0v6.898h-55.454v-6.898zm-76.216-69.252h6.965v55.388h-6.965zm519.383 564.356c0 4.589-2.26 8.887-5.343 11.97s-7.381 5.343-11.97 5.343H44.432a13 13 0 0 1-1.083-.135 12.1 12.1 0 0 1-3.38-1.082c-1.273-.639-2.67-1.671-3.72-3.247-1.056-1.594-1.619-3.568-1.623-5.883V224.186l.405-.812C75.353 149.456 135.23 81.956 214.651 39.629v-5.004h9.536l2.434-1.218.609 1.218h462.373c.278.02.649.063 1.082.135a12.1 12.1 0 0 1 3.381 1.082c1.272.639 2.669 1.67 3.72 3.246 1.056 1.594 1.618 3.569 1.623 5.884M34.626 221.574h6.898v2.976l.202-.609c28.05-84.128 98.128-154.214 182.258-182.257l3.246-1.082 2.232 6.56-3.314 1.15c-82.064 27.356-150.507 95.795-177.862 177.86l-1.082 3.246-5.68-1.893v14.81h-6.898zM214.65 183.5c0-9.601-3.198-17.333-8.521-22.656-5.322-5.314-13.063-8.521-22.655-8.521-9.145.009-16.888 4.599-22.453 10.956-5.627 6.431-8.656 14.301-8.656 20.221 0 9.592 3.139 17.333 8.453 22.655 5.318 5.318 13.067 8.515 22.656 8.521 9.592 0 17.333-3.206 22.655-8.521 5.323-5.323 8.521-13.054 8.521-22.655m6.966 0c0 11.163-3.767 20.729-10.55 27.524-6.796 6.797-16.418 10.55-27.592 10.55-11.163-.006-20.734-3.759-27.525-10.55-6.788-6.795-10.55-16.357-10.55-27.524 0-7.93 3.923-17.401 10.415-24.82 6.543-7.464 16.071-13.246 27.66-13.255 11.174 0 20.796 3.754 27.592 10.55 6.783 6.795 10.55 16.361 10.55 27.525M734.034 24.21c-.002-6.383-1.61-10.537-4.193-13.119-2.585-2.576-6.739-4.193-13.119-4.193H24.211c-6.384.002-10.538 1.61-13.12 4.193s-4.19 6.736-4.193 13.12v692.511c0 6.38 1.617 10.534 4.193 13.119 2.582 2.583 6.736 4.191 13.12 4.193h692.511c.745 0 2.223-.457 4.328-1.758 2-1.238 4.205-2.988 6.222-5.004 2.016-2.017 3.766-4.222 5.004-6.222 1.301-2.106 1.758-3.583 1.758-4.328zM741 716.723c0 2.712-1.337 5.549-2.84 7.98-1.575 2.544-3.708 5.127-6.019 7.439-2.312 2.311-4.895 4.444-7.439 6.019-2.431 1.503-5.268 2.84-7.98 2.84H24.211c-7.441-.002-13.652-1.898-17.99-6.222C1.882 730.437 0 724.18 0 716.722V24.211c.002-7.453 1.883-13.65 6.222-17.99C10.56 1.885 16.758.003 24.21 0h692.511c7.458 0 13.715 1.88 18.056 6.222 4.324 4.337 6.22 10.548 6.222 17.989M183.488 131.578c29.903 0 51.709 22.53 58.837 58.16l.135.676h-.068c0 29.323-22.088 58.904-58.904 58.904-29.318-.007-58.836-22.094-58.836-58.904v-.879h.135c3.588-14.311 10.745-28.709 20.695-39.562 9.967-10.863 22.937-18.391 38.006-18.395m0 6.898c-12.607.004-23.867 6.338-32.934 16.231-9.001 9.826-15.638 22.993-19.004 36.248.279 32.114 26.007 51.391 51.938 51.397 32.33 0 51.743-25.677 51.871-51.667-6.807-33.348-26.483-52.209-51.871-52.209"/></svg>