<svg xmlns="http://www.w3.org/2000/svg" width="45.212" height="15.474" viewBox="29.151 586.057 45.212 15.474">
	<path d="M1858.05 1029.45h-45.35v-15.12h45.35z"
		style="fill:#e6e7e8;fill-opacity:1;fill-rule:nonzero;stroke:#231f20;stroke-width:.609923;stroke-linecap:butt;stroke-linejoin:miter;stroke-miterlimit:10;stroke-dasharray:none;stroke-opacity:1"
		transform="translate(-1753.756 -411.47)scale(.98373)" />
	<path d="M1840.81 1023.74c-.53.93-2.8 2.39-5.56 2.39-2.62 0-4.81-1.58-5.47-2.39"
		style="fill:#e6e7e8;fill-opacity:1;fill-rule:nonzero;stroke:#231f20;stroke-width:.609923;stroke-linecap:butt;stroke-linejoin:miter;stroke-miterlimit:10;stroke-dasharray:none;stroke-opacity:1"
		transform="translate(-1753.756 -411.47)scale(.98373)" />
	<path d="M1829.78 1020.14c.53-.93 2.8-2.38 5.56-2.38 2.62 0 4.8 1.57 5.47 2.38"
		style="fill:#e6e7e8;fill-opacity:1;fill-rule:nonzero;stroke:#231f20;stroke-width:.609923;stroke-linecap:butt;stroke-linejoin:miter;stroke-miterlimit:10;stroke-dasharray:none;stroke-opacity:1"
		transform="translate(-1753.756 -411.47)scale(.98373)" />
	<path d="M1854.47 1022.2h-38.29v-2.06h38.29z"
		style="fill:#fff;fill-opacity:1;fill-rule:nonzero;stroke:#231f20;stroke-width:.609923;stroke-linecap:butt;stroke-linejoin:miter;stroke-miterlimit:10;stroke-dasharray:none;stroke-opacity:1"
		transform="translate(-1753.756 -411.47)scale(.98373)" />
	<path d="m1850.69 1022.2-3.32 1.54h-24.24l-3.32-1.54z"
		style="fill:#fff;fill-opacity:1;fill-rule:nonzero;stroke:#231f20;stroke-width:.609923;stroke-linecap:butt;stroke-linejoin:miter;stroke-miterlimit:10;stroke-dasharray:none;stroke-opacity:1"
		transform="translate(-1753.756 -411.47)scale(.98373)" />
</svg>
