<svg width="6" height="9" viewBox="0 0 6 9" fill="none" xmlns="http://www.w3.org/2000/svg">
<path d="M5.6999 0.199707L5.6999 1.99971L5.63281 2.07031L5.5999 2.09971L5.52734 2.12891L5.4999 6.99971L5.3999 7.09971L5.3999 7.29971L5.2999 7.39971L5.2999 7.49971L5.1999 7.59971L5.1999 7.69971L5.0999 7.79971L4.9999 7.89971L4.8999 7.99971L4.8999 8.09971L4.7999 8.09971L4.6999 8.19971L4.5999 8.29971L4.4999 8.29971L4.4999 8.39971L4.3999 8.39971L4.2999 8.49971L4.1999 8.49971L4.0999 8.59971L3.8999 8.59971L3.80493 8.67285L2.90259 8.67285L2.6999 8.59971L2.53149 8.56348L2.3999 8.49971L2.32446 8.45801L2.1999 8.39971L2.10571 8.34863L1.9999 8.29971L1.9729 8.25488L1.8999 8.18066L1.7999 8.09971L1.73853 8.05957L1.67993 7.99316L1.5999 7.90723L1.4999 7.79971L1.4999 7.7627L1.46509 7.69629L1.3999 7.5791L1.2999 7.3916L1.15242 7.09971L1.0999 6.54982L1.0999 2.19971L1.05078 2.17187L0.999901 2.09971L0.899902 2.02734L0.899902 0.199707L3.2999 0.199707L5.6999 0.199707Z" fill="white"/>
<path d="M0.850097 0.149902L5.74951 0.149902L5.74951 1.8999C5.74945 2.01834 5.69 2.10646 5.61865 2.16357C5.59709 2.18082 5.57375 2.19531 5.55029 2.20752L5.55029 6.6001C5.55008 7.83038 4.52452 8.74932 3.30029 8.74951C2.07433 8.74951 1.05053 7.72904 1.05029 6.6001L1.05029 2.2124C1.00413 2.18837 0.965634 2.1556 0.936035 2.11865C0.880217 2.04888 0.850158 1.96305 0.850097 1.8999L0.850097 0.149902ZM3.30029 1.04932C3.21745 1.04932 3.15635 1.091 3.12744 1.12939C3.1218 1.13691 3.11746 1.14401 3.11475 1.1499L3.1499 1.1499L3.1499 1.19971C3.1499 1.23345 3.16727 1.27176 3.19775 1.30225C3.2282 1.33261 3.26663 1.3501 3.30029 1.3501C3.33383 1.34996 3.37154 1.33243 3.40186 1.30225C3.43234 1.27176 3.44971 1.23345 3.44971 1.19971C3.44971 1.16597 3.43234 1.12765 3.40186 1.09717C3.37154 1.06698 3.33383 1.04945 3.30029 1.04932ZM3.30029 8.6499C4.47415 8.64971 5.44635 7.77113 5.44873 6.604L5.0542 2.94971L1.54443 2.94971L1.1499 6.604C1.15251 7.67323 2.12797 8.6499 3.30029 8.6499ZM5.14502 2.8501L5.1499 2.89404L5.44971 5.67139L5.44971 2.25537C4.67426 2.34887 4.08124 2.3501 3.30029 2.3501C2.52254 2.3501 1.83509 2.34901 1.1499 2.25635L1.1499 5.67139L1.44971 2.89404L1.45459 2.8501L5.14502 2.8501ZM3.30029 2.24951C4.05148 2.24951 4.62353 2.24702 5.3501 2.16455L5.375 2.16455L5.3999 2.1499C5.43674 2.1499 5.50099 2.12957 5.55615 2.08545C5.60964 2.04263 5.64984 1.98117 5.6499 1.8999L5.6499 0.249512L0.949707 0.249512L0.949707 1.8999C0.949775 1.93677 0.97011 2.00109 1.01416 2.05615C1.05698 2.10958 1.1185 2.14984 1.19971 2.1499L1.23047 2.16846L1.24951 2.16846C1.89842 2.24889 2.55422 2.24951 3.30029 2.24951ZM3.30029 0.949707C3.36641 0.949835 3.42871 0.982426 3.47314 1.02686C3.51756 1.07136 3.55029 1.13354 3.55029 1.19971C3.55029 1.26587 3.51756 1.32805 3.47314 1.37256C3.42871 1.41699 3.36641 1.44958 3.30029 1.44971C3.23413 1.44971 3.17194 1.41698 3.12744 1.37256C3.09161 1.33673 3.06381 1.2894 3.0542 1.23779C3.04924 1.23516 3.04408 1.23284 3.03955 1.229C3.02104 1.2133 3.01288 1.19211 3.01123 1.17236C3.00829 1.13611 3.02543 1.0991 3.04736 1.06982C3.09352 1.00828 3.18329 0.949707 3.30029 0.949707Z" fill="#1D2132"/>
</svg>
