<svg xmlns="http://www.w3.org/2000/svg" width="165" height="289" fill="none" viewBox="0 0 165 289"><path fill="#fff" d="M163.329 1.674v60.49l-2.259 2.374-1.108.987-2.444.982-.924 163.689-3.368 3.36v6.722l-3.368 3.36v3.361l-3.367 3.36v3.361l-3.368 3.361-3.368 3.36-3.368 3.361v3.361h-3.367l-3.368 3.36-3.368 3.361h-3.368v3.361h-3.367l-3.368 3.36h-3.368l-3.368 3.361h-6.735l-3.199 2.458H69.123l-6.826-2.458-5.672-1.218-4.431-2.143-2.541-1.401-4.195-1.959-3.172-1.717-3.564-1.644-.909-1.507-2.458-2.494-3.368-2.72-2.067-1.349-1.973-2.232-2.695-2.888-3.368-3.613v-1.244l-1.173-2.232-2.195-3.938-3.368-6.301-4.967-9.81-1.768-18.479V68.887l-1.654-.936-1.714-2.425-3.368-2.432V1.674H163.33"/><path fill="#1d2132" d="M0 0h165v58.81c-.002 3.981-2.004 6.942-4.407 8.862a14 14 0 0 1-2.302 1.477v147.617c-.007 41.345-34.546 72.227-75.775 72.234-41.287 0-75.766-34.294-75.774-72.234V69.313a12.1 12.1 0 0 1-3.848-3.15C1.014 63.816.002 60.932 0 58.81zm82.516 30.226c-2.79 0-4.847 1.4-5.82 2.691a4 4 0 0 0-.428.69h1.184v1.673c0 1.134.585 2.421 1.611 3.446 1.026 1.02 2.32 1.608 3.453 1.608 1.13-.005 2.4-.594 3.42-1.608 1.027-1.025 1.612-2.312 1.612-3.446s-.585-2.422-1.611-3.446c-1.021-1.014-2.291-1.604-3.42-1.608m0 255.427c39.533-.007 72.274-29.533 72.354-68.755L141.584 94.091h-118.2L10.096 216.898c.087 35.932 32.939 68.755 72.42 68.755m62.126-194.91.165 1.477 10.096 93.336v-114.8c-26.115 3.143-46.086 3.184-72.387 3.184-26.192 0-49.344-.036-72.42-3.15v114.766L20.194 92.22l.165-1.477zM82.516 70.56c25.299 0 44.564-.084 69.033-2.855h.838l.839-.493c1.241 0 3.405-.683 5.262-2.166 1.801-1.439 3.155-3.504 3.157-6.235V3.347H3.355v55.464c.002 1.239.687 3.4 2.17 5.25 1.442 1.796 3.514 3.15 6.249 3.151l1.036.624h.641c21.854 2.703 43.94 2.724 69.065 2.724m0-43.682c2.227.005 4.325 1.1 5.822 2.593 1.496 1.496 2.598 3.585 2.598 5.809 0 2.223-1.103 4.313-2.598 5.809-1.497 1.493-3.595 2.588-5.822 2.593-2.228 0-4.322-1.1-5.82-2.593-1.207-1.204-2.144-2.795-2.467-4.53-.167-.088-.341-.166-.494-.294-.623-.528-.898-1.24-.954-1.904-.098-1.218.479-2.462 1.217-3.446 1.555-2.068 4.578-4.037 8.518-4.037"/></svg>