<svg xmlns="http://www.w3.org/2000/svg" width="84.926" height="63.933" viewBox="0 0 63.694 47.95">
	<g data-name="Слой 1" transform="translate(-468.376 -1161.412)">
		<clipPath id="a">
			<path d="M0 0h1653.544v2338.583H0Z" />
		</clipPath>
		<g clip-path="url(#a)">
			<path fill="none" stroke="#231f20" stroke-linejoin="round" stroke-width=".70277834"
				d="M468.728 1209.011h62.991v-47.247h-62.991z" />
			<path fill="#fff"
				d="M523.357 1205.16h-46.26a3.936 3.936 0 0 1-3.937-3.936v-31.498a3.935 3.935 0 0 1 3.936-3.936h46.261a3.934 3.934 0 0 1 3.934 3.936v31.498a3.936 3.936 0 0 1-3.934 3.936" />
			<path fill="none" stroke="#231f20" stroke-miterlimit="10" stroke-width=".70277834"
				d="M523.357 1205.16h-46.26a3.936 3.936 0 0 1-3.937-3.936v-31.498a3.935 3.935 0 0 1 3.936-3.936h46.261a3.934 3.934 0 0 1 3.934 3.936v31.498a3.936 3.936 0 0 1-3.934 3.936Z" />
			<path fill="#e6e7e8"
				d="M501.366 1203.443h-22.684a3.939 3.939 0 0 1-3.938-3.936v-28.064a3.94 3.94 0 0 1 3.938-3.939h22.684a3.936 3.936 0 0 1 3.933 3.939v28.064a3.936 3.936 0 0 1-3.933 3.936" />
			<path fill="none" stroke="#231f20" stroke-miterlimit="10" stroke-width=".694445"
				d="M501.366 1203.443h-22.684a3.939 3.939 0 0 1-3.938-3.936v-28.064a3.94 3.94 0 0 1 3.938-3.939h22.684a3.936 3.936 0 0 1 3.933 3.939v28.064a3.936 3.936 0 0 1-3.933 3.936Z" />
			<path fill="#fff" d="M492.933 1185.474a2.819 2.819 0 1 1-5.64 0 2.82 2.82 0 0 1 5.639 0" />
			<path fill="none" stroke="#231f20" stroke-miterlimit="10" stroke-width=".70277834"
				d="M492.933 1185.474a2.819 2.819 0 1 1-5.64 0 2.82 2.82 0 0 1 5.639 0Z" />
			<path fill="none" stroke="#231f20" stroke-linejoin="round" stroke-width=".70277834"
				d="M508.774 1180.144h15.072m-15.072 3.736h15.072m-15.072 3.736h15.072m-15.072 3.736h15.072m-15.072 3.74h15.072m-15.072 3.735h15.072" />
			<path fill="#fff"
				d="M509.369 1168.02c-1.003-.797-2.398-.633-3.148.25l-8.147 9.614c-.283.278-.261.762.053 1.078l.667.667c.316.311.8.339 1.08.053l9.614-8.148c.88-.75 1.042-2.144.244-3.147a1.413 1.413 0 0 0-.172-.191c-.055-.064-.125-.12-.191-.175" />
			<path fill="none" stroke="#231f20" stroke-miterlimit="10" stroke-width=".70277834"
				d="M509.369 1168.02c-1.003-.797-2.398-.633-3.148.25l-8.147 9.614c-.283.278-.261.762.053 1.078l.667.667c.316.311.8.339 1.08.053l9.614-8.148c.88-.75 1.042-2.144.244-3.147a1.413 1.413 0 0 0-.172-.191c-.055-.064-.125-.12-.191-.175Z" />
			<path fill="#fff"
				d="M505.763 1177.863a1.578 1.578 0 0 1-1.15-1.909l1.55-6.228a1.576 1.576 0 0 1 1.905-1.147 1.584 1.584 0 0 1 1.148 1.911l-1.545 6.223a1.576 1.576 0 0 1-1.908 1.15" />
			<path fill="none" stroke="#231f20" stroke-miterlimit="10" stroke-width=".70277834"
				d="M505.763 1177.863a1.578 1.578 0 0 1-1.15-1.909l1.55-6.228a1.576 1.576 0 0 1 1.905-1.147 1.584 1.584 0 0 1 1.148 1.911l-1.545 6.223a1.576 1.576 0 0 1-1.908 1.15Z" />
		</g>
	</g>
</svg>