<svg xmlns="http://www.w3.org/2000/svg" width="17.475" height="23.065" viewBox="1119.941 478.212 17.475 23.065">
	<path d="M2920.49 929.163h-17v-22.678h17z"
		style="fill:none;stroke:#231f20;stroke-width:.75;stroke-linecap:butt;stroke-linejoin:round;stroke-miterlimit:10;stroke-dasharray:none;stroke-opacity:1"
		transform="translate(-1738.147 -413.844)scale(.98449)" />
	<path d="M2904.83 907.976c0-.253.35-.459.77-.459h12.78c.42 0 .77.206.77.459"
		style="fill:#e6e7e8;fill-opacity:1;fill-rule:nonzero;stroke:#231f20;stroke-width:.759;stroke-linecap:butt;stroke-linejoin:miter;stroke-miterlimit:10;stroke-dasharray:none;stroke-opacity:1"
		transform="translate(-1738.147 -413.844)scale(.98449)" />
	<path
		d="M2919.53 917.76s-.4-2.747-3.39-2.747c-1.64 0-2.39.911-2.73 1.734-.35.836-.35 1.789.08 2.593.33.648 1.18 1.297 2.42 1.297 1.41 0 1.96-.754 2.18-1.401.19-.593.12-1.252-.21-1.781-.27-.439-.94-.878-1.74-.878-1.6 0-1.44 1.575-1.44 1.575s.01 1.053 1.05 1.053c.88 0 .8-.797.8-.797s-.06-.619-.62-.619m-11.48-2.39.87 4.277h5.63l.86-4.277"
		style="fill:none;stroke:#231f20;stroke-width:.759;stroke-linecap:round;stroke-linejoin:miter;stroke-miterlimit:10;stroke-dasharray:none;stroke-opacity:1"
		transform="translate(-1738.147 -413.844)scale(.98449)" />
	<path
		d="m2911.62 916.641-.86-.525a.59.59 0 0 0-.61.003l-.56.342a.58.58 0 0 1-.59.01l-.64-.36a.56.56 0 0 0-.6.017l-.5.321a.58.58 0 0 1-.6.023l-.67-.365a.58.58 0 0 0-.61.028l-.74.506"
		style="fill:none;stroke:#231f20;stroke-width:.759;stroke-linecap:butt;stroke-linejoin:miter;stroke-miterlimit:10;stroke-dasharray:none;stroke-opacity:1"
		transform="translate(-1738.147 -413.844)scale(.98449)" />
	<path d="M2905.54 920.637h5.19"
		style="fill:#fff;fill-opacity:1;fill-rule:nonzero;stroke:#231f20;stroke-width:.759;stroke-linecap:round;stroke-linejoin:miter;stroke-miterlimit:10;stroke-dasharray:none;stroke-opacity:1"
		transform="translate(-1738.147 -413.844)scale(.98449)" />
	<path
		d="M1120.428 489.723v-11.015h16.452v22.03h-16.452zm12.945 2.82c.894-.236 1.466-.96 1.521-1.924.076-1.307-.818-2.236-2.157-2.243-.517-.003-.855.128-1.145.443-.355.385-.499 1.064-.343 1.623.07.25.337.574.58.7.252.13.817.122 1.053-.017.685-.4.474-1.543-.284-1.543-.31 0-.267.237.055.3.346.07.453.609.174.887-.135.135-.212.165-.428.165-.594 0-.9-.335-.9-.986q.001-.76.496-1.088c.208-.14.275-.151.768-.15.63.003.92.107 1.32.476.364.336.51.706.51 1.297 0 .407-.023.527-.154.797a2.04 2.04 0 0 1-.93.907c-.324.144-1.142.197-1.59.104-.77-.16-1.354-.584-1.658-1.205-.285-.584-.357-1.081-.24-1.67.23-1.164.935-1.96 1.957-2.205.392-.094 1.23-.093 1.634 0 1.085.255 1.94 1.099 2.255 2.23.082.293.113.338.23.338.12 0 .133-.022.115-.195-.052-.527-.493-1.343-.99-1.833-1.233-1.213-3.618-1.24-4.7-.054-.89.973-1.1 2.417-.52 3.568.318.629 1.018 1.148 1.75 1.296.17.034.361.074.423.088.181.04.876-.02 1.198-.106zm-5.163-3.018c.242-1.193.428-2.2.415-2.24-.013-.038-.075-.07-.136-.07-.12 0-.156.096-.286.75l-.066.326-.263-.152a8 8 0 0 1-.374-.228c-.218-.15-.536-.092-.987.178-.233.138-.458.252-.502.253-.043 0-.293-.117-.556-.26-.59-.322-.77-.32-1.303.027-.199.128-.4.233-.446.233s-.293-.114-.549-.253c-.606-.331-.792-.335-1.243-.03l-.33.226-.09-.44a6 6 0 0 0-.125-.534c-.045-.117-.2-.126-.244-.014-.017.045.167 1.06.41 2.254l.441 2.173 2.897-.015 2.897-.014zm7.655-9.555c0-.144-.303-.404-.55-.47-.16-.044-2.159-.057-6.784-.047l-6.554.015-.206.128a.7.7 0 0 0-.265.297l-.059.168 7.21-.002c6.497 0 7.208-.01 7.208-.09z"
		style="fill:#ececec;stroke:#000;stroke-width:.00169029;stroke-dasharray:none" />
	<path
		d="M1122.204 491.314c-.03-.092-.537-2.625-.537-2.684s.554-.428.725-.483c.098-.03.256.024.63.218.633.33.757.33 1.296.006.23-.14.454-.253.496-.253s.285.113.54.252c.598.326.728.326 1.284 0 .238-.14.466-.253.507-.253.08 0 .39.157.721.367l.21.132-.218 1.089-.279 1.384-.06.296h-2.646c-2.067 0-2.65-.016-2.67-.07z"
		style="fill:#b3b3b3;stroke:#000;stroke-width:.00169029;stroke-dasharray:none" />
</svg>
