<svg xmlns="http://www.w3.org/2000/svg" width="622" height="115" fill="none" viewBox="0 0 622 115"><path fill="#fff" d="M619.56 113.675V2.015H1.113v111.66z"/><path fill="#1d2132" d="M621.11 115V0H.11v115zm-2.534-2.805H2.643V2.805h615.933z"/><path fill="#1d2132" d="M19.77 86.951V58.902h600.65v28.05z"/><path fill="#fff" d="M19.77 84.147V61.708H619.9v22.439z"/><path fill="#000" d="M567.464 84.147V58.903Zm-516.798 0V58.903Zm-.811-10.858 278.871-.362Zm276.062-.362h241.547Z"/><path fill="#1d2132" d="M49.251 58.892h2.825v12.984l273.847-.357H566.06V58.892h2.798v25.255h-2.798v-9.806H328.721l-276.645.356v9.45h-2.825zm-32.466 54.673 6.612-54.588-21.891-.048-.169 54.76zm588.734-.051-6.612-54.589 21.891-.047.169 54.759z"/></svg>